<?xml version="1.0" encoding="utf-8"?>
<!-- Generator: Adobe Illustrator 26.3.1, SVG Export Plug-In . SVG Version: 6.00 Build 0)  -->
<svg version="1.1" id="Vrstva_1" xmlns="http://www.w3.org/2000/svg" xmlns:xlink="http://www.w3.org/1999/xlink" x="0px" y="0px"
	 viewBox="0 0 382 345" style="enable-background:new 0 0 382 345;" xml:space="preserve">
<style type="text/css">
	.st0{fill-rule:evenodd;clip-rule:evenodd;fill:#85CBA4;}
	.st1{fill-rule:evenodd;clip-rule:evenodd;fill:#699E5D;}
	.st2{fill-rule:evenodd;clip-rule:evenodd;fill:#8BBC6C;}
	.st3{fill-rule:evenodd;clip-rule:evenodd;fill:#6CC074;}
	.st4{fill-rule:evenodd;clip-rule:evenodd;fill:#2F7348;}
	.st5{fill-rule:evenodd;clip-rule:evenodd;fill:#185D33;}
	.st6{fill-rule:evenodd;clip-rule:evenodd;fill:#185B33;}
	.st7{fill-rule:evenodd;clip-rule:evenodd;fill:#3B7F58;}
	.st8{fill-rule:evenodd;clip-rule:evenodd;fill:#10502A;}
	.st9{fill-rule:evenodd;clip-rule:evenodd;fill:#6FB686;}
	.st10{fill-rule:evenodd;clip-rule:evenodd;fill:#1E6432;}
	.st11{fill-rule:evenodd;clip-rule:evenodd;fill:#6CC075;}
	.st12{fill-rule:evenodd;clip-rule:evenodd;fill:#347451;}
	.st13{fill-rule:evenodd;clip-rule:evenodd;fill:#21633E;}
	.st14{fill-rule:evenodd;clip-rule:evenodd;fill:#266A3D;}
	.st15{fill-rule:evenodd;clip-rule:evenodd;fill:#287140;}
	.st16{fill-rule:evenodd;clip-rule:evenodd;fill:#328047;}
	.st17{fill-rule:evenodd;clip-rule:evenodd;fill:#1D6232;}
	.st18{fill-rule:evenodd;clip-rule:evenodd;fill:#59B848;}
	.st19{fill-rule:evenodd;clip-rule:evenodd;fill:#458B5E;}
	.st20{fill-rule:evenodd;clip-rule:evenodd;fill:#1A6634;}
	.st21{fill-rule:evenodd;clip-rule:evenodd;fill:#246C36;}
	.st22{fill-rule:evenodd;clip-rule:evenodd;fill:#40B549;}
	.st23{fill-rule:evenodd;clip-rule:evenodd;fill:#2A6C36;}
	.st24{fill-rule:evenodd;clip-rule:evenodd;fill:#2B6F3B;}
	.st25{fill-rule:evenodd;clip-rule:evenodd;fill:#296E3A;}
	.st26{fill-rule:evenodd;clip-rule:evenodd;fill:#1D6332;}
	.st27{fill-rule:evenodd;clip-rule:evenodd;fill:#79C37A;}
	.st28{fill-rule:evenodd;clip-rule:evenodd;fill:#225E2F;}
	.st29{fill-rule:evenodd;clip-rule:evenodd;fill:#2D773B;}
	.st30{fill-rule:evenodd;clip-rule:evenodd;fill:#2A6A43;}
	.st31{fill-rule:evenodd;clip-rule:evenodd;fill:#1C5D3E;}
	.st32{fill-rule:evenodd;clip-rule:evenodd;fill:#317244;}
	.st33{fill-rule:evenodd;clip-rule:evenodd;fill:#94CE9E;}
	.st34{fill-rule:evenodd;clip-rule:evenodd;fill:#1F5934;}
	.st35{fill-rule:evenodd;clip-rule:evenodd;fill:#2A6934;}
	.st36{fill-rule:evenodd;clip-rule:evenodd;fill:#31221A;}
	.st37{fill-rule:evenodd;clip-rule:evenodd;fill:#3B2E23;}
	.st38{fill-rule:evenodd;clip-rule:evenodd;fill:#37261E;}
	.st39{fill-rule:evenodd;clip-rule:evenodd;fill:#3A2716;}
	.st40{fill-rule:evenodd;clip-rule:evenodd;fill:#1E120D;}
	.st41{fill-rule:evenodd;clip-rule:evenodd;fill:#23170E;}
	.st42{fill-rule:evenodd;clip-rule:evenodd;fill:#2C1C12;}
	.st43{fill-rule:evenodd;clip-rule:evenodd;fill:#20150D;}
	.st44{fill-rule:evenodd;clip-rule:evenodd;fill:#483E36;}
	.st45{fill-rule:evenodd;clip-rule:evenodd;fill:#77412C;}
	.st46{fill-rule:evenodd;clip-rule:evenodd;fill:#2C1D11;}
	.st47{fill-rule:evenodd;clip-rule:evenodd;fill:#B78351;}
	.st48{fill-rule:evenodd;clip-rule:evenodd;fill:#78412C;}
	.st49{fill-rule:evenodd;clip-rule:evenodd;fill:#362718;}
	.st50{fill-rule:evenodd;clip-rule:evenodd;fill:#3C2B1A;}
	.st51{fill-rule:evenodd;clip-rule:evenodd;fill:#32251A;}
	.st52{filter:url(#Adobe_OpacityMaskFilter);}
	.st53{fill-rule:evenodd;clip-rule:evenodd;fill:#FFFFFF;}
	.st54{mask:url(#mask-2_00000101070212261968348890000011137369840110108072_);fill-rule:evenodd;clip-rule:evenodd;fill:#030404;}
	.st55{fill-rule:evenodd;clip-rule:evenodd;fill:#3D7F3D;}
	.st56{fill-rule:evenodd;clip-rule:evenodd;fill:#493928;}
	.st57{fill-rule:evenodd;clip-rule:evenodd;fill:#392D20;}
	.st58{fill-rule:evenodd;clip-rule:evenodd;fill:#403120;}
	.st59{fill-rule:evenodd;clip-rule:evenodd;fill:#413221;}
	.st60{filter:url(#Adobe_OpacityMaskFilter_00000056398273231832906060000004319528208468341665_);}
	.st61{mask:url(#mask-4_00000136379047222419965460000015510719198238217867_);fill-rule:evenodd;clip-rule:evenodd;fill:#201A11;}
</style>
<g id="Page-1">
	<g id="a" transform="translate(-49.000000, -31.000000)">
		<g id="Group-391" transform="translate(49.000000, 31.000000)">
			<path id="Fill-1" class="st0" d="M81.8,189c26.9,0.6,53.9,1.2,80.8,1.8c2.1,0,4.3-0.2,6,1.5c-27.2-0.6-54.4-1.1-81.7-1.7
				C85.1,190.6,83.2,190.7,81.8,189"/>
			<path id="Fill-3" class="st1" d="M372.8,173.6c0.3,0.3,0.6,0.7,0.9,1c-2.6,0.5-5,1.7-8,0.4C368,174.5,370.4,174,372.8,173.6"/>
			<path id="Fill-5" class="st2" d="M368.2,171.5c1.2,0.4,2.4,0.7,3.5,1.1c-3-0.1-5.9,0.7-9.1-0.2C364.5,171,366.4,172,368.2,171.5"
				/>
			<path id="Fill-7" class="st3" d="M33.6,100.6c-2-1.3-4-2.5-6.8-2.1c1-1.1,2.4-1.9,2.3-2.7c-0.1-1.3-1.6-1.4-2.7-1.3
				c-3.8,0.3,0.2-2.1-0.9-2.7c-3.3-1.8-4.9-7.2-10.2-4.9c-0.7,0.3-1.5,0.3-2.4,0.4c0.8-2.3,5.1-1.6,4.1-4c-1.1-2.5-4.2-2.1-6.7-0.9
				c-0.4-1.4,0.9-1.8,1-2.7c-1.4-2.8-6-3.6-5.1-8c1.1-1.8,2.6-1.7,4.3-1.2c1.2,0.5,2.3,1.4,3.5,1.9c1.6,1.2,3.2,2.5,5.4,1.8
				C21.1,73,19.5,70,22,69c0.5,0,0.9,0.1,1.2,0.3c1.1,1.8,0.2,3.9,0.6,5c0.1,1.5-0.6,0.6,0,0.8c0.4-2.4-1.1-4.9,0.9-7.1
				c1-0.4,1.8-0.1,2.6,0.6c1.7,3,1.3,6.6,2.9,9.6c-0.9-2.2-0.8-4.4,0.4-6.5c0.2-0.4,0.4-0.8,0.6-1.2c1.8-3.7,0.5-7.8,1.3-11.7
				c2.1-1.4,3.3-0.7,4,1.6c-0.5,3.3,0.3,6.6,0.2,9.7c0.1,0.9,1,0,0.4,0.2c-0.3,0.1-0.4,0-0.4-0.2c0.2-2.9-1-5.7,0-8.6
				c0.9-1.2,1.7-0.9,2.5,0.2c0.6,5.7,0.8,11.4,1.3,17.1c0.1,1.3,1,2.4,1.1,3.7c-0.1,1.8,0.4,3.6-0.9,5.2c0.8,4.3,0.8,8.6,0.4,13
				c-0.1,1.4-0.3,3.2-1.6,3.8c-1.7,0.8-2.3-1.2-3.4-2C35.2,102,34.4,101.3,33.6,100.6"/>
			<path id="Fill-9" class="st4" d="M73.5,63.7c-1.3,2-3.7,1.4-6.4,2.8c3.8-0.4,6.1,0.4,6.9,3.7C70.8,71,67.3,69.7,64,71
				c-0.1,0.1-0.1,0.3-0.2,0.4c-5.8,2.4-5.8,2.4-4.8,10c0.3,2-0.5,3.7-1.4,5.3c-0.4-0.8-0.7-1.6-1.5-3.3c-0.2,3.1-0.4,5.5-0.6,7.9
				c-0.1,1,0.3,2.5-1.6,1.8c-2.1-0.8-1.4-2.6-1.5-4.1c-0.2,1.4-1,1.7-2.1,1c-0.9-0.6-1.8-1.3-1.2-2.7c-2-3.3-2-6.8-1.3-10.6
				c0.6-3.4,0.7-6.9,1.6-10.4c0.1,2.5,0.2,5,0.3,7.5c0.3,0,0.5,0,0.8,0c0-2.2-0.1-4.4,0.2-6.5c0.3-2.4-1.1-3.9-2.8-4.4
				c-2.1-0.5-3.2-1.1-4.3-3.3c-0.9-1.9-1.2,0.4-1.4,1.2c-5.8-2.6-12.1-3.8-17.7-6.8c-4-2.2-4.5-4.1-2.5-10.2c0.9-0.8,2-1.2,3.1-0.9
				c5.8,1.4,11.3,4,17,5.7c1.9,0.6,1.5,2.6,1.8,4.1c2.6,3.7,8.4,2.6,10.3,7.3c3-0.8,6.1-1.2,9.1-1.6c1.5,0.5,3,0.7,4.5,0.8
				C70.7,59.3,72.7,60.7,73.5,63.7"/>
			<path id="Fill-11" class="st5" d="M57.6,86.7c0.2-1.9,0.3-3.8-0.5-5.7c-3-7.6-1.5-9.6,6.9-10c3.9,0.5,8.1-0.2,12.2,1.7
				c-2.5,1-4.4-0.5-6.8,0.1c1.8,0.8,3.2,1.4,4.8,2.2c-2.3,1.2-4.3-0.9-6.9-0.4c1.9,1.1,3.5,2.1,5.1,3c-3.8-0.2-6.9-2-10.1-3.5
				c-0.4-0.2-1.1-1.1-1.4,0c-0.1,0.4,0.6,1,1,1.5c0,1.4,0.9,2.3,1.6,3.3c1,2.1,3.2,3.9,1.8,6.7c0.1,1,1.4,2.4,0.5,2.9
				c-1.4,0.7-1.3-1.5-2.2-2.1c-1.8-0.3-1.9-1.8-2.3-3.1c0.5,2,1,4,0.3,6c-0.1,0.9-0.2,1.8-0.3,2.7c-0.2,0-0.3,0-0.5,0
				c-0.5-2.1-1-4.1-1.4-6.2c-0.2,0-0.4,0-0.6,0l-0.1,6.8c-0.4,0-0.8,0-1.2,0L57.6,86.7z"/>
			<path id="Fill-13" class="st6" d="M43.7,65.8c2-1.1,3.1-0.8,3.1,1.8c-0.2,6.4-0.3,12.8-1.2,19.2c-0.1-1.8-0.2-3.6-0.4-5.5
				c-1,0.5-0.2,2-0.8,2.4c-1.4,0.7-0.6-0.8-0.9-1.2C41.4,76.9,41.7,71.4,43.7,65.8"/>
			<path id="Fill-15" class="st7" d="M43.7,65.8c-0.1,5.6-0.2,11.2-0.2,16.8c-1.6,1.5-0.2,4.1-2,5.5c-0.7-6-1.4-12-0.9-18
				c0.2-1.8-0.3-3.9,1.8-5.1C42.7,65.2,43.2,65.5,43.7,65.8"/>
			<path id="Fill-17" class="st8" d="M42.3,64.9C42,72.6,41.7,80.3,41.4,88c-0.2,0-0.4,0-0.7-0.1c0-1.8-0.1-3.7-0.1-5.6
				c-1.3-5.4-1-10.9-0.8-16.4c0-1.2,0.6-2.1,1.6-2.7c0,0,0.4,0,0.4,0C42,63.8,42.1,64.3,42.3,64.9"/>
			<path id="Fill-19" class="st9" d="M61.6,89.4c-0.6-3.1-1.3-6.2-1.9-9.2l0.8-0.4c1,2.2,2.1,4.5,3.1,6.7
				C63,87.5,62.3,88.5,61.6,89.4"/>
			<path id="Fill-21" class="st10" d="M62.2,78.9c-1.1-1-0.8-2.1-0.2-3.2c2.7,2.5,5.4,5,7.2,8.2c-0.3,0-0.7,0.1-1,0.1
				C64.4,84.4,64.6,80.1,62.2,78.9"/>
			<path id="Fill-23" class="st11" d="M62.2,78.9c2.9,0.6,4,3.5,6,5.1c-0.6,1.2-1.5,1.7-2.8,1.7C64.3,83.5,63.2,81.2,62.2,78.9"/>
			<path id="Fill-25" class="st12" d="M11.8,182.4c-2.6,0.5-2.3-1.5-2.7-3.1c2.1-5.2,0.7-10.6,1.2-15.9c0.2-2.2,0.2-2.2,2-1.4l0,0
				c-1.4,5.7-2.2,11.5-0.1,17.2C12.6,180.4,11.8,181.3,11.8,182.4"/>
			<path id="Fill-27" class="st12" d="M9,177.4c-0.6,0-1.1,0-1.7,0c0.1-4.9,0.2-9.8,0.3-14.7c0.6,0,1.1,0,1.7,0L9,177.4z"/>
			<path id="Fill-31" class="st12" d="M12.3,162c0.3,0.1,0.6,0.3,0.9,0.4c5.6,2.3,5.7,2.9,0.9,7.4C14.8,166.6,11.3,165,12.3,162
				C12.3,162,12.3,162,12.3,162"/>
			<path id="Fill-33" class="st13" d="M51.7,49.9c2.9-1.2,5.7-2.4,8.9-3.7c-0.6,2.4-3.1,2.1-4.2,3.7c2.7,1.1,5.3-3.6,7.7-0.1
				c-0.7,0.6-1.9,0.5-2.1,1.8c0,0.1,0.7,0.2,1.1,0.3c3,3.4,3,3.5-2,4.8c2,0.2,4.3-2,6.4,0.2c0.5,0.5,0.8,1.2,0.4,1.7
				c-1.2,1.6-2.8,1.8-4.6,1.1c-4.1,0.8-8.2,1.6-12.3,2.4c-0.7-1.9,1.5-1.3,1.7-2.8c-4-0.8-8-2.1-10.3-5.9c0.9-1.7,1.9-3.3,4.1-3.4
				C48.2,49.5,49.9,48.8,51.7,49.9"/>
			<path id="Fill-35" class="st14" d="M32.3,71.5c-0.2-2.2-2.3-2.3-3.6-3.4c-1.2-1-2.4-1.8-2.8-3.6c-1.1-5.7,0.3-6.8,6.5-4.9
				C36.3,63.6,34,67.6,32.3,71.5"/>
			<path id="Fill-37" class="st15" d="M26.8,69.4c1.9,0.7,3.7,1.4,5.6,2.1c-1.1,3-1.2,6.2-1.2,9.6C26.7,78.1,26.8,73.7,26.8,69.4"/>
			<path id="Fill-39" class="st16" d="M17.4,64.5c2.7,0.4,3.4,2.8,4.4,4.7c0,2.2,0,4.4-0.1,6.6c-0.2,2.9-1.4-1-1.9,0.2
				c-1.5,0.3-2-1-2.8-1.8C17.2,71,14.6,67.6,17.4,64.5"/>
			<path id="Fill-41" class="st17" d="M38.3,62c0.6,0.4,1.1,0.7,1.7,1.1c1.2,5.5,0.3,11.1,0.1,16.6c0,0.7-0.7,0.4-1.1,0.5
				C38.6,74.1,37.7,68.1,38.3,62"/>
			<path id="Fill-43" class="st18" d="M4.8,68c1.1-0.2,1.8-0.8,1.9-1.9c2.3-1.1,3.2,1.6,5.1,1.8c0.4,0.2,0.7,0.5,0.9,0.9
				c0.2,0.4,0.2,0.8,0.1,1.3c-0.4,1.2-1.4,1.6-2.4,1.8c-1.3,0-2.5-0.7-3.8,0l0,0C6,70.7,3.2,70.4,4.8,68"/>
			<path id="Fill-45" class="st19" d="M39,80.2c2.2-5.6,0.6-11.4,1-17c0.5,0,0.9,0.1,1.4,0.1c-0.3,6.4-0.5,12.8-0.8,19.1
				C39.5,82,38.9,81.4,39,80.2"/>
			<path id="Fill-47" class="st18" d="M18.2,74.1c0.6,0.6,1.1,1.3,1.7,1.9c-2.8,1.3-4.5-0.8-6.6-2.1c-0.6-1.2,0.1-2.2,0.5-3.2
				c0.5-1.2,1.1-2.1,2.5-1.8C17.8,70.4,16.5,72.8,18.2,74.1"/>
			<path id="Fill-49" class="st20" d="M22.5,69.2c0.1-2.6,1.4-1.4,2.5-0.7c-0.1,2.7-0.1,5.4-0.2,8c-0.3,0-0.5,0.1-0.8,0.1L22.5,69.2
				z"/>
			<path id="Fill-51" class="st21" d="M35.6,61.2c0.6,0.2,1.1,0.5,1.7,0.7c-0.1,3.5-0.2,7-0.2,10.4C36,68.6,35.4,64.9,35.6,61.2"/>
			<path id="Fill-53" class="st22" d="M15.2,72.3c-0.7,0.6-1.3,1.1-2,1.7c-0.9-0.7-1.9-1.4-2.8-2c0.2-1.1,0.8-1.7,1.9-1.8
				C14.1,69.8,14.6,71.2,15.2,72.3"/>
			<path id="Fill-55" class="st23" d="M22.1,57.9c-3.3,0.1-0.5,2.8-1.6,3.9c-0.3,0-0.8,0.1-0.8,0.1c-1-4.8-7.6-2.4-8.6-7
				c-0.4-0.1-0.8-0.3-1.1-0.7c-0.8-1.4-2.8-2.3-1.9-4.5c5.2,0.8,9.3,4.4,14.2,6C22.8,56.5,22.7,57.2,22.1,57.9"/>
			<path id="Fill-57" class="st24" d="M8.3,40.2c4.2-0.4,7.5,2.5,11.4,3c-0.1,6.5-0.2,6.6-5.7,3.6C11.4,45.4,7.1,45.2,8.3,40.2"/>
			<path id="Fill-59" class="st25" d="M12.2,69.1c1.1-2.9,0.6-5-2.7-6.1c-1.4-0.5-2.6-1.7-3.8-2.6c0.2-1.7,1.3-1.7,2.3-1
				c2.7,1.8,6,2.6,8.2,5c0.6,1.7,1.2,3.4-0.4,4.9c-0.2,1-0.4,2-0.7,3c-1-0.7-1.9-1.5-2.9-2.2C12.3,69.8,12.3,69.4,12.2,69.1"/>
			<path id="Fill-61" class="st26" d="M22.1,57.9c0.1-0.7,0.1-1.4,0.2-2.1c5.1,1.6,1.6,5.7,2.9,9.4C20.9,63.3,22.5,60.2,22.1,57.9"
				/>
			<path id="Fill-63" class="st27" d="M15.9,69.2c0.1-1.6,0.3-3.2,0.4-4.9c0.4,0,0.8,0.1,1.1,0.1c0.2,3.2,0.5,6.4,0.7,9.6
				C15.9,73.2,16.3,71,15.9,69.2"/>
			<path id="Fill-65" class="st28" d="M7,52.4c1.1,0.9,2.4,1.3,3.8,1.2c0.1,0.4,0.2,0.8,0.3,1.3C8.4,55.4,6.9,54.4,7,52.4"/>
			<path id="Fill-67" class="st29" d="M5.8,65.1c3-0.4,5.6-0.2,5.6,3.9c-2.1,0-3.1-2.1-4.7-2.9C6.5,65.8,6.1,65.4,5.8,65.1"/>
			<path id="Fill-69" class="st30" d="M39.7,34.7c-3.7,0.7-7-0.6-10.2-2.3c0-1.9,0.8-2.8,2.8-2.5c2.7,1.7,4.2-2,6.7-1.6
				c0.9,1.5,2.5,1.9,4.3,2.2C41.8,32.1,40.7,33.4,39.7,34.7"/>
			<path id="Fill-71" class="st31" d="M16.1,19.8c-2.4,0.4-4.6-0.3-7-1.5c2.8-4.1,6.7-1.5,9.9-1.9C18.1,17.5,17.1,18.6,16.1,19.8"/>
			<path id="Fill-73" class="st32" d="M25.8,22.4c-3-0.4-6.1-0.1-8.5-2.4c2.4-1.6,4.8-1.8,7.5-0.6C26.6,20.1,26.1,21.1,25.8,22.4"/>
			<path id="Fill-75" class="st33" d="M46.6,30.4c1.1,0.1,1.8,0.8,1.7,1.9c-0.1,2-1.5,1.8-2.8,1.5c-0.6-0.1-1.9,0.3-1.5-1.1
				C44.3,31.4,45,30.3,46.6,30.4"/>
			<path id="Fill-77" class="st34" d="M17.8,27.8c1.1-0.7,2.3-1.5,3.4-2.2c3.8-0.4,7.3,1.7,11.1,1.8c3,0.1,0.7,1.6-0.1,2.5
				c-0.9,0.8-1.8,1.7-2.8,2.5C25.4,31.1,20.9,31.3,17.8,27.8"/>
			<path id="Fill-79" class="st35" d="M8.8,16.1c-0.5,0.9-1.2,1.5-2.2,1.4c-0.3,0-0.8-0.9-0.8-1.4c0-1.4,1.2-1.1,2-1
				C8.4,15,9,15.2,8.8,16.1"/>
			<path id="Fill-81" class="st36" d="M331.1,39.8c-4.4-8.5-4.8-17.4-2.9-26.6c0.5-0.2,0.9-0.1,1.2,0.4c0.6,1.2,0.7,2.4,0.6,3.7
				c-0.3,6.5-0.5,13,2.3,19.1c0.4,0.9,0.4,1.9,0,2.9C332,39.9,331.6,40.1,331.1,39.8"/>
			<path id="Fill-83" class="st37" d="M205.8,37.1c0.4,1,0.3,2,0.1,3c0.3,1.1,0.4,2.2-0.1,3.3c0.1,0.8,0.2,1.5-0.3,2.2
				c-0.6,0.5-1.1,0.4-1.7,0c-3.2-5-3.8-10.8-4.6-16.5c-0.3-2.2-1.1-4.4-0.7-6.7c0.4-0.2,0.9-0.2,1.3,0.1c0.7,0.6,1.1,1.3,1.2,2.2
				c0.3,6.3,2.4,12.2,3.4,18.4c0,0.4-0.1,0.8-0.5,1c0.4-0.2,0.6-0.5,0.6-1c-0.2-2-1-3.9,0.2-5.8C205,36.9,205.3,36.8,205.8,37.1"/>
			<path id="Fill-85" class="st38" d="M331.1,39.8c0.3,0,0.6,0,0.9,0c3.1,1.4,2.3,4.6,3.3,6.8c0.1-3.1-2.3-6-1.7-9.5
				c0.4-0.2,0.8-0.2,1.1,0.1c2.2,3.2,3.2,6.8,2.9,10.7c-0.1,1-0.2,2-1.4,2.2c-1,0.1-1.6-0.6-2-1.3C332.5,46.1,331.6,43,331.1,39.8"
				/>
			<path id="Fill-87" class="st39" d="M204.1,5.3c1.3,4.3,0.2,8.7,0.4,13c-0.5,0.2-0.9,0.2-1.4-0.2c-2.3-3.7-1.3-7.6-0.7-11.5
				C202.7,5.9,203.3,5.5,204.1,5.3"/>
			<path id="Fill-89" class="st40" d="M333.3,16.8c0.2,0,0.5,0,0.7,0c0.6,0.9,0.4,1.8,0.2,2.7c-0.1,5.9-0.8,11.9,0.5,17.8
				c-0.4,0-0.7,0-1.1,0.1c-0.4-0.2-0.9-0.3-1-0.7C331.1,30,330.6,23.3,333.3,16.8"/>
			<path id="Fill-91" class="st41" d="M203.7,18.3c0.3,0,0.5,0,0.8,0c0,4.3,0.9,8.5,0.6,12.8c-0.5,0.2-1,0.1-1.3-0.4
				C201.9,26.6,201.5,22.4,203.7,18.3"/>
			<path id="Fill-93" class="st42" d="M199.3,22.4l-0.3,0l-0.3,0c-0.3-2.8-1-5.7-0.8-8.6c0.5-0.3,0.9-0.2,1.3,0.3
				C200.5,16.9,201.4,19.6,199.3,22.4"/>
			<path id="Fill-95" class="st43" d="M204.3,31.1c0.3,0,0.5,0,0.8,0c0,1.1,0.1,2.1,0.1,3.2c0.3,1.1,0.5,2.1-1.2,1.9
				C202.9,34.4,202.8,32.7,204.3,31.1"/>
			<path id="Fill-97" class="st44" d="M204.4,36.2c0.3-0.6,0.6-1.2,0.8-1.9c0.9,0.8,0.7,1.8,0.6,2.8c-0.4,0-0.7,0-1.1,0
				C204.1,37,203.8,36.7,204.4,36.2"/>
			<path id="Fill-99" class="st45" d="M334.2,19.5c-0.1-0.9-0.1-1.8-0.2-2.7c0.3-0.3,0.5-0.5,0.8-0.8
				C334.9,17.3,335.1,18.5,334.2,19.5"/>
			<path id="Fill-101" class="st44" d="M205.8,43.4c0-1.1,0.1-2.2,0.1-3.3C206.7,41.2,206.4,42.3,205.8,43.4"/>
			<path id="Fill-103" class="st46" d="M197.8,12.1c0.2,0,0.5,0,0.7,0c0.6,0.5,0.6,1.1,0.1,1.7l-0.8,0
				C197.8,13.3,197.8,12.7,197.8,12.1"/>
			<path id="Fill-105" class="st44" d="M203.8,45.7c0.6,0,1.1,0,1.7,0C205,46.8,204.4,46.6,203.8,45.7"/>
			<path id="Fill-107" class="st47" d="M354.4,213c-3.6,0-3.6,0-4.1-3.1c-0.2-1.4-0.4-2.9-1-4.1c-0.9-1.8-0.5-2.5,1.4-3.4
				c5.4-2.8,11.5-2.5,17.1-4.1c0.7-0.2,1.4,0,2.1,0c1.1,0.1,1.7,0.7,1.2,1.7c-1.8,3.7-3.7,7.3-5.7,11c-0.2,0.4-0.9,0.6-1.5,0.7
				C360.7,212,357.4,213.2,354.4,213"/>
			<path id="Fill-109" class="st48" d="M365.6,270.4c-0.2-6-0.5-12-0.8-18c-0.1-1.6,0.2-2.8,1.9-3.3c0,5.6-0.1,11.1-0.1,16.7
				C366.3,267.4,367.9,269.3,365.6,270.4"/>
			<path id="Fill-111" class="st49" d="M368.8,236.4c0.5-2.9-1.1-3.7-3.7-3.6c-0.6,0-1.2-0.5-1-1.1c0.1-0.6,0.9-0.8,1.4-0.6
				c1.3,0.4,2.5,1.4,4,0.9C369.6,233.6,370,235.1,368.8,236.4"/>
			<path id="Fill-113" class="st48" d="M365.6,270.4c1.3-1.3,0.4-3.1,1-4.6c0.9,2.3,0.5,4.8,0.7,7.2c0.2,0.9-0.2,1.1-1,0.9
				c-0.3-0.6-0.5-1.2-0.8-1.7C365.5,271.6,365.5,271,365.6,270.4"/>
			<path id="Fill-115" class="st50" d="M358.1,249.1c1.8-0.4,3.2,0.5,4.9,1.1c-1.9,1.5-4.2-0.8-5.6,1.3
				C355.6,250.1,357.7,249.9,358.1,249.1"/>
			<path id="Fill-117" class="st51" d="M369.7,229.6c-1-0.6-2.3-0.8-3.2-1.9c1.2-1.3,2.1,0,3.1,0.3c0.3,0.1,0.4,0.3,0.3,0.5
				c-0.1,0.2-0.2,0.3-0.2,0.3C369.7,229,369.7,229.3,369.7,229.6"/>
			<path id="Fill-119" class="st48" d="M366.2,273.9c0.3-0.3,0.6-0.6,1-0.9c0.1,0.2,0.3,0.4,0.4,0.7c0.2,0.6,0.5,1.5-0.3,1.6
				C366.7,275.5,366.2,274.7,366.2,273.9"/>
			<path id="Fill-121" class="st51" d="M369.9,230.5c0-0.3-0.1-0.6-0.1-0.9C370.4,229.8,370.4,230.1,369.9,230.5"/>
			<path id="Fill-123" class="st44" d="M204.1,43.7c0.2,0.1,0.5,0.1,0.7,0c-0.1,0.2-0.2,0.4-0.3,0.6
				C204.3,44.1,204.2,43.9,204.1,43.7"/>
			<g id="Group-127" transform="translate(380.147029, 209.076482)">
				<g id="Clip-126">
				</g>
				<defs>
					<filter id="Adobe_OpacityMaskFilter" filterUnits="userSpaceOnUse" x="0.3" y="0" width="0.7" height="1.1">
						<feColorMatrix  type="matrix" values="1 0 0 0 0  0 1 0 0 0  0 0 1 0 0  0 0 0 1 0"/>
					</filter>
				</defs>
				
					<mask maskUnits="userSpaceOnUse" x="0.3" y="0" width="0.7" height="1.1" id="mask-2_00000101070212261968348890000011137369840110108072_">
					<g class="st52">
						<polygon id="path-1_00000174583383070538036760000017277028627651027584_" class="st53" points="0.1,0 0.9,0 0.9,1.1 0.1,1.1 
													"/>
					</g>
				</mask>
				<path id="Fill-125" class="st54" d="M0.3,1.1C0.4,0.8,0.5,0.4,0.6,0C1.3,0.6,0.6,0.8,0.3,1.1L0.3,1.1z"/>
			</g>
			<path id="Fill-128" class="st55" d="M136.2,227c-0.5-0.6-0.5,0.5-0.4-0.3c0-0.1,0.1-0.3,0.1-0.3c0.5,0.1,0.5,0.3,0.2,0.7
				C136.1,227.1,136.2,227,136.2,227"/>
			<path id="Fill-130" class="st55" d="M161.7,206l0.3-0.2C162.1,205.7,161.6,205.9,161.7,206C161.6,205.9,161.7,206,161.7,206"/>
			<path id="Fill-132" class="st56" d="M170,13c8.8,0,17.7-0.2,26.5-0.4c4.2-0.1,8.3,0,12.5-0.1c8.6-0.1,17.2-0.5,25.8-0.8
				c4.2-0.2,8.4-0.2,12.7-0.6c1.5-0.2,3.1,0.2,4.6,0.3c0.5,0.3,50,0,58.6,0.4c6.6,0.3,13.2-0.1,19.9-0.2c8.4-0.1,16.9-0.7,25.3-1.3
				c4.7-0.3,9.3-0.7,14-0.6c1.5,0,2.3,0.5,2.2,2.1c-0.5,6.9,0.4,13.9,0,20.8c-0.3,5.2-1,10.4-1.7,15.5c-0.7,0.6-1.5,0.6-2.4,0.5
				c-12-1-24-0.5-36-0.1c-1.8,0.1-3.7,0.3-5.5,0.9c-0.7,0.2-1.6,0.5-1.6,1.4c-0.1,0.9,0.8,1.2,1.5,1.5c1.1,0.5,2.3,0.8,3.6,1
				c11.2,1.7,22.4,1.8,33.7,0.5c1.5-0.2,2.9-0.2,4.4-0.2c0.8,0,1.8,0,1.4,1.3c0,0.1,0,0.2,0,0.2c1,5-1.9,7.9-5.8,9.9
				c-3.7,1.9-7.3,4.2-11.2,5.7c-7.3-1.8-14.7-3.4-22.2-4.2c-7.1-0.8-14.2-1.2-21.4-1.6c4.2,0.4,8.3,1,12.5,1.5
				c6.2,0.7,12.4,1.5,18.5,2.5c2.7,0.4,5.6,0.1,8.2,1c1.1,0.3,2.3,0.5,3,1.6c-1.4,1.1-3,2.1-4.7,2.7c-2.8,0.5-5.5-0.3-8.3-0.5
				c-13.2-1.1-26.4-2.9-39.6-2.5c-6.1,0.2-12.3,0.2-18.4,0.8c-3.4,0.3-6.9,0.2-10.4,0.3c-4.8,0.2-9.5,0.6-14.2,1.1
				c4.8-0.5,9.6-0.8,14.4-1.1c6.1-0.3,12.1-0.5,18.2-0.8c7.1-0.3,14.4-1.4,21.4,0c9.6,1.9,19.3,1.3,28.9,2.8c1.7,0.3,3.8,0,4.7,2.1
				c-2.1,1.2-4.2,2.2-6.1,3.5c-3,2.1-6.3,2.3-9.7,2.6c-2.1,0.8-4.3,0.2-6.4,0.1c-13.6-0.4-27.1-0.3-40.6,1.4c-8,1-16.1,1.6-24.2,2.3
				c-1.5,0.1-2.9,0.3-4.3,0.9c-0.6,0.3-1.5,0.6-1.3,1.4c0.2,0.7,1,0.5,1.6,0.4c2.1-0.1,4.1-0.4,6.2-0.6c12.5-1.5,25.1-3,37.7-3.9
				c2.8-0.2,5.7,0.1,8.6,0.1c3.3,0,6.6,0.2,9.9-0.2c3.3-0.4,6.6,0.6,9.9,0.3c1.8-0.2,3.5-0.3,5-1.2c4.1-0.8,8.3-1.4,12.6-1.1
				c6.6,0.6,13.1,1.3,19.6,2.5c1.7,0.3,4.2,0.1,5,1.3c0.8,1.3,0.3,3.6,0.2,5.4c-0.6,9.4-1.5,18.9-1.5,28.3c-0.2,1.9-1.5,2-3,2
				c-6.2,0-12.3-0.7-18.4-1c-7.7-0.4-15.3-1.2-23-1.3c-5.9-0.1-11.9-0.7-17.8-0.1c-5.1,0.5-10.1,2-13.1,3.2
				c7.9-3.1,17.9-3.5,28.1-2.4c7.8,0.8,15.6,1,23.5,0.9c6.4-0.1,12.9,0.4,19.3,1.4c1.4,0.2,2.9,0.7,3.8,1.9
				c-0.1,9.7-1.2,19.4-1.1,29.1c-2.8,1.2-5.5,0.2-8.2-0.3c-4.7-0.9-9.3-2-14-3.1c-2.5-0.6-5-0.7-7.5-1.2c-0.9-0.1-1.8-0.1-2.8,0.3
				c0.6,1,1.6,1.1,2.4,1.2c6.8,0.5,13.2,2.9,19.9,4.1c3.1,0.5,6.3,0.9,9.4-0.2c0.3-0.1,0.6,0,0.9,0.1c0.2,3.9-0.5,7.8,0.1,11.7
				c0.1,0.9-0.4,1.8-1.4,2.2c-3.1,1.3-6.2,2.6-9.3,3.9c-4.1,0.1-7.8-1.6-11.8-1.9c-11.8-0.9-23.6-1.9-35.5-0.7
				c-12.9,1.4-26,2.1-38.9,3.3c-9.2,0.9-18.3,0.4-27.5,0.3c8.9,2,17.8,0.8,26.8,0.6c13-0.2,25.9-2.5,38.9-3.2
				c11.6-0.7,23.3-0.5,34.9,0.5c2.5,0.2,4.9,0.5,7.3,0.9c1.1,0.2,2.5,0,3,1.5c-8.2,2.3-16.3,4.6-24.4,7.2c-2.6,0.8-5.3,1.4-7.7,2.7
				c-2,1.5-4.3,2-6.6,2.6c-0.9,0.2-2,0.1-2.6,1.3c1.2,0.6,2.5,0.5,3.6,0.4c5.6-0.5,11.1-1.6,16.3-3.9c4.5-1.9,9.1-3.3,13.8-4.4
				c4.4-1.1,8.8-1.5,13.2,0.1c0.5,0.2,1.3,0.7,1.6-0.2c0.2-0.7-0.5-1.1-1-1.4c-0.8-0.4-1.8-0.5-2.7-0.5c-1.8-0.1-3.5,0-5.3-0.2
				c-0.7-0.1-1.8,0.2-1.9-1.1c4.7-1,9.4-2.1,14.1-2.9c2.9-0.5,3-0.1,3,2.9c0.1,6.4-0.1,12.9,0.1,19.3c0.2,6.2,0.7,12.4,0.9,18.5
				c-0.2,1.2-1.2,1-2,1.1c-3.4,0.4-6.9,0.4-10.4,0.7c-9.5,0.7-18.9,0.6-28.4,0.4c-4.8-0.1-9.7,0.5-14.6,0c-4.7-0.5-9.4-0.6-14.1-0.6
				c-13.6-0.2-27.3,0.1-40.9,0.2c-10.4,0-20.8-0.5-31.2-0.3c-6.6,0.1-13.2,0.8-19.5,3.2c-1.8,0.7-3.6,1.5-4.5,3.4
				c-0.4,0.9-1.3,1-2.2,1.1c-1.1,0.1-2.2,0.4-3.2,0.2c-6.6-0.8-12.7,2.1-19.2,2.3c-1.7,0.1-3.5,0.7-5.1,1.6c0.7,0.6,1.4,0.3,2,0.2
				c10.1-1.6,20.2-2.6,30.4-2.9c8.7-0.3,17.4,0.3,26.1,0.6c16.9,0.6,33.8,0.8,50.7,1.2c7.1,0.2,14.1,1.4,21.2,1.9
				c12.1,0.9,24,3.4,36,4.5c3.6,0.3,7.2,1,10.8,1.4c3.1,0.3,6.1,0.5,9-1.1c-1.4-0.6-3-0.4-4.4-0.6c-4.4-0.6-8.6-2-12.8-3
				c-10.6-2.4-21.3-3.8-32.2-4.5c-6.6-0.4-13.3-0.8-19.9-0.9c-9.8-0.1-19.5-1.8-29.3-1.5c-6.5,0.2-13.1-0.2-19.7-0.4
				c-8.4-0.2-16.8,0-25.2,0.3c-1.4,0.1-3.5,0.6-3.8-1c-0.2-1.4,2-1.5,3.3-1.9c3.9-1.2,7.9-1.7,11.9-1.8c4.3,0,8.6-0.4,12.9-0.4
				c12.6-0.2,25.3,0.5,37.9,0.3c6.6-0.1,13.1,0.3,19.6,0c11.2-0.5,22.4,0.5,33.5,0.2c7.8-0.2,15.6,0.2,23.3-1.1
				c4.2-0.7,8.5,0.2,12.6,1c0.6,0.1,1.2,0.3,1.6,0.8c0.5,7.5,0.4,15,0.5,22.6c0.1,9.6,0.3,19.2,0.8,28.8c0.2,5,0.7,9.9,0.5,14.9
				c-1,1-2.4,1.1-3.7,1.2c-5.2,0.6-10.1,2.5-14.9,4.5c1.1,0.2,2-0.1,3-0.4c5-1.4,10.1-1.1,15.1-1.4c0.3,0,0.6,0.1,0.8,0.3
				c0.5,5.4,1,10.8,1.5,16.2c-2.5,1-5.1,1.5-7.8,1.4c-1.5,0-2.9-0.1-4.4,0.1c3.4,0.5,6.8,0.4,10.2,0.4c0.8,0,1.7-0.3,2.4,0.4
				c0.6,6.1,1.2,12.2,1.7,18.3c0.3,3.8,0.4,7.7,0.6,11.5c0.1,0.9-0.5,0.8-1,0.8c-2.6,0.2-5.2,0.6-7.8,0.7c-3.8,0.2-7.5,0.4-11.3,0.2
				c-8.2-0.4-16.3-0.2-24.5,0.1c-13.6,0.4-27.1,0.2-40.6-0.1c-11.9-0.2-23.7-0.2-35.6-0.2c-8.7,0-17.4-0.5-26.1-0.2
				c-9.3,0.3-18.7,0.2-28,1.1c-6,0.6-12.1,0.5-18.2,0.6c-9.1,0.2-18.1,0-27.2,0.5c-4,0.2-8,0-12,0.1c-8.7,0.1-17.4,0-26,0.5
				c-4.1,0.2-8.1,0.1-12.2,0.1c-5.3,0-10.6,0.5-15.9,0.1c0.4-1.8,2.1-2.5,3-3.9c0.5-0.7,1.4-1.2,1.3-2.6c-5.8,2-10.9,5.5-16.9,6.6
				c-3.5,0.9-7.2,0.4-10.8,0.6c-16.9,0.8-33.9-0.4-50.8-0.5c-1.8,0-2.9-0.1-2.3-2.4c0.4-1.5,0.1-3.1,0.2-4.6c3.2,2.6,7,1.8,10.6,1.7
				c6.4-0.2,12.8-0.6,19.1-0.4c4.3,0.1,8.4-0.8,12.6-1.6c1-0.2,2.2-0.4,2.3-1.6c0.1-1.2-1.2-1.5-2.1-1.8c-1.1-0.4-2.2-0.7-3.4-0.8
				c-11-0.9-22-1.5-32.9,0.4c-1.9,0.3-3.8,0.7-5.7-0.1c1.1-8.8-0.3-17.6,0-26.4c0.2-6.5-0.5-13.1-1.2-19.7c-0.5-4.5-0.5-9-0.7-13.5
				c-0.4-6.9-0.9-13.7-1.3-20.6c-0.2-2.8,0-5.7-0.2-8.5c-0.5-6.1-0.4-12.3-0.6-18.4c-0.2-4.6-0.4-9.2-0.6-13.8
				c-0.2-1.1,0.7-1.2,1.4-1.4c4.9-1.3,9.3-3.5,13.8-5.8c2.6-1.3,5.6-1.7,7.8-2.4c-4.1,0.7-8.6,2.3-12.7,4.7
				c-2.6,1.5-5.4,2.1-8.2,3.1c-1.8,0.7-2.4,0.2-2.6-1.6c-0.1-2.7,0.4-5.3-0.2-8c-0.3-1.4,0.9-1.6,2-1.6c6-0.3,11.9-0.8,17.9-0.6
				c4.5,0.2,9-0.9,13.5-1.1c3.3,0,6.5,0,9.8,0c3.8,0,7.5,0.2,11.3,0.7c11.6,1.6,23.3,2.4,34.9,4c6.6,0.9,13,2.4,19.6,3.4
				c13.4,2,26.8,4,40.3,5.4c6.1,0.6,12.1,1.6,18.1,2.4c0.5,0.1,1.1,0.2,1.6,0.2c5.1,0.1,10.2,0.4,15.2,0.8c4.7,0.4,9.4-0.2,14.1-0.6
				c6.8-0.6,13.6-0.3,20.3-1.4c3.4-0.5,6.8-1.4,10.1-2.5c1.7-0.6,3.1-1.7,4-3c-0.1-0.4-0.2-0.6-0.4-0.5c-4.3,1.4-8.9,1.4-13.2,3.2
				c-3.8,1.5-7.9,1.7-11.9,1.6c-10.4-0.3-20.8,0.4-31.2-0.1c-9.2-0.5-18.5-0.6-27.6-2.2c-15.7-2.7-31.7-3.8-47.4-6.6
				c-10.8-2-21.9-2.7-32.8-3.7c-5.1-0.5-10.1-1.4-15.1-2c-0.9-0.1-1.8-0.3-2.6-0.9c-8.5-0.2-16.9-1.6-25.3-2.3
				c-4.5-0.4-8.9-1.1-13.5-1.4c-3.6-0.2-7.1-0.8-10.7-1.1c-1.2-0.1-1.3-0.7-1.3-1.7c0.1-1.9,0.1-3.8,0.1-5.8
				c1.2-0.9,2.5-0.7,3.8-0.4c5.1,1.2,10.2,1,15.4,0c9.4-1.7,18.8-2.1,28.3-2.1c7.1,0,14.2-0.4,21.3-0.1c7.8,0.4,15.6,1.3,23.5,1.8
				c5.3,0.3,10.5,0.8,15.8,1.2c-1.8-0.9-3.8-1-5.7-1.4c-9.2-1.9-18.6-2.3-28-3.3c-4.8-0.5-9.7-0.5-14.5-0.7
				C50,176.4,37,177.6,24,179.7c-5.9,0.9-11.8,1.2-17.7,1.1c-1,0-2,0-2.8-0.8c-0.8-2.6-0.2-5.2-0.3-7.9c1.9-0.5,3.5,0.5,5.1,0.9
				c2.9,0.8,5.7,1.2,8.7,0.3c1.2-0.4,2.5-0.2,3.7-0.2c12.1,0.1,24-1,35.9-2.9c14.4-2.3,28.8-4.6,43.3-5.9c8.8-0.8,17.7-0.9,26.6-1
				c3.9,0,7.7-0.4,11.6-0.2c18.9,1.1,37.9,1.4,56.6,5.4c1.7,0.4,3.5,0.7,5.2,1.2c10.1,3.1,20.5,4.1,31,4.8c0.2,0,0.5,0.1,0.6-0.4
				c-3.8-1-7.6-1.8-11.4-2.7c-8.8-2.2-17.5-4.7-26.4-5.8c-6.9-0.9-13.8-1.5-20.7-2.2c-12-1.2-24-1.4-36-1.6
				c-7.4-0.1-14.8,0.6-22.2,0.7c-6.2,0.1-12.5,0.4-18.7,1c-13.7,1.4-27.3,3.3-40.8,5.6c-10.5,1.7-21.1,3-31.7,3.1
				c-5.8,0.1-11.5-1.2-17.3-1.4c-1.1,0-2.1-0.3-3-1.1c0-0.2,0-0.3,0-0.5c-0.7-2.2,0.6-3,2.3-3.4c3.5-0.8,7.1-1.4,10.7-1.8
				c4.7-0.5,9.3-1.3,13.9-2.1c6.1-1,12.3-0.9,18.4-1.2c2.6-0.1,5.2-0.5,7.8-0.4c0.7,0,1.5,0,1.6-0.9c0.1-0.7-0.6-1-1.2-1.3
				c-5.4-2.3-10.7-4.9-16.6-5.5c-2.3-0.2-4.5,0.3-6.7,0.3c-4.8,0-9.5-0.1-14.3-0.3c-0.7,0-1.5-0.2-2.6,0.3c2.3,0.3,4.2,0.6,6.2,0.6
				c7.1-0.2,14.2,0.3,21.1,1.9c0.5,0.1,1.1,0.3,1.5,0.6c0.7,0.5,0.8,1.1,0,1.6c-0.4,0.2-0.8,0.4-1.3,0.5c-3.1,0.4-6,1.4-9.1,1.8
				c-9.7,1.1-19.2,3.2-28.7,5.1c-1.2,0.2-2.4,0.6-3.5-0.3c0-8.4-0.3-16.7-0.5-25.1c-0.1-4.3-0.1-8.6-0.3-12.9
				c-0.2-3.6,0.3-7.3-0.2-10.9c-0.5-4.2-0.2-8.4-0.7-12.6c-0.2-1.6-0.1-3.2-0.1-4.8c2.2-3.1,5.3-4.6,8.7-5.6
				c3.8-1.1,7.7-1.6,11.5-2.4c2.6-0.6,4.9-2.1,7.5-2.6c-4.2,0.8-8.4,1-12.6,1.2c-4.5,0.2-8.9,0.5-13,2.7c-1.2,0.6-2,0.1-1.8-1.4
				c0.1-1-0.2-2,0.3-2.9C1.8,84,1.9,80.6,2,77.2c0.8-4.2,0.8-4.3,5.2-4.8c4.6-0.5,9.1-1.6,13.7-1.1c-5.1-0.6-10.2-1-15.3,0.4
				c-3.4,0.9-3.4,0.9-3.2-2.6c0-0.4,0-0.8,0.2-1.1C2.8,61.4,3,55,3,48.5c0-1.6,0.6-2.3,2-2.8c3-0.9,6-1.5,9-1.6
				c6.4-0.2,12.6-1.1,18.9-2.2c3.2-0.5,6.4-0.8,9.6-0.5c1.2,0.1,2.4,0,3.6-0.8c-0.3-0.2-0.4-0.5-0.6-0.5c-6.2,0.2-12.4-0.7-18.6-1.4
				c-6.4-0.7-12.7-1.7-19-2.9c-0.2,0-0.4-0.2-0.7-0.2c-3.4-0.6-3.3-0.8-2.7-4.4c0.8-4.7,2.2-9.4,1.9-14.3c-0.1-2.6,0.4-5.2,0.6-7.8
				c0.1-1,0.5-1.3,1.4-1.3c4.9,0.1,9.8,0.3,14.7,1.1c3.6,0.6,7.3,0.5,11,0.8c4.5,0.4,9.1,0.5,13.6,0.3c8.6-0.4,17.1,0.4,25.6,0
				c4.9-0.2,9.7-0.3,14.5,0.1c7.9,0.6,15.8,0.7,23.7,1.4L170,13z"/>
			<path id="Fill-134" class="st57" d="M372.3,337.6c-0.5-7-0.9-13.4-1.5-19.9c-0.4-4.9-1.2-9.9-1.7-14.8c-0.5-5.2-1-10.4-1.3-15.6
				c-0.4-8.6-0.7-17.2-1.3-25.7c-0.2-2.7-0.2-5.4-0.2-8c0-6.5-0.6-13.1-0.1-19.6c0.3-4.1,0.1-8.3-0.1-12.4
				c-0.5-11.4-1.2-22.8-1.3-34.2c0-4.1,0-8.1-0.1-12.2c0-0.8-0.1-1.6,0.8-2.3c3-2.3,5.8-4.7,8.9-7.2c0.4,1,0.2,2.1,0.1,3.1
				c-0.2,4.2-0.1,8.4-0.6,12.7c-0.4,3.5,0.2,7,0.4,10.5c0.2,3.1,0.1,6.3,0.3,9.4c0.7,10,1.2,20,2.1,30c0.8,8.7,2,17.3,2,26.1
				c0,9.5,0.5,19,0.8,28.5c0.3,10.1-0.4,20.2-0.3,30.3c0,2.9,0.3,5.8,0.6,8.7c0.1,0.7,0,1.4-0.4,2
				C377.2,330.4,374.9,333.8,372.3,337.6"/>
			<path id="Fill-136" class="st58" d="M364.6,219.4c-3.4-0.4-6.8-0.9-10.3-1.1c-4.5-0.3-8.8,0.8-13.3,1c-0.4,0-0.8,0.1-1.2,0.1
				c-7.8-0.3-15.5,0.2-23.3,0c-12.9-0.3-25.7-0.7-38.6-0.3c-10.6,0.3-21.3-0.6-31.9-0.3c-7.6,0.2-15.2-0.1-22.8,0.4
				c-5.2,0.3-10.4,0.9-15.3,3.3c1.3,0,2.6,0.1,3.9,0.1c7.7-0.5,15.4-0.6,23-0.4c10.9,0.2,21.7,0.6,32.6,0.7c4.4,0,8.6,1.3,13,1.3
				c6.5,0,13,0.1,19.5,0.4c8.5,0.5,17,1.4,25.5,2.6c7.5,1,14.6,3.3,22,4.8c2.5,0.5,5,0.9,7.5,0.8c0.7,0,1.7-0.2,1.9,0.8
				c0.1,0.8-0.9,0.7-1.3,1c-3.2,1.9-6.7,1.4-10.1,1.1c-5.8-0.4-11.5-1.9-17.3-2.2c-3.9-0.2-7.7-1.2-11.6-1.7
				c-3.9-0.5-7.7-1-11.6-1.5c-7.3-0.8-14.6-1.5-21.9-2.3c-0.8-0.1-1.5-0.1-2.3-0.1c-18-0.4-36.1-0.6-54.1-1.3
				c-6.4-0.2-12.8-0.9-19.1-0.7c-9.5,0.2-19,0.6-28.4,2c-3.3,0.5-6.7,1-10,1.5c-0.9,0.1-1.7,0.1-1.9-0.7c-0.3-0.9,0.7-1.1,1.3-1.3
				c2.5-0.9,5-2,7.8-1.7c2.9,0.4,5.3-1.3,8-1.7c4-0.6,8,0,11.9-0.6c0.9-0.1,1.8,0.2,1.8-1.3c0-0.8,0.8-1.2,1.5-1.6
				c4.2-2.6,8.9-3.4,13.6-4.1c7.7-1.2,15.4-0.6,23-0.4c11.4,0.4,22.8,0.1,34.2,0.1c11.1,0,22.3-0.4,33.4,0c3.8,0.1,7.5,0.9,11.3,0.7
				c8.2-0.4,16.5,0.2,24.7,0c7.9-0.1,15.8-0.8,23.6-1.3c0.3,0,0.5-0.3,0.8-0.4C365.2,216.2,364.5,217.8,364.6,219.4"/>
			<path id="Fill-138" class="st57" d="M377,81.1c1.9,1.7,0.3,3.4,0.3,5.1c-0.1,6.9,0.1,13.9-0.5,20.8c-1.5,16.1-1.4,32.3-1.9,48.4
				c0,0.7,0,1.4-0.6,1.9c-3.1,3.1-6.2,6.1-9.3,9.2l-0.6-0.3l0-2.2c0.2-9.8,0.2-19.6,0.7-29.4c0.6-10.5,1.2-21,1.6-31.6
				c0.2-5.3,0.8-10.5,1-15.8c0-0.9,0.4-1.3,1-1.6C371.7,84.4,374.3,82.6,377,81.1"/>
			<path id="Fill-140" class="st58" d="M3.2,169.8c7.3,0.6,14.5,1.4,21.8,1.8c5,0.3,10.1-0.9,15.1-1.2c8.3-0.5,16.4-2.3,24.5-3.4
				c7.5-1,15-2.2,22.5-3.1c6.1-0.7,12.2-1.4,18.3-1.6c8.2-0.3,16.4-0.5,24.6-0.9c10.1-0.5,20.2,0,30.2,0.4
				c8.9,0.3,17.9,1.5,26.8,2.4c12.2,1.2,23.9,4.5,35.7,7.3c2.9,0.7,5.8,1.3,8.7,2c0.7,0.2,1.7,0.3,1.6,1.3c-0.2,1.1-1.1,1.1-2,0.8
				c-2.9-0.8-5.9-0.5-8.9-0.8c-8.1-0.8-16-2.4-23.9-4.5c-6.8-1.8-13.8-2.6-20.8-3.6c-11.1-1.6-22.3-1.8-33.6-2.2
				c-3.6-0.1-7.2-0.6-10.8-0.6c-9.3,0.2-18.6,0.3-27.8,0.8c-12.4,0.7-24.6,2.9-36.9,4.5c-7.1,0.9-14.2,2.6-21.3,3.3
				c-5.2,0.5-10.4,0.6-15.6,1.2c-4.6,0.5-9.4-0.7-13.8,0.3c-5.3,1.2-9.8-0.4-14.5-1.9C3.2,171.3,3.2,170.6,3.2,169.8"/>
			<path id="Fill-142" class="st58" d="M54,194.1c5.3,0.7,10.6,1.3,15.9,2c3,0.4,6.1,0.2,9.2,0.8c7.4,1.4,15.1,1.4,22.6,2.7
				c7,1.2,14,2.4,21.1,3c6.8,0.6,13.5,1.8,20.2,2.7c7.1,0.9,14.2,2,21.4,2.5c9.2,0.7,18.4,1.4,27.6,1.2c6.5-0.1,12.9,0.1,19.4,0
				c3.4-0.1,7.2,0.1,10.2-1.4c4.3-2.1,9.1-1.2,13.2-3.5c0.6-0.3,1.8-1,2.5,0c0.8,1.2-0.5,1.7-1.1,2.4c-3,3.4-7.4,3.7-11.3,4.5
				c-6.2,1.3-12.6,1.4-19,1.6c-6,0.2-12.1,1.3-18.1,0.9c-10.1-0.7-20.2-1-30.2-2.8c-5.6-1-11.4-1.2-17.1-1.9
				c-6.7-0.8-13.3-1.8-20-2.8c-6.2-1-12.4-1.9-18.5-3.1c-8.6-1.7-17.4-2.2-26.1-3.7c-2.5-0.4-5.1-0.6-7.6-0.6
				c-4.3,0-8.4-0.9-12.6-1.4c-4.2-0.6-8.4-0.3-12.7-0.6c-2.1-0.1-4.1-0.4-6.1-0.6c5.1-0.4,10.2-1.2,15.4-1.1
				C53,195,53.9,195.2,54,194.1"/>
			<path id="Fill-144" class="st57" d="M23.1,2.7c6.7,0.1,13.4,0,20.1,0.5C50.5,3.7,57.8,4.1,65,4.7c12,0.9,24,1,36,1
				c8.6,0,17.2,0.3,25.8,0.3"/>
			<path id="Fill-146" class="st58" d="M3.4,180c9,0.4,17.9-0.5,26.8-2c6.2-1,12.6-1.4,19-1.8c6-0.3,12-0.1,18,0.1
				c9.7,0.2,19.3,1.4,28.9,2.4c5.3,0.6,10.4,1.5,15.6,2.7c0.8,0.2,2,0.2,1.8,1.3c-0.2,1-1.3,0.6-2,0.5c-5.8-0.5-11.6-1.1-17.4-1.7
				c-3.4-0.3-6.7-0.2-10.1-0.7c-7.3-1-14.7-1.2-22.1-0.9c-7.5,0.2-15.1-0.3-22.6,0.4c-7,0.6-14,1.2-20.9,2.5
				c-3.5,0.7-7.2,0.2-10.8-0.6c-1.4-0.3-2.7-0.3-4.1-0.4C3.4,181.2,3.4,180.6,3.4,180"/>
			<path id="Fill-148" class="st58" d="M369.2,55.1c-0.1-0.5-0.2-0.9-0.8-0.9c-4.9,0.4-9.9,1.1-14.8,1.3c-5.4,0.2-10.8,0.2-16.1-0.5
				c-3.3-0.4-6.7-0.5-10-1.3c-1-0.2-1.9-0.6-2.8-1.1c-1.6-0.9-1.5-2.3,0.1-3.2c1.6-0.9,3.3-1,5.1-1.3c3.3-0.5,6.7-0.8,10.1-0.6
				c4.5,0.3,8.9-0.2,13.4-0.2c5.7,0.1,11.4,0,17,0.8C369.6,50.4,370,52.9,369.2,55.1"/>
			<path id="Fill-150" class="st58" d="M8.9,331.5c4.5-0.7,9-0.8,13.4-1.5c5.3-0.9,10.8-0.6,16.1,0c4.3,0.4,8.8-0.2,13,1.5
				c1.2,0.5,2.8,0.8,2.6,2.4c-0.1,1.5-1.6,2-2.9,2.2c-4.8,0.8-9.5,1.9-14.3,1.6c-8.2-0.4-16.4,0.7-24.6,0.4
				c-1.8-0.1-3.3-0.4-3.8-2.4C8.6,334.3,8.8,332.9,8.9,331.5"/>
			<path id="Fill-152" class="st57" d="M370.1,59.3c0.7-6,1.4-12,2.1-18c1.2-10.2,0.8-20.4,1-30.6c0-0.7,0.1-1.2,0.7-1.5
				c1.4-0.8,2.7-1.8,3.6-3.1c0.3-0.4,0.8-0.8,1.4-0.6c0.7,0.2,0.5,0.9,0.5,1.4c0.4,10.8,0.2,21.5-0.4,32.3c-0.2,4,0,8.1-1,12.1
				c-0.2,0.6-0.2,1.2-0.7,1.7c-2.3,2.3-4.5,4.5-6.8,6.8C370.4,59.6,370.3,59.4,370.1,59.3"/>
			<path id="Fill-154" class="st58" d="M349.9,174.1c-2.3-1.4-4.9-1.1-7.3-1.4c-9.9-1.3-20-1.2-30-1.1c-7.9,0.1-15.7,0.9-23.6,1.8
				c-8.4,0.9-16.8,1.5-25.1,2.1c-0.2,0-0.3,0-0.5,0c-5-0.1-10-0.3-15,0.1c-3.6,0.3-7-0.9-10.5-1.3c-0.5-0.1-1.2-0.1-1.5-0.8
				c0.7-0.8,1.6-0.5,2.4-0.5c5.7,0.1,11.4,0.3,17.1,0.3c6,0,12.1-0.8,18.1-1.3c4.9-0.4,9.8-0.8,14.6-1.2c6.5-0.5,12.9-1.2,19.4-1.7
				c7.2-0.6,14.4-0.7,21.6,0.2c2.5,0.3,5.1,0.1,7.6,0.3c5.3,0.4,10.4,1.4,15.4,3.1C351.7,173.2,350.8,173.7,349.9,174.1"/>
			<path id="Fill-156" class="st58" d="M2.9,164.7c4.4-0.1,8.6-1.5,12.9-2.2c6.5-1.1,12.9-2.4,19.5-3.2c3.5-0.4,7-1.4,10.5-2.2
				c-2.7-1.5-5.7-1.9-8.5-2.1c-4.2-0.3-8.4-1.2-12.6-0.8c-2.7,0.2-5.2-0.2-7.8-0.3c-0.7,0-1.5-0.1-1.6-1c-0.1-1.1,0.9-0.9,1.5-0.8
				c3.1,0.2,6.1,0.3,9.2,0.4c3.3,0.1,6.8,0.3,10.1-0.2c3.6-0.5,7.1,0,10.4,1.1c3.8,1.2,7.4,2.9,11.1,4.4c0.9,0.4,1.9,1,1.7,2.2
				c-0.2,1.2-1.4,1.1-2.2,1.2c-4.7,0.3-9.5,0.4-14.2,0.7c-5.8,0.3-11.6,0.4-17.3,1.8c-5.8,1.3-11.9,1.3-17.7,2.5
				c-0.8,0.2-1.7,0.3-2.5,0.5c-1.5,0.3-2.3,1.1-2.1,2.7C2.3,167.9,3,166.2,2.9,164.7"/>
			<path id="Fill-158" class="st58" d="M329.2,83.9c-0.5,0.9-1.3,1.6-2.1,1.6c-2.8-0.1-5.4,1-8.2,0.3c-1.5-0.4-3.1-0.5-4.6-0.3
				c-4.5,0.7-8.9,0.1-13.4,0.1c-6.4-0.1-12.7,0.8-19,1.3c-7.5,0.6-14.9,1.8-22.3,2.5c-2.7,0.2-5.3,0.5-8,0.9
				c-1.2,0.2-2.4,0.1-2.8-0.9c-0.4-1.1,0.9-1.7,1.7-2.1c2.7-1.4,5.8-1.3,8.7-1.6c4.8-0.5,9.6-0.8,14.4-1.2
				c6.5-0.5,12.9-1.6,19.4-1.9c8.9-0.4,17.8-0.6,26.7-0.2c2.4,0.1,4.7,0.4,7.1,0.6c-0.5,0.7-1.9,0.3-2.2,1.6
				C326.3,84.8,327.7,83.7,329.2,83.9"/>
			<path id="Fill-160" class="st57" d="M336.7,81.7c2.6-1.5,4.7-2.7,6.8-3.9c3.1-1.8,6.5-1,9.7-0.7c2.5,0.3,5,0.6,7.5,0.8
				c5.4,0.4,10.8,0.9,16.6,1.5c-3.3,2.3-6.3,4.6-9.9,5.5c-2.4,0.7-5.1-0.8-7.6-1.1c-3.6-0.5-7.1-0.9-10.7-1.4
				C345.2,81.9,341.2,81.7,336.7,81.7"/>
			<path id="Fill-162" class="st58" d="M346.1,176.8c2.3,1,4.8,0.4,7.3,0.6c1.2,0.1,2.5,0.2,3.6,0.8c1,0.5,1.4,1.5,1,2.5
				c-0.5,1.4-1.4,0.4-2,0.2c-5.2-2-10.3-1.2-15.4,0.2c-4.2,1.2-8.4,2.5-12.4,4.2c-6,2.5-12.3,3.8-18.8,3.7c-0.8,0-1.9,0.3-2.1-0.8
				c-0.2-1.1,1.1-1.5,1.7-1.6c3.1-0.4,5.8-1.9,8.8-2.5c0.3,0.5,0.7,0.5,1.2,0.3c8-2.4,16-4.8,24.1-7.2
				C344,176.9,345,176.7,346.1,176.8"/>
			<path id="Fill-164" class="st58" d="M364.4,124.9c-4.4-1.7-9-1.8-13.5-2.2c-8.1-0.8-16.1,0-24.2-0.4c-4.8-0.2-9.6-1.2-14.4-1.3
				c-8.3-0.1-16.4,0.4-24.2,3.4c-0.7,0.3-1.5,0.8-2.8,0.4c3.3-2,6.6-3.2,10.1-4.2c11.5-3.2,23.1-1.1,34.7-0.9
				c7.3,0.1,14.5,0.9,21.8,1.3c3.5,0.2,7,0.5,10.6,0.7c1.3,0.1,2-0.3,2.6-1.4C364.9,121.8,365,123.4,364.4,124.9"/>
			<path id="Fill-166" class="st58" d="M342.7,76.7c-3-1.8-6.5-1.8-9.8-2c-6.9-0.4-13.9-0.2-20.6-1.6c-4.7-1-9.3-1-13.9-0.9
				c-9.3,0.1-18.5,0.8-27.8,1.1c-5.4,0.2-10.9,0.4-16.3,1.1c-0.5,0.1-1.1,0.2-1.5-0.4c1.7-1,3.7-1,5.5-1.2c6.4-0.6,12.8-1,19.3-1.1
				c6.3-0.1,12.5-0.8,18.8-0.8c7.2,0,14.5-0.2,21.7,0.7c4.6,0.6,9.1,1,13.7,1.3c4.5,0.2,9,0.9,13.5,1.3c0.3,0,0.5,0.3,0.8,0.4
				C345.2,75.7,343.8,75.9,342.7,76.7"/>
			<path id="Fill-168" class="st58" d="M1.7,87.3c0.1,1.3-0.7,3,0.2,3.8c1.1,1,2.2-0.8,3.4-1.1c2.7-0.7,5.3-1.3,8.1-1.5
				c4.6-0.3,9.3,0,13.9-1.3c1.1-0.3,3-0.6,3.1,0.3c0.2,1.5-1.7,1.1-2.8,1.5c-3.4,1.3-6.8,2.3-10.4,3c-1,0.2-2.1,0.4-3.2,0.5
				c-5,0.6-9.3,2.8-13.1,6c0.1-3,0.1-6,0.2-9C1.3,88.8,1.1,87.9,1.7,87.3"/>
			<path id="Fill-170" class="st58" d="M284.9,11.1c2,0.9,4.2,0.3,6.2,1.4c1.1,0.6,3.1,0.8,2.6,2.3c-0.4,1.2-2.2,1.2-3.7,1
				c-6.4-0.8-12.8-1-19.2-0.6c-0.1,0-0.2,0.2-0.4,0.3c-0.4,0.5-0.9,0.5-1.4,0.4c-1.7-1.2-2.3-3.5-4.1-4.7
				C271.6,11.2,278.3,11.2,284.9,11.1"/>
			<path id="Fill-172" class="st57" d="M4.9,196.4c1.9-1.7,3.4-2.9,4.8-4.2c2-1.8,4.3-0.8,6.4-0.7c4.3,0.3,8.5,1.2,12.7,1.5
				c3.8,0.3,7.6,0.8,11.6,1.4C28.6,196.1,17,195.6,4.9,196.4"/>
			<path id="Fill-174" class="st58" d="M363.2,155c-3.8,2.4-7.9,1.4-11.7,0.5c-6.4-1.4-12.7-3.2-19.2-4.1c-1.1-0.1-3.1-0.3-2.9-1.6
				c0.2-1.4,2.1-1.2,3.4-1.1c6.1,0.5,11.9,2.1,17.8,3.4c4.2,0.9,8.3,1.9,12.6,1.9C363.3,154.3,363.3,154.7,363.2,155"/>
			<path id="Fill-176" class="st58" d="M350.7,71.8c-4-1.8-8.4-1.4-12.6-2.1c-7.7-1.2-15.4-2.2-23.2-3.3c-2.6-0.3-5.2,0.1-7.8-0.7
				c-0.3-0.1-0.8,0-1-0.7c2.6-1.2,5.4-0.6,8-0.4c1.4,0.1,2.7,0.3,4.1,0.4c6.6,0.3,13.1,1.2,19.6,2.1c4.3,0.6,8.4,1.8,12.6,2.7
				c0.7,0.1,1.4,0.3,1.7,1C351.9,71.5,351.4,71.8,350.7,71.8"/>
			<path id="Fill-178" class="st57" d="M31.5,41c-9.7,2.4-19.3,1.2-28.5,3.7c1.6-1.4,3.1-2.8,4.7-4.1c0.2-0.2,0.6-0.2,0.9-0.2
				c7.1-0.3,14.2-0.4,21.3,0C30.2,40.4,30.6,40.6,31.5,41"/>
			<path id="Fill-180" class="st58" d="M366.8,289.8c-2.4,0.8-4.9,0.6-7.3,0.6c-3.5,0.1-6.8,0.8-10.2,1.5c-0.6,0.1-1.2,0.2-1.8,0.2
				c-0.5,0-1.2,0.2-1.3-0.6c-0.1-0.6,0.6-0.9,1.1-1c4.4-1,8.3-3.4,12.8-4c2.1-0.3,4.2-0.6,6.3-1
				C367.3,286.9,366.7,288.4,366.8,289.8"/>
			<path id="Fill-182" class="st58" d="M72.1,342.6c5.2-2.2,10.4-4.3,15.5-6.8c0.6-0.3,1.7-1.1,2.3-0.2c0.5,0.8-0.3,1.6-0.8,2.2
				c-1.4,1.6-2.9,3.1-4.4,4.6C80.5,342.4,76.3,343,72.1,342.6"/>
			<path id="Fill-184" class="st58" d="M2.6,67.9L2.5,72c5.6-2.4,11.3-2,16.9-1.8c1.2,0,3-0.1,3,1.3c0,1.2-1.8,0.7-2.8,0.6
				c-4.9-0.6-9.6,1.1-14.4,1.2c-2.5,0.1-2.7,2.3-3.3,4C2.3,74.1,1.6,70.9,2.6,67.9"/>
			<path id="Fill-186" class="st57" d="M354,173.6c2.7-1.1,4.9-2,7.1-3c1.4-0.6,3-1,3.8-2.7c0.2-0.5,1-0.9,1.7-1.1
				c2.1-0.7,4.2-1.2,6.5-1.9C368.3,171.2,362,173.7,354,173.6"/>
			<path id="Fill-188" class="st58" d="M3.8,207.3c0.4,1.5,1.1,1.6,2.6,1.1c4.2-1.2,8-3.1,11.8-5.2c3.2-1.7,6.7-2.2,10.1-3
				c0.6-0.1,1.2-0.3,1.3,0.4c0.2,0.9-0.6,0.6-1.1,0.7c-3.2,0.6-6.3,1.3-9.2,2.7c-4.4,2.1-8.7,4.2-13.4,5.4c-0.7,0.2-1.4,0.3-1.7,1
				C3.3,209.6,3.9,208.4,3.8,207.3"/>
			<path id="Fill-190" class="st58" d="M368.7,308.3c-4,0.8-8,0.1-12,0.2c-0.9,0-2-0.2-2-1.1c0-1.1,1.2-0.8,1.8-0.7
				c3.9,0.5,7.8-0.6,11.7-0.7C368.4,306.8,368.6,307.6,368.7,308.3"/>
			<path id="Fill-192" class="st57" d="M130.4,3.9c5.6-0.4,11.1,0.3,16.6,0.5c8.5,0.3,17.1,0.7,25.6,0.5c6.5-0.1,13.1-0.3,19.6-0.6
				c15.3-0.5,30.7,0,46,0.3L255,5.3c6.8,0.3,13.7-0.2,20.5-0.6c7-0.4,14-1.2,21-1.7c4.4-0.3,8.9-0.5,13.3-0.7
				c9.8-0.6,19.6,0.4,29.3,0.1C350,2,366.8,3.5,377.6,3.5c0.7,0,1.8-0.3,2,0.6c0.2,0.7-0.7,1.1-1.2,1.6c-2.4,2.7-5.2,4-9.1,3.7
				c-6.5-0.5-19-0.6-25.4,0c-2.4,0.2-4.8,0.2-7.1,0.3c-9.2,0.3-18.4,0.4-27.6,0.5c-14.1,0.2-28.2-0.6-42.3-0.6c-2,0-4,0.2-6,0.3
				c0,0-18.5,1.7-20.4,1.8c-10.4,0.5-20.9,0.1-31.3,0.5c-5.8,0.2-11.5,0-17.3,0.1c-19.8,0.3-39.5,0.5-59.3-0.1
				c-2.8-0.1-5.7-0.5-8.5-0.4l-10.8-0.2c-13.9-1-27.9-1.5-41.8-1.3c-12.5,0.2-25-0.2-37.4-0.6C27.7,9.6,15,7,8.3,7.2
				c2.1-1.9,5-3.5,7-4.9c0.7-0.5,0.8-1,1.7-1.2L130.4,3.9z"/>
			<path id="Fill-194" class="st58" d="M255.2,15.1c-1.2,1.7-3.2,0.9-4.7,1.2c-9.4,1.6-18.9,3.2-28.3,4.4c-5.9,0.8-11.9,1-17.8,1.6
				c-3,0.3-6.1,0.7-9.1,0.9c-3,0.1-5.8-0.3-8.5-1.5c-1.7-0.8-1.7-1.8,0-2.8c2.4-1.5,5.1-2,7.8-2.8c4.2-1.2,8.3-0.7,12.5-0.3
				c6,0.5,12.1-0.2,18.1-1c6.4-0.8,12.8-2,19.4-1.5c2.8,0.2,5.6-0.8,8.5-0.5C253.7,13.5,254.8,14,255.2,15.1"/>
			<path id="Fill-196" class="st58" d="M183.3,141.8c6.1,0.3,14.4-0.1,22.7-0.1c10.1-0.1,20.1-0.6,30.2-0.1c6,0.3,11.9,0.9,17.8,1.6
				c3.6,0.5,7.4,0.2,11,0.7c6.1,0.9,12.3,1.5,18.4,2.6c3.3,0.6,6.7,1.1,10,1.3c8.3,0.4,16.5,1.3,24.7,2.5c6.6,1,13.2,2.6,19.5,5.2
				c0.8,0.3,2.2,0.6,1.8,2c-0.3,1.3-1.7,1.3-2.6,1.4c-3.7,0.3-7.3-0.4-10.9-1.3c-6-1.5-12.2-2.3-18.3-3.1
				c-5.4-0.6-10.7-1.7-16.1-2.5c-3.3-0.5-6.7-0.9-10-1.2c-7.4-0.6-14.8-1.5-22.2-2.3c-4.1-0.4-8.3-0.6-12.4-0.7
				c-15.6-0.5-31.1-0.8-46.7-1.1c-7.5-0.2-15,0-22.5,0.8c-3.2,0.4-6.4,0.1-9.7,0.3c-6.2,0.4-12.4,0.7-18.5,1.4
				c-4,0.4-8.1,0.6-12.2,0.7c-1.3,0-3.2,0-3.4-1.6c-0.1-1.6,1.4-2.6,3-2.9c7.7-1.7,15.4-3,23.4-3.4
				C167.3,141.8,174.2,141.5,183.3,141.8"/>
			<path id="Fill-198" class="st58" d="M197.5,240.2c-8.6-0.1-17.6,0.3-26.6,0.5c-9.9,0.2-19.8,0.7-29.7,0.7
				c-10.6,0-21.1-1.5-31.7-1.8c-7.2-0.2-14.3-1.7-21.4-2.6c-4.6-0.5-9.3-1.2-14-1.2c-10-0.2-19.8-1.8-29.5-4.1
				c-2.2-0.5-4.3-1-6.4-1.9c-1.1-0.4-2.5-0.8-2.3-2.2c0.2-1.5,1.8-1.4,3-1.5c4.3-0.1,8.6,0.3,12.8,1.3c6.1,1.4,12.3,2.3,18.6,2.7
				c4.5,0.3,8.9,1.2,13.4,1.8c2,0.3,4.1,0.8,6.1,0.8c11.3,0.3,22.5,2.2,33.8,2.3c6.1,0.1,12.2,0.6,18.4,0.3
				c5.6-0.2,11.3,0.2,16.9,0.3c7.6,0.1,15.2,0.3,22.7-0.1c5.3-0.3,10.7-0.3,16-1.3c2.4-0.5,4.9-0.3,7.3-0.3
				c7.1-0.2,14.2-1.3,21.3-1.9c4-0.3,8.1-0.7,12.1-1c1.3-0.1,3.2,0,3.5,1.6c0.2,1.3-1.1,2.3-2.6,2.7c-7.4,2.2-15,3.5-22.8,3.9
				C210.3,239.7,204.1,240.6,197.5,240.2"/>
			<path id="Fill-200" class="st58" d="M71.3,186.6c5.5,0.1,11-0.1,16.4,0.4c9.3,0.8,18.6,0.5,27.9,1.1c6.3,0.4,12.7,1.1,18.9,2.1
				c4.8,0.8,9.8,1.1,14.7,1.3c3.2,0.1,6.4,0.7,9.6,0.8c7.7,0.2,15.3-0.7,22.9-2c4.9-0.9,9.8-1.6,14.7-2.4c0.2,0,0.3-0.2,0.4-0.1
				c1.6,0.3,3.7-0.1,4.4,1.8c0.7,1.9-1.1,3.1-2.4,3.8c-6.3,3.2-12.8,5.9-20.1,5.9c-10.9,0.1-21.9,0-32.8-0.4
				c-8.9-0.3-17.7-1.2-26.6-2.3c-4.9-0.6-9.9-1.1-14.9-1.5c-6.6-0.4-13.1-0.9-19.6-2.1c-3.5-0.7-7-0.8-10.5-1.3
				c-9.8-1.3-19.6-1.7-29.5-1.4c-4.6,0.1-9.2-0.4-13.8,0.4c-0.8,0.1-2.1,0.6-2.3-0.7c-0.2-1.2,1.1-0.9,1.9-1.1
				C44.1,185.9,57.7,185.9,71.3,186.6"/>
			<path id="Fill-202" class="st58" d="M165.8,159.4c-5.2,0.2-10.8,0.1-16.3,0c-10.5-0.3-20.9-0.5-31.4-1.1c-4.1-0.3-8.4,0-12.4-0.7
				c-6.4-1.1-12.9-0.7-19.2-1.7c-0.8-0.1-1.5-0.1-2.3-0.1c-11.3-0.2-22.4-1.5-33.6-3.3c-7.4-1.2-14.4-3.5-21.7-5
				c-3-0.6-6.1-1.6-9.2-1.2c-0.6,0.1-1.1-0.3-1.2-0.9c-0.2-0.6,0.4-0.6,0.8-0.9c3.3-1.9,6.9-1.4,10.4-1c6.4,0.7,12.7,1.7,19.1,2.6
				c4.7,0.7,9.4,1.6,14,2.3c4.8,0.7,9.5,1.4,14.3,2c6.1,0.8,12.3,1.1,18.5,2.2c0.6,0.1,1.2,0.1,1.8,0.1c12.7,0,25.4,1.1,38.1,1.4
				c5.1,0.1,10.3,0,15.4,0.8c5,0.7,10,0.3,14.9,1c4.5,0.7,9-0.1,13.5-0.4c2.8-0.2,5.7-0.1,8.5-0.2c6.1-0.3,12-1.3,18-2.2
				c0.9-0.1,1.8-0.3,2.1,0.6c0.4,1.2-0.8,1.2-1.6,1.5c-5.6,2.5-11.7,2.8-17.7,3.6C181.2,160,173.7,159.7,165.8,159.4"/>
			<path id="Fill-204" class="st58" d="M249.3,186.2c-8.6,0.1-16.3-0.7-24-1.5c-3.1-0.3-6.1-0.4-9.2-0.6c-9.4-0.7-18.8-1.2-28.2-2.1
				c-4.5-0.4-9-1.1-13.5-1.3c-7.7-0.3-15.3-2-22.9-2.7c-6.7-0.6-13.4-1.1-20.2-1.8c-5.9-0.5-11.8-0.8-17.7-1.4
				c-8.8-0.8-17.7-0.5-26.5-1c-0.8,0-2.2,0.3-2.2-1c0-1.2,1.3-1.3,2.4-1.3c5.2-0.3,10.4-0.8,15.6-0.6c9.3,0.3,18.6,0,27.9,0.7
				c9.9,0.8,19.8,1.5,29.7,3.2c5.5,0.9,11.1,1.1,16.7,1.9c7.3,1,14.5,2.1,21.8,3.1c3.9,0.5,7.8,0.9,11.7,1.3
				c8.4,0.8,16.9,1,25.3,1.6c5.4,0.4,10.8,0.6,16.1,0.6c7.6,0,15.1-0.6,22.6-1.9c4.2-0.7,8.4-0.6,12.6-0.9c5-0.4,10.1-0.8,15.1-1.3
				c3-0.4,6.1-0.8,9.2-0.5c0.5,0,1.3,0,1.4,0.6c0.2,0.8-0.7,1-1.2,1.1c-1.3,0.3-2.6,0.6-3.9,0.5c-8.3-0.1-16.3,1.5-24.4,2.9
				c-4.4,0.7-8.8,0.9-13.2,1.4C262.9,186.1,255.8,186.9,249.3,186.2"/>
			<path id="Fill-206" class="st58" d="M287.1,161.3c-2.5-0.6-4.4,0.6-6.2,1.6c-5.6,2.9-11.4,3.8-17.6,3.4c-8.7-0.6-17.4-0.4-26-1.2
				c-8.4-0.8-16.6-2.9-24.6-5.6c-0.8-0.3-1.8-0.5-1.6-1.6c0.1-0.9,1.1-1,1.8-1.1c4.4-0.4,8.8-0.9,13.3-1c5-0.1,10,0.1,15,0.3
				c5.3,0.2,10.5-0.8,15.8-0.9c9.4-0.3,18.9-0.3,27.8,3.9C285.8,159.5,286,159.6,287.1,161.3"/>
			<path id="Fill-208" class="st58" d="M108.7,92.4c-6.1,0-12-1.1-18-2c-3.4-0.5-6.9-0.5-10.2-1.3c-6.1-1.5-12.4-1.6-18.5-3.1
				c-4.4-1.1-8.9-2-13.6-2.2c-5-0.2-9.9-0.9-14.7-2.3c-2.1-0.6-4.3-0.1-6.4-0.8c-0.8-0.3-1.7-0.2-2.3-0.8c-0.4-0.4-1.5,0-1.4-0.8
				c0.2-1,1.2-0.7,1.9-0.8c6.2-0.7,12.1,1.1,18.2,1.7c3.5,0.3,7,0.2,10.6,0.7c6.6,1,13.2,1.9,19.8,2.7c5.5,0.7,10.9,1.6,16.3,2.4
				c9.8,1.6,19.7,1.1,29.5,1.4c5.5,0.1,11-0.8,16.5-0.8c5.2-0.1,10.4-0.4,15.6-1.1c0.8-0.1,2.2-0.5,2.3,0.7c0.1,0.8-1,1.4-2,1.6
				c-7,1.5-14,2.3-21.1,3.2c-5.6,0.7-11.2,1.3-16.9,1.8C112.4,92.6,110.5,92.4,108.7,92.4"/>
			<path id="Fill-210" class="st58" d="M268.4,288.2c7.2,0.6,14.5,1.4,21.7,2c6.6,0.5,12.9,2.7,19.6,2.6c4.1,0,8,1.7,12.1,2.3
				c1.8,0.3,3.6,0.8,5.5,0.7c5.8-0.2,11.4,0.9,17.1,2.1c2.6,0.5,5.3,0.6,7.9,1.2c0.6,0.1,1.4,0,1.2,1c-0.1,0.7-0.8,0.8-1.4,0.9
				c-4.5,0.5-9-0.5-13.4-0.9c-3.7-0.3-7.3-1-11.2-0.8c-3.8,0.3-7.7-0.7-11.6-1.2c-2.1-0.3-4.2-0.8-6.4-0.8
				c-5.2-0.1-10.3-1.2-15.5-1.9c-4.4-0.6-8.8-1.4-13.2-1.5c-6.7-0.2-13.4-0.5-20.1-0.4c-6.5,0.1-13,1-19.5,1.2
				c-5.5,0.1-10.8,1-16.2,1.6c-0.8,0.1-2.2,0.5-2.3-0.7c-0.1-1,1.1-1.4,2.2-1.6c8.2-1.7,16.3-3.3,24.7-4.1c4.5-0.4,8.9-1.3,13.4-1.8
				C264.7,288,266.6,288.2,268.4,288.2"/>
			<path id="Fill-212" class="st58" d="M51.4,66.5c1.4-0.2,2.7-0.5,4-0.6c7.7-0.5,15.4-0.4,23.1,0.1c7.6,0.5,15.2,0.8,22.8,1.4
				c6.7,0.6,13.5,0.6,20.2,1.3c9,0.9,18,1.5,27,2.5c6.8,0.8,13.7,1.4,20.5,2.3c8.4,1.1,16.9,1.7,25.3,2.7c2.5,0.3,5,0.4,7.6,0.6
				c8.3,0.7,16.7,1.7,25.1,1.6c8.5-0.1,16.9,1.3,25.4,1c6.4-0.2,12.8,0.1,19.2-0.1c2.6-0.1,5.2-0.4,8.4,0c-1.8,1.1-3.4,0.8-4.8,1
				c-2.2,0.3-4.5,0.4-6.6,0.3c-8.5-0.3-17,0.7-25.4-0.1c-8.8-0.8-17.7-0.4-26.5-1.1c-4.1-0.3-8.2-0.9-12.2-0.5
				c-6.7,0.6-13.4-0.3-20-0.7c-8.1-0.4-16.2-1.1-24.3-2.2c-5.9-0.8-11.9-1-17.8-1.9c-8.3-1.3-16.8-1.3-25.1-2.7
				c-7.5-1.3-15.2-2.1-22.8-2.9c-2.7-0.3-5.3-0.2-8-0.2c-4.3-0.1-8.7-0.7-13-1.3c-1.6-0.2-3,0-4.5,0.1c-5.4,0.1-10.8-0.5-16.1,0.2
				C52.3,67.2,51.9,67.2,51.4,66.5"/>
			<path id="Fill-214" class="st58" d="M97.9,304.1c1.4-0.2,2.8-0.5,4.2-0.6c2.8-0.2,5.7-0.2,8.5-0.3c21-1.1,42,0.4,63.1,0.3
				c6.1,0,12.2-0.3,18.2,0.2c9.4,0.7,18.9,1,28.2,2c6.3,0.7,12.5,1,18.8,1.8c9.9,1.3,20.1,0.7,29.9,3.2c2,0.5,4.1,0.4,6.2,0.4
				c5,0.1,10,1.3,15.1,0.7c3.3-0.4,6.7,0.2,10.1,0.7c3.4,0.4,6.7,0.5,10.1,0.2c5.1-0.4,10.2,0.4,15.4-0.2c-0.9,1.1-2.3,1.1-3.3,1.1
				c-2.8,0-5.7,0.3-8.5,0.4c-3.5,0.1-7.1,0.2-10.6,0.1c-6.8-0.2-13.7-0.9-20.5-1c-5.8,0-11.7-0.4-17.4-0.8
				c-8.4-0.5-16.8-0.1-25.1-1.4c-5.3-0.8-10.6-0.5-15.8-1.2c-8.7-1.3-17.6-1.3-26.3-2.5c-6.6-0.9-13.2-0.7-19.8-1.4
				c-17.7-1.9-35.4-1.4-53.1-1.9c-8.3-0.2-16.7,0.5-25.1,0.8c-0.8,0-1.5,0-2.3,0C97.9,304.5,97.9,304.3,97.9,304.1"/>
			<path id="Fill-216" class="st58" d="M172.1,57.5c1.8-2.1,4.2-3,6.7-3.7c5.8-1.7,11.7-2.1,17.7-2.5c10.7-0.7,21.4-0.6,32.1-0.1
				c6.9,0.3,13.9,1.2,20.8,2.1c10.9,1.5,21.6,4.2,32.5,5.9c3.9,0.6,7.9,0.8,11.7,2.1c1.2,0.4,3,0.6,3,2.1c0,1.7-1.9,1.3-3.1,1.7
				c-2.8,0.9-5.5-0.3-8.1-0.9c-4.8-1.1-9.6-2.8-14.5-3.6c-7.6-1.2-15.2-2.9-22.9-3.6c-10.9-0.9-21.7-2.3-32.6-2.5
				c-5.1-0.1-10.2-0.9-15.3-0.7c-8.4,0.4-16.9,0.8-25,3.4C174.2,57.6,173.3,58.1,172.1,57.5"/>
			<path id="Fill-218" class="st58" d="M205.2,324.5c-2.5,2.8-5.8,3.8-9.1,4.5c-7.4,1.4-14.8,2.5-22.3,2.5c-8.3,0-16.6,0.9-24.9,0.3
				c-10.4-0.7-20.7-1.5-31.1-3.2c-9-1.5-18-3.9-27.2-4.1c-2.9-0.1-5.7-1-8.4-2.1c-0.6-0.3-1.5-0.4-1.4-1.3c0.1-0.8,0.8-1.1,1.4-1.4
				c2.7-1.3,5.4-0.5,8.1,0c7.8,1.5,15.4,4,23.4,4.8c5.3,0.5,10.4,1.5,15.7,1.9c6.7,0.5,13.4,0.5,20,1.4c4.3,0.6,8.6,0.7,12.9,0.6
				c4.1-0.2,8.1,0.2,12.1,0.3c9.4,0.2,18.6-1.4,27.7-3.8C202.9,324.5,203.9,323.8,205.2,324.5"/>
			<path id="Fill-220" class="st58" d="M259.6,207.3c5.8,0.6,13,0.2,20.3-0.1c8-0.3,16.1-0.4,24.2-0.8c11.5-0.6,23.1-0.9,34.5-3.4
				c6.3-1.4,12.5-3.2,18.7-5.1c0.7-0.2,1.8-1,2.2,0.1c0.4,0.9-0.4,1.7-1.2,2.3c-5.4,4.2-11.8,5.9-18.3,7c-8.4,1.4-16.9,2.1-25.4,2.3
				c-8.5,0.2-17,0.7-25.5,0.9c-5.3,0.1-10.6,0-15.9-0.1c-8.1-0.1-16.2,0.4-24.2,0c-1.4-0.1-2.7-0.4-4.1-0.8
				c-0.8-0.2-1.8-0.6-1.5-1.7c0.2-1,1.1-0.9,1.9-0.9C249.5,207.1,253.8,207.2,259.6,207.3"/>
			<path id="Fill-222" class="st58" d="M56.3,219.1c-6.4,0.4-12.7,0-19-1.4c-0.6-0.1-1.2-0.3-1.8-0.6c-1-0.5-1.9-1.2-1.8-2.4
				c0.2-1.3,1.4-1.6,2.5-1.6c7.1-0.3,14.2-1.6,21.4-0.9c3.8,0.4,7.5,0.8,11.3,0.6c6-0.4,12-0.1,18,0c5.1,0.1,10.1,0.9,15,2.2
				c0.9,0.2,1.7,0.7,2.5,1.2c0.8,0.5,0.8,1.3,0.5,2.1c-0.3,0.7-0.9,0.5-1.4,0.4c-4.6-1.2-9.2-0.5-13.7,0c-4.1,0.5-8.3,0.7-12.4,0.9
				C70.3,219.7,63.3,219.3,56.3,219.1"/>
			<path id="Fill-224" class="st58" d="M62.6,203c10,0.1,19.3,1.6,28.6,2.9c4.9,0.7,9.9,1.5,14.9,1.4c0.7,0,1.4,0,2.1,0.2
				c0.5,0.1,1.1,0.4,1,1c-0.1,0.7-0.8,0.6-1.3,0.6c-9.7,0.6-19.5,1.4-29.2,0.7c-5.5-0.4-10.9-1.4-16.4-2c-3.8-0.4-7.6-0.6-11.3-0.2
				c-3.2,0.3-6.4,0.3-9.6,0.5c-9.1,0.6-18.2,1.1-26.8,4.7c-0.8,0.4-2,0.8-2.4-0.2c-0.4-1.1,0.8-1.4,1.6-1.6c2.7-0.8,5.2-2.1,7.5-3.4
				c7.2-3.9,15-3.3,22.7-4C50.4,203,56.7,202.8,62.6,203"/>
			<path id="Fill-226" class="st58" d="M123.7,248.6c11.6,0.9,19.4-0.1,27.2,0.4c13.8,0.9,27.6,0.8,41.3,1.5
				c5,0.2,10.1,0.7,15.1,1.5c0.9,0.1,1.9,0.2,2.8,0.1c7.7-1.3,15.6-0.8,23.2-2.7c3.6-0.9,7.3-1.8,10.9-2.7c0.7-0.2,1.7-0.7,2,0.4
				c0.3,1-0.9,0.9-1.5,1c-6.7,1.8-13.1,4.6-20.1,5.5c-7,0.9-13.9,1.3-20.8-0.1c-1-0.2-2.1-0.2-3.2-0.2c-7-0.2-14-0.1-21-0.5
				c-7.3-0.5-14.6-0.9-21.9-0.8c-13.3,0.2-26.7-0.4-40-0.4c-4.3,0-8.6,0.1-12.9,0.1c-0.7,0-1.6,0-1.6-0.9c-0.1-1,0.8-0.9,1.5-1
				C112.2,249.4,119.8,248.1,123.7,248.6"/>
			<path id="Fill-228" class="st58" d="M240.8,134.2c-7.4-0.2-14.3,0.1-21-0.6c-9.4-0.9-18.9-1.1-28.3-1.5c-8.1-0.4-16.2-2-24.3-2.2
				c-11.5-0.3-22.9,1.1-34.1,4c-1,0.3-2.7,1.5-3.2-0.1c-0.3-1,1.7-1.1,2.7-1.4c6.1-1.7,12.2-3.7,18.5-4.5c5.9-0.8,11.7-1.3,17.5,0
				c2.2,0.5,4.6,0.7,6.9,0.7c8.4-0.1,16.8,0.7,25.1,1.1c7,0.4,13.9,1.3,20.9,1.3c3.2,0,6.4-0.5,9.7-0.2c13.1,1.1,26.3,0.9,39.5,1.3
				c0.8,0,2-0.3,2.1,0.9c0.1,1.1-1,0.9-1.7,1C260.7,135.2,250.4,134.3,240.8,134.2"/>
			<path id="Fill-230" class="st58" d="M230.8,71c-6.7,0.2-13.2-0.3-19.7-0.8c-8.3-0.7-16.6-1.9-24.8-3.1c-7.7-1.1-15.4-2.6-23-4.3
				c-1.9-0.4-3.9-0.8-5.8-1.3c-0.6-0.2-1.5-0.5-1.2-1.4c0.2-0.7,0.9-0.7,1.6-0.7c4.1,0.3,8,1.5,11.9,2.3c6.4,1.4,12.8,2.3,19.3,3
				c5.5,0.6,10.9,1.4,16.4,2.1c0.4,0,0.8,0.1,1.1,0.1c10.5,0.1,20.9,1.4,31.4,1.1c9.4-0.2,18.7-1.1,27.6-4.1
				c1.8-0.6,3.7-0.9,5.7-0.6c0.7,0.1,1.7-0.3,1.8,0.9c0,1-0.8,1.2-1.6,1.4c-4.9,1.3-9.8,2.6-14.7,3.8
				C248.2,71.4,239.4,71.6,230.8,71"/>
			<path id="Fill-232" class="st58" d="M153.7,312c5.7-0.3,12.6,0.2,19.5,1c8.4,1,16.9,1.6,25.3,3.1c6.2,1.1,12.4,2.1,18.5,3.6
				c0.8,0.2,1.7,0.1,2.5,0.2c0.8,0.1,1.6,0.5,1.5,1.4c-0.1,0.9-1,0.8-1.6,0.8c-2.4,0.2-4.7-0.9-7-1.2c-9-1.4-18-2.8-27-3.9
				c-14.2-1.7-28.4-2.1-42.6-2c-8.6,0-17.4,0.3-25.7,3.1c-3.6,1.2-7.1,2.5-10.9,2.4c-0.7,0-1.8,0.4-1.9-0.7c-0.1-1,0.7-1.4,1.6-1.7
				c9-2.7,17.9-5.6,27.3-6.3C139.6,311.5,146,311.8,153.7,312"/>
			<path id="Fill-234" class="st58" d="M196.8,200.3c-0.1-1.1,0.6-1.1,1.1-1.3c9.4-3.7,19.1-6.1,29.2-6.8c6.3-0.5,12.7-0.7,19-1.3
				c2.8-0.3,5.5,0.6,8.3,0.6c16.7,0.4,33.5,0.7,50.2,1.1c3.8,0.1,7.5,0.5,11.3,0.6c11.1,0.3,22.2-0.2,33.2-2c1.8-0.3,3.5-1,5.3-1.6
				c0.6-0.2,1.2-0.7,1.5,0.3c0.3,0.8-0.4,1.1-1,1.3c-4.6,1.9-9.3,3.6-14.3,4c-7.2,0.7-14.5,0.4-21.7-0.1c-14.4-1-28.8-1.1-43.2-1.2
				c-10.5-0.1-20.9-0.2-31.4-0.4c-15.3-0.2-30.3,1.4-44.9,6.1C198.6,200,197.7,200.1,196.8,200.3"/>
			<path id="Fill-236" class="st58" d="M99.5,74.7c7,0.5,14.6-1,22.3-0.4c5,0.4,9.9,0.7,14.8,2.1c0.9,0.3,2.3,0.3,2.2,1.5
				c0,1-1.3,1.1-2.2,1.3c-5.1,0.9-10.3,1.6-15.5,2c-4,0.3-7.9,1-11.9,1c-8-0.1-16-0.8-22.9-5.5c-0.3-0.2-0.7-0.5-0.7-0.8
				c-0.1-0.6,0.6-0.6,1-0.7c1.8-0.3,3.6-0.6,5.5-0.6C94.3,74.5,96.5,74.6,99.5,74.7"/>
			<path id="Fill-238" class="st58" d="M292.1,304.2c-2,1.2-3.9,1.3-5.6,1.3c-3.7,0-7.3,0.5-11.1,0.4c-6.2-0.2-12.4,0.7-18.6,0.8
				c-4.3,0.1-8.7-0.4-13-1.3c-1.3-0.3-2.7-0.5-4-0.9c-0.7-0.2-1.5-0.3-1.5-1.2c0-0.9,0.8-1.2,1.4-1.3c2.7-0.5,5.4-1,8.1-1.4
				c4.9-0.7,9.9-1.3,14.8-1.9c5.2-0.6,10.4-0.7,15.6,0.4c1.6,0.3,3.2,0.6,4.8,0.8C286.5,300.4,288.9,302.7,292.1,304.2"/>
			<path id="Fill-240" class="st58" d="M185.4,61c0.9-1.4,2.3-1.2,3.4-1.5c4.3-0.9,8.7-0.8,13-1.1c11.6-0.7,23.2-0.7,34.8-0.2
				c6.4,0.3,12.8,1.4,19.3,1.3c0.7,0,1.6,0.2,1.6,0.9c0,1.1-1,0.8-1.7,0.9c-6.8,1.1-13.7,1.7-20.6,1.7c-9,0.1-18,0.9-26.9-0.4
				c-2.3-0.3-4.6-0.3-6.9-0.2c-4.7,0.1-9.3-0.9-14-0.8C186.7,61.8,186.1,61.6,185.4,61"/>
			<path id="Fill-242" class="st58" d="M145.8,324.7c-7.9,0.4-15.9-0.8-24-0.9c-0.7,0-1.8,0.1-1.8-0.9c0-1.1,1-0.9,1.8-0.9
				c5.7-0.6,11.4-1.3,17.1-1.8c4.5-0.4,9-0.7,13.5-0.7c12.1,0.1,24.2,0.5,36.2,0.7c0.3,0,0.6,0,0.9,0c0.9,0,2,0,2.1,0.9
				c0.1,1.3-1.2,0.8-1.9,1c-6,1.9-12.3,1.5-18.5,2C162.9,324.7,154.5,325.3,145.8,324.7"/>
			<path id="Fill-244" class="st58" d="M29.4,323c0.9-1.1,1.6-1.2,2.4-1.1c10.8,1.1,21.4,3.6,32.2,5.1c6.4,0.9,12.7,1.8,19.1,2.5
				c9.2,1,18.4,1.9,27.6,3c5.1,0.6,10.2,0.9,15.4,1.2c8.4,0.5,16.7,0.7,25.1,1.6c6.1,0.6,12.2,0.9,18.2,0.6c6.3-0.2,12.7-0.2,19-1.2
				c2.4-0.4,4.9-0.4,7.3-0.4c6.2,0,12.4-0.7,18.5-1.6c5.8-0.9,11.7-1.7,17.6-1.8c2,0,4.1-1.1,6,0.4c-0.6,0.9-1.4,0.6-2.1,0.6
				c-8.2,0.1-16.3,1.1-24.4,2.6c-2.9,0.5-5.8,0.7-8.7,0.8c-6.4,0.3-12.9,0.4-19.2,1.3c-2.6,0.4-5.2,0.2-7.8,0.3
				c-7.2,0.4-14.5,0.6-21.7,0c-8.2-0.7-16.4-1.1-24.6-1.5c-7.1-0.3-14.3-0.8-21.3-1.9c-10.1-1.5-20.3-1.8-30.4-3.3
				c-10-1.5-20-2.6-29.9-4.7C41.8,324.3,35.7,323.9,29.4,323"/>
			<path id="Fill-246" class="st58" d="M139.4,49.7c9.8,0.1,19-1.4,28.3-2.6c4.3-0.6,8.7-0.7,13.1-0.7c9.3-0.1,18.6-0.7,27.8-1
				c6.1-0.2,12.1,0.5,18.1,1c3.2,0.2,6.4,0.4,9.6,0.7c8.6,0.8,17.3,1,25.9,2.1c9.2,1.2,18.5,2.5,27.8,3.7c10,1.3,20,2.8,30,4.5
				c6.9,1.2,13.8,2.7,20.7,4c2.2,0.4,4.5,0.6,7,0.9c-0.7,1.2-1.6,1.3-2.5,1.2c-6.5-1-13-2.1-19.4-3.4c-6.8-1.4-13.7-2.6-20.6-3.5
				c-5.7-0.7-11.3-1.8-17-2.5c-3.7-0.5-7.5-0.8-11.2-1.3c-4.6-0.6-9.3-1-13.9-1.9c-2.7-0.5-5.3-0.4-8-0.8c-4.2-0.7-8.4-0.5-12.6-0.9
				c-5.8-0.5-11.6-1.4-17.4-1.6c-5.9-0.2-11.7-1.5-17.7-0.6c-3.2,0.5-6.4,0-9.7,0.2c-6.5,0.5-13,0.3-19.6,0.6c-7,0.3-14,1-21,2
				c-5.1,0.7-10.2,1.2-15.4,0.9C141,50.5,140.3,50.3,139.4,49.7"/>
			<path id="Fill-248" class="st58" d="M333.5,39.6c-7.4-1.4-14.5-0.3-21.5,0.8c-6.1,1-11.8,3.2-17.4,5.9c-1.8,0.9-3.7,1.6-5.5,2.4
				c-0.5,0.2-1,0.5-1.5,0c-0.5-0.6-0.1-1.1,0.2-1.5c1.4-1.5,2.8-3,4.2-4.5c4.6-4.5,10.9-4.5,16.6-6c7.2-2,14.6-1.7,22-1.5
				c4.4,0.1,8.7,0.1,13.1-0.2c4.8-0.3,9.6-0.5,14.2-1.9c0.5-0.1,1.4-0.4,1.6,0.4c0.2,0.8-0.7,0.8-1.2,1c-5.4,2-10.9,3.9-16.6,4.5
				C338.9,39.4,336.1,39.2,333.5,39.6"/>
			<path id="Fill-250" class="st58" d="M361,251.9c-2.1,1.5-4.1,1.6-6,2c-5.2,1-10.2-0.3-15.2-1.5c-5.1-1.2-10.2-1.9-15.4-2.4
				c-3.1-0.3-6.3-1.2-9.3-1c-11.2,0.7-22.5-0.2-33.7,1.8c-5.4,1-11,1-16.4,2.1c-0.4,0.1-0.9,0-1.4,0c-0.8,0-1.6,0-1.8-1
				c-0.2-1,0.7-1.3,1.4-1.6c3.5-1,7-1.7,10.5-2.3c9.6-1.7,19.4-2,29.1-1.8c2.7,0.1,5.5-0.1,8.3-0.2c8.2-0.2,16.1,1.9,24.1,3.5
				c5.3,1,10.5,3.2,16,2.9C354.2,252.2,357.2,251.8,361,251.9"/>
			<path id="Fill-252" class="st58" d="M15.5,126.9c2.1-1.8,4.6-1.9,7-2c5.5-0.4,10.6,1.4,15.9,2.4c6.2,1.2,12.5,2.3,18.8,3.1
				c8.8,1.1,17.7-0.1,26.5,0.3c4.2,0.2,8.5-1,12.8-1.2c5.1-0.2,10.1-0.9,15-1.7c0.4-0.1,0.8,0,1.2,0c0.7,0,1.4,0.2,1.6,1
				c0.1,0.9-0.6,1.2-1.2,1.4c-2.5,1-5.2,1.5-7.8,1.9c-5.5,0.8-11.1,1.4-16.7,1.6c-10,0.5-20-0.1-30-0.4c-6-0.2-11.8-2.4-17.7-3.7
				c-5.9-1.3-11.7-3.4-17.8-3C20.4,126.8,18,126.8,15.5,126.9"/>
			<path id="Fill-254" class="st58" d="M60.4,302.5c-3.6,0.3-7-0.5-10.6-0.7c-0.8,0-1.6-0.1-1.7-1.1c-0.1-1,0.8-1.4,1.5-1.5
				c2.7-0.2,5.4-0.8,8-0.3c3.9,0.7,7.6-0.2,11.5-0.2c1.7,0,3.4-0.2,5-0.1c7.2,0.3,14.4-0.7,21.5-1.7c5.8-0.7,11.5-1.5,17.3-2.2
				c4.2-0.5,8.4-1.6,12.7-1.5c0.9,0,2.1-0.4,2.3,0.9c0.2,1-0.9,1.5-1.7,1.9c-2.3,1.3-4.9,1.5-7.4,1.5c-3.9,0.1-7.6,1.1-11.4,1.4
				c-6.5,0.5-12.9,1.6-19.4,2.2C79,302.2,69.7,302.4,60.4,302.5"/>
			<path id="Fill-256" class="st58" d="M269.2,330.8c7.6-0.2,14.9,0.7,22.3,1c7.6,0.3,15.2,0.9,22.8,1.4c5.1,0.3,10.2,1.1,15.3,1.7
				c0.9,0.1,1.6,0.5,1.7,1.3c0.2,0.9-0.8,1.1-1.3,1.3c-2.8,1.2-5.7,0.7-8.4,0.3c-5.9-0.8-11.8-1.7-17.8-2.3
				c-6.8-0.7-13.6-1.5-20.4-1.5c-7.9,0-15.8-0.6-23.7,0.2c-3.2,0.3-6.4,0.7-9.6,1.1c-1.5,0.2-3.5,0.4-3.8-1.2
				c-0.3-1.6,1.7-1.8,3-2.1C255.9,330.6,262.6,330.3,269.2,330.8"/>
			<path id="Fill-258" class="st58" d="M109.4,49.8c-7.6,0.5-15.8-1.2-24.1-1.5c-7.3-0.2-14.5-1.4-21.7-1.8c-5-0.3-10-1.2-15-1.9
				c-0.9-0.1-2.3-0.3-2-1.7c0.2-1.1,1.4-1.2,2.4-1.3c4.8-0.2,9.5,0.4,14.2,1.4c4.7,1,9.5,1.4,14.3,2c10.7,1.2,21.4,1.8,32.2,1.6
				c6-0.1,11.9-0.1,17.9-0.9c1.5-0.2,3.7-0.2,4,1.3c0.3,1.7-1.9,1.8-3.3,2.1C122.2,50.3,116.1,50.1,109.4,49.8"/>
			<path id="Fill-260" class="st58" d="M334.3,137.3c-6.3-0.9-12.7-0.4-19-1.4c-1.6-0.2-3.1,0.7-4.7,1c-4,0.8-8,1.6-12.1,1.4
				c-2.5-0.1-4.8,1-7.2,1.4c-3.7,0.6-7.5,0.3-11.2,0.9c-0.6,0.1-1.3-0.1-1.5-0.8c-0.1-0.8,0.6-1,1.2-1.1c1.3-0.3,2.7-0.5,4-0.8
				c3.5-0.6,6.8-1.7,10-3.3c4.3-2.1,9-2.5,13.7-2.6c6.7-0.2,13.3,0.4,19.8,2.1c4.8,1.2,9.7,0.9,14.6,0.2c3.5-0.5,7-0.4,10.4-1.5
				c0.7-0.2,1.3,0,1.4,0.7c0.2,0.8-0.5,1.1-1,1.3c-2.1,0.9-4.3,1.2-6.5,1.5C342.4,137,338.3,137.6,334.3,137.3"/>
			<path id="Fill-262" class="st58" d="M49.2,248.2c2.4,0.2,6.8,0,11.2,0.4c2.9,0.3,6-1.1,8.9-1.8c2.2-0.5,4.5-1,6.8-0.9
				c3.7,0.2,7.2-1.5,10.9-1.7c3-0.2,5.9-0.7,8.9-1c0.7-0.1,1.2,0.2,1.3,0.9c0.1,0.8-0.5,0.8-1,1c-1.1,0.3-2.2,0.6-3.4,0.7
				c-5.4,0.7-10,4-15.2,5.2c-9.5,2.2-19.2,2.1-28.7-0.2c-3.4-0.8-6.9-0.8-10.3-0.4c-5,0.5-10.1,0.4-15,2.1c-0.6,0.2-1.1,0-1.3-0.6
				c-0.2-0.7,0.2-1.2,0.8-1.5c1.5-0.7,3.2-1,4.9-1.3C34.4,247.6,40.9,247.8,49.2,248.2"/>
			<path id="Fill-264" class="st58" d="M68.6,79.2c-4.5-0.7-8.9-1.3-13.2-1.9c-3.5-0.6-7-1-10.4-1.9c-5.7-1.5-10-5.3-14.2-9
				c-0.5-0.4-1-0.9-0.5-1.6c0.4-0.6,1.1-0.3,1.7-0.1c5.3,1.7,10.6,3.7,16,5.2c6.7,1.8,13.6,2.7,20.5,3.8c2.6,0.4,5.1,1,7.6,1.5
				c1,0.2,1.9,0.8,2,1.7c0.1,1.1-1,1.4-1.9,1.6C73.6,79.1,70.9,78.4,68.6,79.2"/>
			<path id="Fill-266" class="st58" d="M308.5,300.9c7.1,0.2,12.5,1.8,18,2.1c7.4,0.4,13.1,3.9,18.5,8.5c0.3,0.2,0.7,0.4,0.9,0.7
				c0.4,0.6,1.7,1,1,2c-0.6,1-1.5,0.2-2.3,0c-4.9-1.5-9.7-3.5-14.7-4.5c-6.2-1.2-12.4-2.6-18.7-3.2c-3.4-0.3-6.8-1-10.2-1.6
				c-1-0.2-1.8-0.9-1.9-1.8c-0.1-1.1,1-1.4,1.9-1.6C304,301,307,300.8,308.5,300.9"/>
			<path id="Fill-268" class="st58" d="M128.9,106.8c-0.4,0.7-1.2,0.8-1.9,0.9c-10.7,0.3-21.1,2.4-31.6,4.5c-11,2.2-22,4.3-33.3,3.4
				c-9.5-0.8-18.9-1.8-28.5-2.1c-0.4,0-1.1,0.1-1.2-0.5c-0.1-0.7,0.6-0.8,1.1-1c1.6-0.7,3.4-0.5,5-0.3c6.4,1,12.9,0.5,19.4,0.8
				c7.9,0.4,15.6-1,23.3-2c5.4-0.7,10.8-0.9,16.2-1.7c4.8-0.7,9.6-1.1,14.3-1.8c1.9-0.3,3.8-0.3,5.7-0.4c3.2-0.3,6.4-0.1,9.7-0.4
				C127.7,106.3,128.4,106.1,128.9,106.8"/>
			<path id="Fill-270" class="st58" d="M247.2,274.3c1.7-1.5,3.6-1.1,5.2-1.3c10.7-1.1,21.1-3.2,31.6-5.6c9.7-2.2,19.5-4,29.6-3.3
				c9.7,0.7,19.3,1.3,29,1.5c0.5,0,1.3-0.2,1.3,0.6c0,0.6-0.7,0.7-1.2,0.9c-2.2,0.7-4.5,0.5-6.6,0.1c-2.8-0.4-5.6-0.4-8.5-0.2
				c-3.4,0.3-6.8,0.1-10.2-0.1c-6.6-0.4-12.9,1.4-19.4,2.1c-5,0.6-10,1.2-15,1.8c-6.1,0.8-12.1,1.8-18.2,2.6
				c-3.6,0.5-7.1,0.8-10.7,0.9C252,274.4,249.8,275.2,247.2,274.3"/>
			<path id="Fill-272" class="st58" d="M278.7,21.6c-0.6-0.9-1.2-1.9-1.8-2.8c6.7-0.5,13.4-0.2,20.1,0c5.8,0.1,11.5,1.4,17.3,2.1
				c3.7,0.4,7.4,1,11.2,1.2c4.2,0.3,8.4,1.1,12.6,0.8c5.9-0.5,12-0.1,17.8-1.5c2.1-0.5,4-1.5,6-2.3c0.4-0.2,0.9-0.5,1.3-0.1
				c0.5,0.6-0.2,1-0.6,1.3c-1.4,1.3-3.1,1.9-4.8,2.6c-4.9,1.8-9.7,4-15.1,3.3c-6.2-0.7-12.5-1.5-18.7-2.2c-2.3-0.3-4.6-0.2-6.9-0.6
				c-3-0.5-6.1-0.7-9.2-0.7c-7.5-0.2-15-0.9-22.5-1.2C283.1,21.5,280.9,21.6,278.7,21.6"/>
			<path id="Fill-274" class="st58" d="M24.5,30.5c1.5-2.9,4.4-3.1,7.1-3.7c2.5-0.5,4.8-1.6,7.3-2.1c3.7-0.7,7.4-0.3,11.2,0.1
				c4.7,0.4,9.3,1.1,13.9,1.8c6.8,1,13.7,1.9,20.6,1.9c0.6,0,1.5,0,1.5,0.7c0.1,1-0.9,0.5-1.4,0.6c-7.4,1.9-14.8,2.1-22.4,1.8
				c-6-0.2-11.8-1.8-17.7-2.9c-6.5-1.2-12.8-1.4-18.9,1.5C25.4,30.6,25,31,24.5,30.5"/>
			<path id="Fill-276" class="st58" d="M164.8,222c-15.6-0.9-31.1-2.4-46.1-7.2c-1.9-0.6-3.9-0.9-5.8-1.5c-0.8-0.3-2-0.8-1.7-2.1
				c0.3-1.2,1.4-1,2.3-1c3.6,0.1,6.9,1.4,10.3,2.2c7.1,1.8,14.3,3,21.6,4c6.4,0.9,12.7,1.9,19.1,2.6c3.3,0.4,6.6,0.5,9.8,1.2
				c0.5,0.1,1.4-0.1,1.3,0.8c-0.1,0.7-0.8,0.5-1.3,0.6C171.1,222.2,167.9,222,164.8,222"/>
			<path id="Fill-278" class="st58" d="M365.4,320.8c-2.1,1.7-4.8,1.9-7.3,2.1c-4.1,0.3-8,1.3-12.1,1.3c-2.5,0-5,0.6-7.5,0.6
				c-6.7,0.1-13.3,1.1-20,0.5c-3.6-0.3-7.2-1-10.8-0.6c-4.4,0.4-8.8,0.1-13.1-0.5c-9.5-1.1-19-0.8-28.4-2.3
				c-1.4-0.2-2.9-0.1-4.4-0.2c-8.1-0.2-16.2-1.5-24.3-2.3c-8.2-0.8-16.1-2.8-24.2-3.9c-0.4-0.1-0.8-0.3-1.4-0.5
				c2.3-0.5,6.1-0.3,9.5,0.4c7,1.5,14.2,2.4,21.3,3.2c4.3,0.5,8.7,1.1,13,1.3c1.8,0.1,3.6,0.4,5.4,0.5c8.3,0.3,16.6,1,24.8,1.7
				c8.7,0.7,17.4,0.8,26,1.4c4.5,0.3,9.1,0.8,13.6,0.6c7-0.3,14.1-0.8,21.1-1.3C353,322.3,359.2,321.7,365.4,320.8"/>
			<path id="Fill-280" class="st58" d="M215.7,39.7c-6.5,0.4-13.7-1-21-0.9c-5.9,0.1-11.8,0.5-17.7,0.9c-2.4,0.2-4.8,0-7.2-0.1
				c-4.2-0.1-8.3,0.3-12.4,0.9c-0.9,0.1-1.5,0-2-0.6c-0.7-0.8-0.8-1.3,0.4-1.5c2.9-0.4,5.7-1.1,8.6-1.1c3.4-0.1,6.7-0.4,10.1-0.4
				c17.3-0.2,34.5,0.6,51.8,0.6c7.5,0,15.2-0.4,22.4-3.3c0.5-0.2,1.2-0.4,1.5,0.1c0.4,0.8-0.5,1-1,1.2c-5.2,2.6-10.5,4.4-16.5,4.2
				C227.3,39.6,221.9,39.9,215.7,39.7"/>
			<path id="Fill-282" class="st58" d="M63.3,280c4.7,0,9.2-0.9,13.7,0c2.9,0.6,6,0.4,8.9,0.8c7.3,0.8,14.6,1.7,21.8,3.1
				c6.7,1.3,13.4,2.3,20.1,3.5c8.4,1.5,16.9,1.6,25.3,3.3c0.7,0.1,1.4,0.1,2.1,0.1c9.7,0.2,19.4,0.4,29.1,0.6
				c7.4,0.2,14.9-0.4,22.3-1c2.8-0.2,5.5-1.8,8.3-2.7c0.8-0.2,1.5-0.7,2.4-0.6c0.2,0.4-0.1,0.6-0.3,0.7c-5.8,2.8-11.9,4.1-18.4,4.4
				c-8.5,0.4-16.9,0.1-25.3,0.4c-6.7,0.2-13.3,0.1-19.9-0.7c-8.3-1-16.6-1.6-24.8-3.1c-10.3-1.9-20.6-3.8-31-5.3
				c-6.3-0.9-12.6-1.5-19-2c-4.7-0.4-9.4-0.5-14-0.7C64.3,280.8,63.8,280.9,63.3,280"/>
			<path id="Fill-284" class="st58" d="M99.1,117.4c2.3-1.3,4.8-1,7.2-1.2c6.3-0.6,12.5-0.7,18.8-1.1c4-0.3,8.1-0.6,12.1-1.2
				c4.3-0.6,8.5-0.6,12.8-0.9c6.1-0.4,12.3-0.4,18.5-0.1c10.3,0.6,20.5,1.9,30.1,6.1c0.6,0.3,1.8,0.2,1.4,1.4
				c-0.3,0.8-1.1,0.4-1.8,0.3c-6.8-0.8-13.2-3.5-19.9-4.5c-2.5-0.4-5-0.9-7.5-0.9c-7.5-0.1-14.9-0.5-22.4,0
				c-8.4,0.5-16.8,1.3-25.2,1.7c-6.7,0.3-13.3,0.9-19.9,1.8C101.7,118.8,100.5,117.4,99.1,117.4"/>
			<path id="Fill-286" class="st58" d="M11.9,58c2.4-2,5.3-1.9,8.1-2.2c5.9-0.6,11.9-1.2,17.8-1.4c8.2-0.2,16.4-0.9,24.6,0.4
				c1.2,0.2,2.5,0.1,3.7,0.1c9.9-0.1,19.7,1.3,29.6,2.1c6.6,0.5,13.3,1.1,19.9,1.8c12.7,1.4,25.4,2.4,37.9,5.3
				c3.3,0.8,6.6,1.1,9.9,1.7c0.8,0.1,1.5,0.4,2.2,0.9c-2,0-4,0.1-6-0.2c-6.1-1-12.2-2.1-18.3-3.3c-5.3-1-10.8-1.4-16.2-2
				c-7.4-0.8-14.8-1.6-22.2-2.3c-3.2-0.3-6.4-0.3-9.6-0.7c-10.1-1.2-20.3-1.8-30.5-2.3c-5.8-0.3-11.7-0.7-17.5-0.6
				c-6.9,0.2-13.8,0.5-20.6,1.2C20.5,57.1,16.2,57.4,11.9,58"/>
			<path id="Fill-288" class="st58" d="M277.2,263c-2.4,1.6-5,1.2-7.4,1.4c-10.4,0.8-20.7,1.7-31.1,3c-5.4,0.7-10.8,0.9-16.3,1.3
				c-5.1,0.3-10.3,0.1-15.4,0.3c-5.3,0.2-10.7-0.7-16-1.7c-4.6-0.8-9.1-2.1-13.5-3.8c-0.6-0.3-1.6-0.3-1.2-1.3
				c0.3-0.8,1.1-0.5,1.8-0.4c8.1,1.1,15.8,3.7,23.8,4.8c3.3,0.4,6.6,0.6,9.9,0.1c0.8-0.1,1.7-0.1,2.5-0.1c7.4,0.2,14.7-0.3,22-1.2
				c4-0.5,8.1-0.7,12.1-0.8c4.8-0.2,9.6-0.6,14.4-1.3c3.4-0.5,6.8-0.9,10.2-1.3C274.7,261.8,275.6,263.5,277.2,263"/>
			<path id="Fill-290" class="st58" d="M313.3,104.1c-0.9,1-1.7,0.7-2.4,0.7c-11.3,0.1-22.5-1.6-33.6-3.4
				c-10.2-1.7-20.2-4.1-30.4-5.8c-7-1.1-14.1-1.9-21.2-2.9c-14.8-2-29.7-1.5-44.5-1.8c-6.5-0.1-13.2,0.3-19.4,3
				c-0.7,0.3-1.4,0.4-2.1,0.6c-0.4-0.3-0.2-0.6-0.1-0.6c4.3-1.8,8.7-3.3,13.5-3.7c5.7-0.6,11.5-0.9,17.2-0.6c9,0.4,18,0.1,27,0.8
				c10.4,0.9,20.6,2.5,30.9,4.2c9,1.5,17.8,3.6,26.8,5.2c5.3,0.9,10.6,1.5,15.9,2.3C298.2,103.1,305.7,102.9,313.3,104.1"/>
			<path id="Fill-292" class="st58" d="M268.7,114.1c2.4-1,4.5-0.4,6.5-0.7c2.1-0.4,4.3-0.4,6.4-0.4c8.5,0.2,16.8-1.1,25-2.9
				c9.1-2,18.2-4.1,27.3-6.2c5.4-1.3,10.8-0.6,16.2,0.1c3,0.4,6.1,0.7,9.1,1c1.6,0.1,3,0.5,4.5,1c0.4,0.1,1,0.3,0.8,0.9
				c-0.2,0.7-0.7,0.3-1.1,0.2c-6.3-1.3-12.6-0.9-18.9-0.7c-9.1,0.3-17.7,2.7-26.5,4.2c-7.9,1.4-16,2.4-24,3.3
				c-6.6,0.7-13.3,0.4-19.9,1.3C272.5,115.2,270.8,115,268.7,114.1"/>
			<path id="Fill-294" class="st58" d="M107.1,269.8c-2.1,0.7-4.3,0.6-6.4,0.7c-8.7,0.4-17.4,1.2-26,2.8c-5.4,1-10.7,2.5-16.1,3.8
				c-6.8,1.6-13.5,3.5-20.3,4.8c-3.8,0.8-7.7,0.1-11.5-0.6c-3.2-0.6-6.4-0.4-9.7-0.6c-1.9-0.2-3.9-0.3-5.6-1.6
				c0.6-1.1,1.4-0.4,1.9-0.3c6.1,1,12.2,0.6,18.3,0c3-0.3,5.9-0.5,8.9-0.7c3.2-0.3,6.3-1,9.2-2c7.5-2.4,15.4-2.8,23-4.4
				c7.2-1.5,14.4-1.6,21.7-2.4c2.5-0.3,5.1,0,7.6-0.6C103.9,268.4,105.6,268.8,107.1,269.8"/>
			<path id="Fill-296" class="st58" d="M210.9,325.5c1.9-0.2,3.8-0.6,5.6-0.5c17.4,0.3,34.9,0.7,52.3,1.2c3,0.1,6,0.8,8.9,0.5
				c4.6-0.5,9.2,0.2,13.8,0.4c8.7,0.4,17.4,0.7,26,1.6c6.4,0.6,12.8,0.3,19.1,0.8c3.9,0.3,7.6,1.1,11.5,2.3c-0.9,1-1.9,0.7-2.7,0.5
				c-4-1.1-8.1-1.6-12.3-1.5c-7.1,0.2-14.2-0.5-21.2-1c-12.8-0.9-25.7-1.5-38.5-1.6c-4.4,0-8.7-1-13.1-0.8c-7.5,0.4-15-0.6-22.6-0.5
				c-2.8,0-5.5,0.7-8.3,0.3c-6.2-0.9-12.4-0.5-18.6-0.9C210.9,325.9,210.9,325.7,210.9,325.5"/>
			<path id="Fill-298" class="st58" d="M166.9,56c-1.9,0.2-3.9,0.6-5.8,0.5c-13.1-0.5-26.2-0.9-39.3-1.4c-9.7-0.4-19.5-1.1-29.2-1.5
				c-8-0.4-16.1-1.1-24.1-1.9c-6.4-0.6-12.9-0.9-19.3-1.4c-6.2-0.5-12.6-0.4-18.6-2.6c-0.3-0.1-0.8,0-0.9-0.7c1.6-0.8,3.1,0,4.6,0.4
				c4.5,1.1,9.1,1.4,13.7,1.5c8.1,0.3,16.1,1.1,24.1,1.6c5.8,0.4,11.6,0.8,17.4,1.3c6.2,0.6,12.3,0.2,18.4,0.8
				c5.9,0.7,11.9,0.2,17.7,0.8c7.9,0.9,15.9,0.3,23.8,1c5.8,0.5,11.5,0.4,17.3,0.8C166.8,55.6,166.9,55.8,166.9,56"/>
			<path id="Fill-300" class="st58" d="M244.5,197.6c6.8,0.6,13,1,18.9,3.2c0.8,0.3,2.1,0.3,1.9,1.5c-0.2,1.2-1.5,1-2.3,0.9
				c-6.5-1-13.1-0.8-19.7-1.6c-4.3-0.5-8.9-0.2-13.3,0.1c-4.8,0.3-9.6,0.7-14.3,1.9c-1.3,0.3-2.5,0.6-3.8,1
				c-1.1,0.4-2.1-0.3-2.3-0.8c-0.4-0.8,0.7-1.2,1.4-1.5c4.6-2.3,9.7-2.9,14.7-3.5C232.1,198.1,238.6,198,244.5,197.6"/>
			<path id="Fill-302" class="st58" d="M97.6,148.6c-5.3,0.4-10.8,0-16.3-1.2c-0.4-0.1-0.9-0.2-1.3-0.3c-0.6-0.2-1.5-0.2-1.5-1.1
				c0-0.9,0.9-1.1,1.5-1.2c1.5-0.2,3-0.5,4.5-0.6c7.1-0.3,14.2-0.9,21.3-1.2c3.3-0.1,6.6,0,9.9,0.2c1,0.1,2.6,0.4,2.7,1.8
				c0.1,1.4-1.2,1.9-2.4,2.3c-2.5,0.9-5.2,1-7.7,1.1C104.8,148.4,101.3,149.2,97.6,148.6"/>
			<path id="Fill-304" class="st58" d="M297.5,234.1c-0.1,0.7-0.6,0.8-1.2,0.9c-1.5,0.3-3,0.7-4.5,0.7c-4.3,0-8.6,0.5-12.8,1.4
				c-0.4,0.1-0.8,0.2-1.1,0.2c-5.9-0.3-11.8,0.5-17.8,0.1c-1.2-0.1-2.4-0.1-2.7-1.6c-0.3-1.6,1-2.1,2.2-2.5c2.5-1.1,5.3-0.9,7.9-1.2
				c2.8-0.4,5.7-0.5,8.5-0.3c3.6,0.2,7.1-0.6,10.6-0.3c3.2,0.3,6.4,0.7,9.5,1.6C296.7,233.3,297.4,233.3,297.5,234.1"/>
			<path id="Fill-306" class="st58" d="M286.4,279c-2.9,0.9-5.8,1.4-8.7,0.8c-4.9-1-9.8-0.2-14.7,0c-5.2,0.3-10.3,1.1-15.5,1.3
				c-5.9,0.3-11.7,0.9-17.6,1.4c-0.2,0-0.5,0.1-0.7,0c-9.5-0.4-19.1,1-28.6,0.2c-11-0.8-22.1-0.2-32.6-3.8c1.1-0.7,1.4-0.6,5.5,0.2
				c4,0.8,8.2,1.9,12.2,1.8c5.8-0.2,11.5,0,17.3,0.1c9.6,0.1,19.2-0.1,28.8-0.6c9.2-0.4,18.5-0.6,27.7-1.8c4.4-0.6,8.9-0.9,13.3-0.6
				C277.4,278.5,281.9,278.5,286.4,279"/>
			<path id="Fill-308" class="st58" d="M89.8,101.2c3.1-1.2,6.3-0.8,9.5-0.4c3,0.4,5.9,0.6,8.9,0.2c2.5-0.3,5.1-0.2,7.6-0.3
				c9.2-0.4,18.3-1.3,27.5-1.5c3.7-0.1,7.4,0.1,11-0.1c7.2-0.5,14.5-0.3,21.7,0.1c11.1,0.6,22.1,1.3,33.1,4.3c-2,1.2-4,0.1-5.7-0.2
				c-6.7-1.4-13.5-2.2-20.3-2.2c-6.9,0-13.7-0.6-20.6-0.3c-6.6,0.2-13.2-0.2-19.8,0c-7.3,0.3-14.7,0.7-22,1
				c-5.3,0.2-10.6,0.2-15.8,0.9c-2.3,0.3-4.6-0.4-6.8-0.7C95.3,101.5,92.6,101.4,89.8,101.2"/>
			<path id="Fill-310" class="st58" d="M94.4,286.8c-4,2.5-8.4,2.9-12.8,3.2c-8.1,0.6-16.3,0.4-24.4,0.5c-8.5,0.1-17,0.2-25.6,0.4
				c-4.5,0.1-9.1-0.2-13.5,0.5c-2,0.3-3.8,1.2-5.5,2.3c-0.4,0.3-0.7,0.8-1.2,0.4c-0.4-0.3-0.3-0.8-0.3-1.3c0.1-1.8,1.4-2.5,2.9-2.9
				c3.1-1,6.5-1.3,9.7-1.6c5.5-0.5,11.1-0.5,16.6-0.1c2.8,0.2,5.5-0.5,8.3-0.2c8.2,0.8,16.4,0.7,24.7,0.9c6.9,0.2,13.6-0.4,20.3-2.2
				C93.8,286.7,94.1,286.8,94.4,286.8"/>
			<path id="Fill-312" class="st58" d="M281.8,96.7c3.2-0.9,6.2-1.7,9.2-2.1c9.4-1.3,18.9-0.1,28.3-0.4c8.9-0.3,17.9,0.4,26.8,0.2
				c4.5-0.1,9,0.6,13.4-0.5c1.8-0.4,3.3-1.1,4.8-2.2c0.4-0.3,0.8-0.6,1.2-0.4c0.6,0.3,0.1,0.8,0.1,1.2c-0.1,1.8-1.4,2.6-2.9,3.2
				c-2.6,0.9-5.4,1-8.2,1.2c-9.8,0.5-19.6,0.4-29.3-0.2c-8.1-0.5-16.1-1.1-24.2-1.4c-5.8-0.2-11.4,0.8-17.1,1.7
				C283.3,97.1,282.6,97.4,281.8,96.7"/>
			<path id="Fill-314" class="st58" d="M163.2,225.6c-2.7,1-5.5,1-8.3,1.2c-8.1,0.5-16.1,0.4-24.2,0.5c-5.1,0.1-10.2,1.1-15.3,1.3
				c-6.4,0.3-12.9,0.3-19.1-1.9c7.7-0.6,15.3-1.7,23-2.1c3.7-0.2,7.3-0.9,11-0.6c8.3,0.7,16.5,1.3,24.8,1.4
				C157.9,225.4,160.6,224.7,163.2,225.6"/>
			<path id="Fill-316" class="st58" d="M11.6,260.4c4.1,2.2,8,1.9,11.9,2c2.5,0.1,4.9,0.3,7.3,0.5c4.8,0.3,9.7-0.1,14.5-0.3
				c2.7-0.1,5.4-0.2,8.1,0.1c3.5,0.4,7,1.2,10.5,1c8.2-0.3,16.4-0.5,24.1-3.9c0.6-0.3,1.4-0.8,2.6-0.2c-3.3,2-6.6,3.2-10.1,4.1
				c-12,3.2-24.2,1.5-36.2,1.4c-10.2,0-20.5-1.2-30.7-1.1c-1.3,0-2.2-0.1-1.6-1.8C12.2,261.9,11.9,261.4,11.6,260.4"/>
			<path id="Fill-318" class="st58" d="M262.9,112.7c-1.3,1.6-3,1.1-4.5,1.2c-2.9,0.3-5.6,1.2-8.4,1.9c-6.8,1.7-13.8,2.1-20.8,1.5
				c-10-1-20-2.7-29.8-5.4c-4.2-1.1-8.6-1.8-12.6-4c12.5,2.6,24.8,5.8,37.6,6.1C237.3,114.3,250.1,114.3,262.9,112.7"/>
			<path id="Fill-320" class="st58" d="M126.5,27.6c2.8,0.2,5.6,0.2,8.4,0.7c3,0.6,5.9,0.6,8.9,0.9c7.2,0.7,14.3,1.7,21.5,2.3
				c3.3,0.3,6.6,0.6,9.9,0c1-0.2,2.2-0.1,3.2,0c11.7,0.7,23.2-1.1,34.7-3.1c7.5-1.4,15-3.2,22.6-3.9c2.3-0.2,4.6,0.2,6.9-0.4
				c0.5-0.1,1.1-0.1,1.4,0.6c-2.3,1.4-4.9,0.7-7.4,0.9c-6.1,0.5-11.9,2-17.9,3c-9.3,1.6-18.6,3.8-28.1,4.1c-2.8,0.1-5.7,0.1-8.5,0.2
				c-3.8,0.1-7.7,0.3-11.5,0.2c-7.4-0.2-14.6-1.2-21.9-2.2c-2.9-0.4-5.9-0.6-8.9-0.8c-4.4-0.4-8.9-0.7-13.3-1.8
				C126.5,28.1,126.5,27.9,126.5,27.6"/>
			<path id="Fill-322" class="st58" d="M124.9,309.2c-12,4.9-88.4,5.5-94.7,0.9c2.6-0.4,4.9-1.7,7.4-0.4c0.5,0.2,1,0.3,1.6,0.3
				c7.2-0.2,14.3,1,21.4,1c2.2,0,4.3,0.1,6.2,1.3c1,0.6,1.9-0.3,2.9-0.2c5.8,0.5,11.6,0.2,17.3-0.2c6.3-0.4,12.5-1,18.8-1.2
				c5.8-0.2,11.6-0.9,17.4-1.6C123.6,309,123.9,309.1,124.9,309.2"/>
			<path id="Fill-324" class="st58" d="M189.9,274.6c-12.9-2.7-25.3-5.6-38.1-5.8c-12.8-0.2-25.6,0.5-38.8,2.2
				c1.5-1.3,2.8-1.4,3.9-1.4c4.2-0.3,8.1-2.2,12.3-2.7c6.6-0.8,13.1-2.2,19.9-1c5,0.9,10.2,1.2,15.3,1.8c3.9,0.5,7.6,1.8,11.4,2.5
				c4.4,0.8,8.7,1.8,13,3C189,273.5,189.4,273.4,189.9,274.6"/>
			<path id="Fill-326" class="st58" d="M125.4,183.1c2.6-0.9,4.6,0.2,6.6,0.2c5,0.1,10,0.1,15,0.3c8.8,0.3,17.5,1.9,26.1,3.8
				c0.4,0.1,0.7,0.3,1.1,0.4c0.6,0.2,1.3,0.4,1.1,1.2c-0.2,0.7-0.9,0.8-1.5,0.7c-2.7-0.6-5.5-0.2-8.2-0.7c-3.3-0.6-6.7-0.7-10.1-0.9
				c-8.8-0.6-17.5-1.6-26.2-3C127.9,184.8,127,183.8,125.4,183.1"/>
			<path id="Fill-328" class="st58" d="M155.9,171.8c-5.5,0.3-10.8-0.7-16.2-1.8c-0.5-0.1-1-0.3-1.5-0.5c-0.4-0.1-1-0.2-0.8-0.8
				c0.2-0.5,0.6-0.8,1.3-0.7c1.4,0.3,2.9,0.4,4.3,0.7c7,1.8,14.1,0.9,21.1,1.4c12,0.9,24,1.5,35.7,4.4c1.6,0.4,3.2,0.5,4.8,0.8
				c0.6,0.1,1.5,0.4,1.2,1.4c-0.2,0.8-0.9,0.8-1.7,0.6c-6.1-1.6-12.4-1.8-18.6-2.6c-7-0.9-14-1.6-20.9-2.6
				C161.7,171.6,158.8,171.8,155.9,171.8"/>
			<path id="Fill-330" class="st58" d="M364.6,274.1c-2.7,1.2-5.7,1-8.5,1.5c-7.2,1.2-14.4,1.7-21.6,2.5c-8.8,0.9-17.4-0.4-26.2-0.2
				c-3.6,0.1-7.2-0.1-10.7-0.2c-0.6,0-1.6,0.3-1.5-0.8c0.1-0.8,1-0.6,1.5-0.6c6.2-0.2,12.5-0.8,18.6,0c8.5,1.2,16.8-0.8,25.2-0.6
				c4.4,0.1,8.8-0.9,13.1-2C357.8,272.7,361.2,274,364.6,274.1"/>
			<path id="Fill-332" class="st58" d="M11.5,104.8c2-1.5,4.1-1.1,6-1.3c8.4-0.9,16.8-1.9,25.3-2.4c8.8-0.5,17.4,0.6,26.2,1
				c3.4,0.2,6.8,0.2,10.2,0.2c0.6,0,1.4-0.6,1.5,0.3c0.2,1-0.7,1.2-1.6,1.2c-1,0-2,0-3-0.1c-5.2-0.1-10.5-0.1-15.7-0.4
				c-4.2-0.3-8.4-0.4-12.6-0.3c-9.4,0.2-18.7,0.7-27.9,2.5c-0.7,0.1-1.3,0.3-1.9-0.2c-0.9-0.8-2-0.6-3.1-0.4
				C13.4,105.2,13.4,105.2,11.5,104.8"/>
			<path id="Fill-334" class="st58" d="M314.2,159.5c1.4-0.3,2.7,0.2,4.1,0.6c2.9,0.8,5.5,2.4,8.4,3.2c1,0.3,2.2,1,1.9,2.2
				c-0.4,1.1-1.5,0.4-2.4,0.3c-7.2-0.9-14.3-1.4-21.5-0.3c-0.6,0.1-1.2,0.1-1.8,0.1c-0.5,0-1,0-1.1-0.6c-0.1-0.5,0.2-0.9,0.6-1.1
				C305.8,161.5,309.5,159,314.2,159.5"/>
			<path id="Fill-336" class="st58" d="M124.4,22.5c2.2-1.4,4.4-0.7,6.3-1.3c1-0.3,2.2-0.1,3.1-0.6c5.2-2.5,10.5-1.8,15.8-0.3
				c4.4,1.2,8.8,1.7,13.4,2.1c4.9,0.4,9.6,0.3,14.3-1.1c0.6-0.2,1.3-0.2,1.8,0.3c0.3,0.2,0.6,0.6,0.6,0.9c0,0.4-0.5,0.5-0.8,0.6
				c-4.3,1.1-8.5,1.8-13,0.8c-2.8-0.6-5.6-0.2-8.5-0.6c-5.1-0.8-10.4-1.2-15.6-1.4c-3.7-0.2-7.3,0.6-11,1
				C128.8,23.1,126.8,23.2,124.4,22.5"/>
			<path id="Fill-338" class="st58" d="M26.8,313.5c4.5,1.9,9.7,1.2,14.7,2.3c2.6,0.6,5.2,0.5,7.8,0.8c6.8,0.6,13.5,2.2,20.3,2
				c0.5,0,1.5-0.3,1.4,0.7c-0.1,0.7-0.9,0.7-1.5,0.7c-7.9,0.1-15.7-0.7-23.5-1.3c-6.3-0.5-12.4-1.7-18.5-3.1
				c-0.4-0.1-0.7-0.2-1.1-0.3c-0.7-0.2-1.5-0.5-1.3-1.3C25.1,313,26,313.7,26.8,313.5"/>
			<path id="Fill-340" class="st58" d="M19.1,229.4c4.8-0.1,8.9,0.8,12.9,2.4c2.9,1.1,6,0.4,8.9,1.3c1.5,0.5,3,0.7,4.5,1.1
				c0.5,0.1,1,0.2,1,0.8c0,0.5-0.5,0.9-0.9,0.9c-1.1,0.2-2.3,0.3-3.4,0.3c-4.9-0.1-9.5-1.5-14.2-2.4c-4.5-0.9-9-1.6-13.6-2.1
				c-0.5-0.1-1.2,0.2-1.4-0.4c-0.2-0.8,0.7-0.9,1.1-1.2C15.7,228.7,17.7,229.7,19.1,229.4"/>
			<path id="Fill-342" class="st58" d="M279.4,121.7c-0.6,1-1.6,1-2.4,1.3c-9.3,2.4-18.5,2.1-27.7-0.6c-2.3-0.7-4.7-0.8-7.1-0.4
				c-0.6,0.1-1.2,0.3-1.4-0.3c-0.4-0.9,0.6-1,1.1-1.2c3.3-1.3,6.7-0.5,10-0.4c5,0.3,10,1.6,15.1,1.6
				C271.1,121.9,275.2,122.8,279.4,121.7"/>
			<path id="Fill-344" class="st58" d="M96.2,262.3c2.3-1.7,4.5-1.6,6.5-2.1c6.9-1.9,13.8-1.2,20.7-0.1c3.7,0.6,7.2,2.1,11.1,1.2
				c0.4-0.1,0.8,0,0.9,0.5c0.1,0.5-0.2,0.7-0.6,0.8c-1.1,0.3-2.1,0.9-3.3,0.9c-8.5-0.1-17-1.4-25.5-1.7
				C102.8,261.6,99.9,262.1,96.2,262.3"/>
			<path id="Fill-346" class="st58" d="M337.1,190.5c-1.5,0-2.9,0-4.4-0.1c-0.7,0-1.8,0.2-1.9-0.8c-0.1-1.1,1-0.9,1.7-1
				c5.7-1.4,11.5-2.5,17.4-3.1c2.2-0.2,4.5,0,6.7,0c0.7,0,1.5,0,1.6,0.9c0.1,0.9-0.8,1.1-1.4,1.2c-4,0.9-7.9,1.8-11.9,2.7
				C342.3,190.7,339.7,190.6,337.1,190.5"/>
			<path id="Fill-348" class="st58" d="M235.9,104.9c-5.6-1.1-10.7-2.1-15.9-3.1c-0.5-0.1-1-0.1-1.1-0.7c0-0.6,0.5-0.6,1-0.8
				c5.4-2,10.7-1.1,15.8,0.9c1,0.4,2.1,1.3,1.7,2.7C237.1,104.8,236.3,104.9,235.9,104.9"/>
			<path id="Fill-350" class="st58" d="M142.1,278.3c4.6,0.9,9.3,1.7,13.9,2.6c0.6,0.1,1.4,0.2,1.4,0.9c0,0.9-0.9,0.5-1.4,0.7
				c-4.8,2.1-9.5,0.6-14.2-0.3c-0.2,0-0.4-0.2-0.6-0.3c-1.1-0.6-2.3-1.2-1.9-2.7C139.7,277.6,141.1,278.7,142.1,278.3"/>
			<path id="Fill-352" class="st58" d="M43.5,93.1c1-0.2,1.9-0.6,2.9-0.5c3.9,0.3,7.8-0.6,11.7-0.2c2.2,0.2,4.4-0.1,6.6-0.6
				c0.6-0.1,1.2-0.2,1.8-0.1c0.9,0.1,1.8,0.6,1.9,1.4c0.1,1.1-1.1,0.8-1.8,1c-5.1,1.1-10.3,1.5-15.5,0.6
				C48.7,94.1,46.1,94.4,43.5,93.1"/>
			<path id="Fill-354" class="st58" d="M320.2,284.6c4.1-0.1,7.9,0.9,11.7,0.7c0.5,0,1.2-0.2,1.3,0.6c0,0.7-0.6,0.8-1.2,0.8
				c-3.9,0.2-7.8,0.6-11.7,0.6c-2.9,0.1-5.8-0.1-8.7,0.7c-0.5,0.1-1.1,0.1-1.6,0c-0.8-0.2-1.8-0.6-1.8-1.5c0-0.9,1-0.7,1.7-0.8
				C313.5,285.1,316.9,284.2,320.2,284.6"/>
			<path id="Fill-356" class="st58" d="M345.7,244.4c-2.3,0.1-4.5,0-6.6-1c-0.8-0.4-1.4-0.7-1.2-1.6c0.1-1,0.8-1.3,1.7-1.2
				c4.9,0.8,9.9,0.5,14.9,0.8c0.4,0,0.9,0.3,1.3,0.4c0.4,0.2,0.9,0.4,0.9,0.9c0,0.7-0.6,0.8-1.1,0.9
				C352.1,243.9,348.9,244.8,345.7,244.4"/>
			<path id="Fill-358" class="st58" d="M29.4,134.7c2.8,0.1,5.1-0.1,7.2,0.9c0.8,0.4,1.6,0.6,1.5,1.7c-0.1,1.1-1,1.3-1.9,1.2
				c-4.9-0.9-9.9-0.2-14.8-1.4c-0.8-0.2-2.2-0.1-2-1.4c0.2-1.1,1.4-0.8,2.2-0.7C24.4,135.2,27.1,134.2,29.4,134.7"/>
			<path id="Fill-360" class="st58" d="M72.3,21.3c-4.2,0.8-8.4,0.1-12.6-0.4c-8.5-1-16.9-3-25.5-2.6c-2.7,0.1-5.3,0.6-7.9,1
				c-0.8,0.1-1.5,0.3-2.4-0.1c0.6-1.1,1.8-0.8,2.6-1c4-1,8.1-1.1,12.1-1.1c3.9,0,7.9,0.8,11.8,1.3c4.5,0.6,8.9,1.1,13.4,2
				C66.7,20.8,69.5,20.6,72.3,21.3"/>
			<path id="Fill-362" class="st58" d="M272.4,41.7c1.6-3,4.5-4.1,7.2-5.6c5.8-3.1,12.2-4.2,18.5-5.2c4.3-0.7,8.6-1.5,13-1.6
				c0.7,0,1.5-0.2,2.4,0.5C299.3,32.5,284.5,32.4,272.4,41.7"/>
			<path id="Fill-364" class="st58" d="M318.4,143.5c-2.1-0.4-3.9-0.7-5.8-0.8c-0.6,0-1.6-0.3-1.5-1.1c0-0.7,0.8-1,1.6-1.1
				c4.3-0.4,8.7-0.8,13.1-0.6c0.3,0,0.6,0,0.9,0.1c1,0.3,2.4,0.5,2.5,1.7c0.1,1.5-1.5,0.9-2.3,1.2C324,143.5,321,142.3,318.4,143.5"
				/>
			<path id="Fill-366" class="st58" d="M52,245.1c-1.6-0.2-3.3,0.1-4.7-1c-0.4-0.3-0.8-0.5-0.8-1c0.1-0.6,0.5-0.9,1.1-1
				c5.1-0.5,10.2-0.8,15.3-0.1c0.7,0.1,1.7,0.3,1.7,1.2c0,0.7-1,0.9-1.7,1C59.3,244.5,55.7,244.8,52,245.1"/>
			<path id="Fill-368" class="st58" d="M280,200.4c2.5-0.1,4.8,0.7,7.3,0.7c2.8-0.1,5.5,0.1,8.2-0.7c0.3-0.1,0.6-0.1,0.9-0.1
				c1.1,0.1,2.8-0.3,2.9,1.1c0,1.5-1.7,1-2.7,1.2c-3,0.5-6.1,0.2-9.1,0.6c-3.2,0.5-6.4-0.5-9.6-0.8c-0.6,0-1.8-0.1-1.6-1.2
				c0.2-1,1.1-0.9,1.9-0.9C278.8,200.3,279.4,200.4,280,200.4"/>
			<path id="Fill-370" class="st58" d="M130.2,277.8c-7.6,2.5-14.8,1.6-21.8-1.8c-0.8-0.4-1.7-0.6-2.6-0.9c-0.5-0.2-1.4-0.3-1.2-1.1
				c0.3-0.9,1-0.3,1.5-0.2c1.2,0.3,2.4,0.7,3.5,1c5.9,1.9,11.9,2.2,18,2.3C128.4,277.2,129.4,276.8,130.2,277.8"/>
			<path id="Fill-372" class="st58" d="M246.1,105.6c7.6-2.6,14.7-1.4,21.6,2c1,0.5,2.1,0.8,3.2,1.3c0.4,0.2,1.2,0.4,0.8,1.1
				c-0.3,0.5-0.8,0.2-1.2,0.1c-2.9-0.9-5.8-1.9-8.8-2.6c-4.3-1.1-8.6-1.2-13-1.3C247.8,106.1,246.9,106.4,246.1,105.6"/>
			<path id="Fill-374" class="st58" d="M314.4,261.7c-2,0.4-3.9-0.6-5.9-0.5c-0.6,0-1.4,0.1-1.4-0.7c0-0.6,0.7-0.8,1.2-0.9
				c2.2-0.5,4.3-1.3,6.7-1c2.2,0.3,4.4,0.1,6.7,0.2c0.8,0,1.6,0.2,1.7,1.2c0.1,1.1-0.8,1.6-1.6,1.5
				C319.3,261.3,316.9,262.2,314.4,261.7"/>
			<path id="Fill-376" class="st58" d="M59.9,121c-2.2,0-3.8-0.1-5.5-0.1c-1.1,0-1.4-0.5-1.6-1.5c-0.2-1.2,0.9-1.1,1.3-1.1
				c3.6,0,7.1-1.1,10.7-0.1c0.8,0.2,1.7,0.1,2.5,0.2c0.6,0.1,1.4-0.2,1.6,0.6c0.2,0.9-0.8,1-1.4,1.2C64.9,121.3,62.1,121.2,59.9,121
				"/>
			<path id="Fill-378" class="st59" d="M70.7,335c-1.4,2.2-3.6,2.9-5.8,3.2c-7,1.1-14.2,0.7-21.1,2.7c-1.9,0.5-4.1,0-6.2-0.4
				c3.6-0.6,7.2-1,10.8-1.7c5.4-1.2,11-0.3,16.4-1.9C66.7,336.3,68.7,335.6,70.7,335"/>
			<path id="Fill-380" class="st58" d="M306.8,49.2c0.2-1.2,1.1-1.4,1.7-1.6c10.4-2.5,21-2.4,31.6-3.5
				C329.2,46.8,317.8,45.9,306.8,49.2"/>
			<path id="Fill-382" class="st58" d="M237,31.9c-0.9,0-2.5-1.1-4.2-0.3c-0.5,0.2-0.9-0.2-0.9-0.7c0-0.6,0.4-0.8,0.9-0.9
				c3.4-0.4,6.8-0.9,10.2-1.2c1-0.1,2.2,0.2,2.4,1.4c0.1,1.1-1.2,1.1-1.9,1.2C241.6,31.6,239.7,31.7,237,31.9"/>
			<path id="Fill-384" class="st58" d="M289.8,286.7c-2-0.1-3.9-0.7-5.7-1.5c-0.5-0.2-1-0.6-0.8-1.2c0.2-0.5,0.7-0.8,1.1-0.6
				c2.3,0.7,4.7,0.1,7,1c0.7,0.3,1.9,0.3,1.7,1.4c-0.2,0.9-1.3,0.9-2.1,0.9C290.6,286.7,290.2,286.7,289.8,286.7"/>
			<path id="Fill-386" class="st58" d="M86.7,93.3c2,0.2,3.9,0.8,5.7,1.6c0.4,0.2,1.2,0.3,1,1c-0.1,0.8-0.9,0.8-1.5,0.7
				c-2.5-0.3-5-0.4-7.4-1.3c-0.5-0.2-1.3-0.3-1.2-1.1c0.1-0.6,0.8-0.7,1.3-0.8C85.4,93.4,86.1,93.4,86.7,93.3"/>
			<g id="Group-390" transform="translate(0.022099, 0.000000)">
				<g id="Clip-389">
				</g>
				<defs>
					
						<filter id="Adobe_OpacityMaskFilter_00000082356204638774630470000001552842055402766259_" filterUnits="userSpaceOnUse" x="0" y="0" width="381" height="344.7">
						<feColorMatrix  type="matrix" values="1 0 0 0 0  0 1 0 0 0  0 0 1 0 0  0 0 0 1 0"/>
					</filter>
				</defs>
				
					<mask maskUnits="userSpaceOnUse" x="0" y="0" width="381" height="344.7" id="mask-4_00000136379047222419965460000015510719198238217867_">
					<g style="filter:url(#Adobe_OpacityMaskFilter_00000082356204638774630470000001552842055402766259_);">
						<polygon id="path-3_00000039119019856990312550000013929099861113187006_" class="st53" points="0,0 381,0 381,344.7 0,344.7 
													"/>
					</g>
				</mask>
				<path id="Fill-388" class="st61" d="M367.7,338.4c-4.3,0.5-8.6,0.9-12.9,0.8c-15-0.2-30,0.3-45.1,0.5
					c-13.3,0.2-26.5-0.9-39.8-0.4c-8,0.3-16-0.1-24-0.1c-17.3-0.1-34.5-0.3-51.8,0.9c-7.1,0.5-14.2,0.5-21.3,0.6
					c-10.8,0.1-21.6,0.7-32.3,0.5c-9.2-0.1-18.5,0.3-27.7,0.5c-9.4,0.1-18.8,0.2-28.2,0.2c-4.2-0.1-8.4,0.5-12.7,0.2
					c-7.4,0.4-14.8,0.9-22.1,0.8c-11.7-0.2-23.4-0.4-35.1-0.8C8,341.8,9,342.8,9,335.9c0.1-1.5,0.6-3.1,0.5-4.6
					c0.1-2.5,0.8-4.9,0.6-7.4c-0.5-5.2-0.6-10.5-0.5-15.7c0.1-4.5-0.1-9.1-0.5-13.6c-0.4-5.8-0.8-11.7-1.1-17.5
					c-0.4-6.5-0.7-13.1-1.1-19.6c-0.5-7.7-0.7-15.4-1.1-23.1c-0.4-7.8-0.6-15.7-1.1-23.5c-0.4-1.2-0.3-2.4-0.2-3.7c0-2,0.1-4,0.1-6
					c-0.1-2.6-0.1-2.6,2.6-2.9c9.9-1,20-0.1,29.9-1.7c1.1-0.1,2.2-0.4,3.4-0.4c4,0,7.9-0.8,11.9-0.7c0.9,0,2.2,0,1.8-1.6
					c-2-1.2-4.2-0.5-6.3-0.8c-8.8-1.1-17.6-1.7-26.4-2.8c-5.1-0.6-10.3-1-15.4-1.7c-1.4-0.2-2-0.8-2-2.3c0-1.5,0.1-2.9,0.1-4.4
					c0-0.7,0.1-1.4,0-2.1c-0.5-2.5-0.2-5.1-0.2-7.6c0-0.8,0-1.6,0-2.4c0-0.3-0.1-0.5-0.1-0.8c-0.4-1.6,0-3.2-0.1-4.7
					c0.4-2.9-0.2-5.7-0.2-8.5c0.1-8.7-0.5-17.4-0.5-26.1c0-2.7,0.1-5.4,0-8.1c-0.4-7.8-0.9-15.5-1.1-23.3c0.4-3.7-0.3-7.5,0.6-11.1
					c0.5-3.3,0.3-6.7,0.4-10c0.2-3.1-0.2-6.3,0.5-9.4C3.7,62,3.5,56.2,3.7,50.3c0.1-3.4,0.4-3.7,3.7-4.5c3.6-0.8,7.2-0.9,10.8-1.1
					c8.5-0.5,16.9-2.9,25.5-2.6c0.5,0,0.9-0.1,1.4-0.3c0.6-0.3,1.4-0.4,1.3-1.3c-0.1-0.8-0.8-0.8-1.4-1c-0.3-0.1-0.6-0.1-0.9-0.1
					c-4.6-0.2-9.2-0.5-13.8-1.1c-7.5-0.9-15-2-22.4-3.3c-2.9-0.5-3.1-0.7-2.6-3.6c1-5.9,2.2-11.8,2-17.9c0-1.1,0.3-2.1,0.4-3.2
					C7.9,9.1,8.7,8.6,10,8.6c2.6,0.1,5.2,0,7.8,0.3c6.3,0.9,12.6,1.3,18.9,1.6c5.8,0.3,11.7,0.2,17.6,0c7.8-0.3,15.7,0.3,23.6,0.1
					c8.1-0.2,16.1,0.5,24.2,1.1c0,0,9.5,1.1,15.9,1.2c6.5,0.1,11.1-0.1,11.1-0.1l0,0c0.7,0,1.4,0,2,0c14.4,0.1,28.8,1,43.2,0.6
					c8.3-0.2,16.6-0.3,24.9-0.4c8.8-0.1,17.5,0.1,26.3-0.4c6.6-0.4,13.2-0.2,19.8-0.7l19.9-0.4c0.9,0.2,1.8,0.3,2.7,0.3
					c5.7,0.4,11.4-0.5,17.1-0.1c13.6,0.1,27.3,0.9,40.9,0.5c8.6-0.3,17.2-0.7,25.8-1.1c5.6-0.3,11.2-1,16.8-0.8
					c2.4,0.1,2.7,0.4,2.6,2.8c-0.2,4.5,0.1,8.9,0.2,13.4c0.2,7.1-0.8,14.1-1.8,21.2c-0.4,2.3-0.5,4.6-0.8,7
					c-0.3,1.4-0.3,2.8-0.3,4.1c0,0.9-0.1,1.7-0.9,2.3c-1.7,1.3-3.1,3-5.1,3.9c-3.5,1.6-6.8,3.6-10.2,5.4c-0.6,0.3-1.1,0.7-1.7,1
					c-1.6,0.9-3.1,1.8-4.7,2.7c-1.2,0.8-2.4,1.4-3.7,2.1c-4.9,2.8-9.7,6.1-15.6,6.2c-0.3,0.1-0.6,0.2-0.9,0.3
					c-0.7,0.3-1.6,0.6-1.3,1.6c0.3,0.9,1.2,0.7,2,0.6c1.1-0.1,2.1-0.6,3.1-0.5c4.3-0.8,8.5-1.4,12.9-1c6.8,0.6,13.6,1.5,20.4,2.7
					c2.9,0.5,3.1,0.7,3.1,3.5c0,1.5,0.1,2.9-0.1,4.4c-0.9,8.7-1.4,17.3-1.5,26c0.2,1.7-0.3,3.3-0.5,5c-0.3,9.5-1.3,18.9-1.1,28.4
					c0,0.4-0.1,0.8,0,1.2c0.1,3.8-0.3,7.5,0,11.3c0.1,1.5-0.8,2.2-2,2.8c-2.6,1.1-5.2,2.2-7.8,3.4c-1.1,0.4-2.1,1-3.3,1.4
					c-6.7,2-13.5,3.8-20.2,5.9c-2.3,0.8-4.7,1.6-7.1,2.1c-1.7,0.4-3.6,0.9-4.6,2.7c0.4,1,1.2,0.7,2,0.5c7.4-1.7,14.5-4.1,21.7-6.3
					c1.7-0.5,3.4-1,5.2-1.1c1-0.3,2-0.4,2.9-0.6c3.5-0.6,6.9-1.6,10.4-2c2.2-0.2,2.7,0.2,2.6,2.3c-0.2,3.4,0.5,6.8,0.3,10.2
					c-0.4,9.2,0.5,18.3,1,27.4c0.4,1.6,0.1,3.3,0.2,5c-0.1,1.2,0.3,2.4,0.3,3.7c0.1,12.4,0.1,24.8,0.5,37.1c0.3,8.3,1,16.6,1.1,24.9
					c0.3,1.5,0.2,3,0.3,4.5c0.4,5.4,0.9,10.8,1.5,16.1c0,1,0.4,1.9,0.4,2.9c0,0.9,0.2,1.7,0.2,2.5c0.8,8.1,1.6,16.1,2,24.2
					C370.2,337.4,369.6,338.2,367.7,338.4 M380.9,324.8c-0.4-1.9-0.4-4-0.4-6c0.2-13.3,0.5-26.6,0.1-40c-0.2-7.7-0.7-15.4-0.6-23.1
					c0-4.1-0.4-8.1-0.8-12.2c-0.5-5.6-1.3-11.2-1.8-16.9c-0.5-5.7-0.6-11.5-1.1-17.2c-0.7-8-0.9-15.9-1.2-23.9
					c-0.2-6.7,0.3-13.4,0.7-20.1c0.1-2-0.8-2.2-2.3-1.8c-1.9,0.5-3.8,1.1-5.8,1.7c2.1-2.6,4.3-5,6.9-7c1.2-1,1.4-1.9,1.5-3.2
					c0.6-14.4,0.2-28.8,1.4-43.2c0.6-7.7,1-15.4,1-23.1c0-2.9,0-5.9,0.3-8.8c0.1-1.1,0.2-1.4-1-1.5c-6-0.7-12-1.4-18.1-1.9
					c-4-0.3-8-0.7-12.1-0.9c1.4-1.1,2.9-2,4.4-2.8c7.2-4.1,14.9-7.6,20.7-13.9c1.9-2,3.8-4,6.1-5.6c0.6-0.4,0.5-1,0.6-1.6
					c0.4-5.1,0.9-10.3,1.2-15.4c0.6-10.2,0.4-20.3-0.4-30.5c-0.1-1,1-3.6-1.8-3.7c-3.3-0.2-6.6-0.7-9.9-0.7c-7.3,0-14.6-0.4-22-0.1
					c-8.7,0.3-17.4-0.2-26.1-0.2c-10.5,0-21,1.1-31.5,1.9c-10.1,0.8-20.2,1.2-30.4,1.5c0,0-13.3-0.1-13.9-0.4c-1.5,0-3.1,0-4.6,0
					c-9.3-0.2-18.6-0.6-28-0.5c-11.4,0.1-22.7,0.9-34.1,0.9c-13.9,0-27.7-0.8-41.5-1.3c-4.3-0.2-12.9,0.1-17.2,0.1
					c-22-0.2-44-0.2-66-1.4C49.2,1.7,45,1.6,40.9,1c-7.7-1.2-15.4-1.1-23.2-0.8c-0.6,0-1,0.3-1.2,0.9l0,0.1c1,0.9,2.3,0.7,3.5,0.8
					C27,2.3,33.8,2.2,40.7,2.7c12.7,1,25.4,1.7,38.1,1.9c12.8,0.2,25.6-0.3,38.4,0.3c0,0,14.6-0.4,19.5-0.3c5.7,0.1,11.4,0.4,17,0.7
					c8.3,0.4,16.6,0.8,24.9,0.3c6.2-0.4,12.4-0.5,18.6-0.5c7.3,0,14.6-0.4,21.9-0.1c0,0,32.9,1.4,43.9,1.3
					c7.2-0.1,28.7-1.6,28.7-1.6C301.5,4,311.3,3.1,321,3c9.2-0.2,18.5,0.4,27.7,0.2c8.5-0.2,17,0.3,25.4,0.5c0.8,0,1.7-0.2,2.5,0.6
					c-2,2.3-4.1,4.1-7.4,3.8c-4.9-0.4-9.9-0.1-14.8,0.3c-9.7,0.8-19.4,1.3-29.1,1.4c-10.4,0.1-20.8,0.4-31.2-0.1
					c-7.2-0.3-14.5-0.3-21.7-0.5c-2.1-0.1-4.2,0.2-6.2,0.4l-15.7,0.8c-0.8,0.1-1.5,0.4-2.3,0.3c-4.9-0.1-9.8,0.4-14.7,0.6
					c-8.8,0.4-17.6,0.8-26.4,0.8c-9.7,0-19.3,0-29,0.3c-7.8,0.2-15.7-0.2-23.5,0c-9,0.1-18-0.3-27-1c-0.3,0-10.1-1.1-14.9-1.3
					C107.9,10,100.8,9,100.8,9l0,0c-2.9-0.2-5.7-0.2-8.6-0.3C81.7,8.3,71.1,7.9,60.6,8.2C49.9,8.4,39.3,7.9,28.7,7.6
					c-6-0.2-11.9-1.5-18.4-1.2c1.6-0.9,2.8-1.5,3.8-2.2c1-0.7,2.4-1.1,2.7-2.6c-0.1-0.1-0.1-0.3-0.2-0.4c-2.7,0.7-4.9,2.4-7.4,3.5
					C6.7,5.7,5.7,7.5,5.8,9.9C6,18.4,4.4,26.7,2.9,35c-0.2,0.9-0.1,1.4,1.2,1.6c4.3,0.6,8.5,1.4,12.8,2.2c-2,0.4-4,0.5-5.9,0.3
					c-3.8-0.4-5.7,2.5-8.2,4.4c-1.9,1.4-0.5,2.8-0.6,4.2C1,61,1.3,74.3,0.4,87.6c-0.6,9-0.6,18.1,0.2,27.2
					c0.5,6.3,0.4,12.6,0.5,18.9c0.2,11.5,0.4,23.1,0.7,34.6c0.1,5.5,0.1,11.1,0.2,16.6c0,1.8,0.3,3.7,0.4,5.6
					c2.4-0.8,4.4,0.5,7.1,0.1c-1.7,1.7-3,2.9-4.5,3.8c-1.2,0.8-2.9,1.9-2.8,3.2c0.4,3.2,0.1,6.4,0.2,9.6c0.2,6.8,1.3,13.5,1.4,20.2
					c0,3.2,0.1,6.5,0.3,9.7c0.3,8.3,0.8,16.6,1.2,24.8c0.2,4.4,0.4,8.9,0.7,13.3c0.5,7.6,1.3,15.3,1.7,22.9
					c0.4,7.5,0.1,14.9,0.4,22.4c0.4,7-0.7,14-1.2,20.9c-0.1,1.7,0.3,1.9,1.8,1.9c7.2,0.1,14.5,0.2,21.7,0.5c9.3,0.5,18.7,0.9,28,0.4
					c10.3-0.5,20.6-0.6,30.9-1c5.6-0.2,11.2,0.2,16.8,0c7.3-0.3,14.6-0.5,21.9-0.5c15.8,0.1,31.6-0.5,47.4-0.6c4,0,8,0.1,12-0.2
					c10-0.7,19.9-1.4,29.9-1.4c14.6,0,29.1-0.1,43.7,0c24.6,0.2,49.2,0.9,73.8,0.2c10.8-0.3,21.5,0.3,32.3-0.7
					c3.4-0.3,6.2-0.9,7.8-4.5c1.3-2.7,3.3-5.2,5-7.6C380.7,327.1,381.2,326.2,380.9,324.8"/>
			</g>
		</g>
	</g>
</g>
</svg>
