<?xml version="1.0" encoding="UTF-8"?>
<svg width="63px" height="36px" viewBox="0 0 63 36" version="1.1" xmlns="http://www.w3.org/2000/svg" xmlns:xlink="http://www.w3.org/1999/xlink">
    <title>Group 6</title>
    <defs>
        <polygon id="path-1" points="0 0 62.349 0 62.349 35.8376326 0 35.8376326"></polygon>
    </defs>
    <g id="Page-1" stroke="none" stroke-width="1" fill="none" fill-rule="evenodd">
        <g id="a" transform="translate(-682.000000, -453.000000)">
            <g id="Group-6" transform="translate(682.000000, 453.000000)">
                <g id="Group-3">
                    <mask id="mask-2" fill="white">
                        <use xlink:href="#path-1"></use>
                    </mask>
                    <g id="Clip-2"></g>
                    <path d="M2.0033,4.48173261 C2.7183,4.41673261 3.4503,4.55173261 4.1893,4.61073261 C5.4533,4.71273261 6.7153,4.84973261 7.9783,4.95973261 C8.9233,5.04173261 9.8373,5.31073261 10.7893,5.37973261 C11.3913,5.42373261 11.9743,5.49473261 12.5703,5.36673261 C12.6953,5.33973261 12.9023,5.30873261 12.9023,5.52373261 C12.9033,5.65173261 12.7503,5.70273261 12.6193,5.71373261 C12.5373,5.72073261 12.4533,5.71473261 12.3713,5.72173261 C10.6123,5.88273261 8.9243,5.28173261 7.1673,5.27073261 C5.6543,5.26073261 4.1443,4.88073261 2.6173,5.11473261 C2.0733,5.19773261 1.7003,5.49573261 1.4893,6.04973261 C1.2843,6.58673261 1.4993,6.92373261 1.8533,7.24973261 C2.1463,7.51873261 2.2883,7.82973261 2.2583,8.24073261 C2.2283,8.65273261 2.2613,9.06973261 2.2543,9.48373261 C2.2493,9.82573261 2.0863,10.2747326 2.2463,10.4837326 C2.4573,10.7607326 2.8863,10.4327326 3.2353,10.4377326 C4.3343,10.4557326 5.4543,10.6807326 6.5213,10.2097326 C6.5533,10.1957326 6.6133,10.2477326 6.6763,10.2767326 C6.5183,10.5047326 6.2923,10.5447326 6.0763,10.6007326 C4.7803,10.9387326 3.4803,11.2607326 2.1893,11.6187326 C1.5183,11.8047326 1.3453,12.0577326 1.5403,12.7147326 C1.9783,14.1897326 1.7383,15.6587326 1.5663,17.1247326 C1.5113,17.5917326 1.6733,17.5827326 1.9913,17.4857326 C2.4003,17.3617326 2.8163,17.4397326 3.2283,17.4247326 C3.4333,17.4177326 3.6303,17.4917326 3.6013,17.7317326 C3.5753,17.9517326 3.3633,17.9147326 3.1993,17.9077326 C2.6923,17.8887326 2.2203,18.0447326 1.7463,18.1897326 C1.4133,18.2917326 1.2553,18.4887326 1.2483,18.8697326 C1.2373,19.4447326 1.1813,20.0247326 1.0743,20.5897326 C1.0013,20.9747326 1.0843,20.9507326 1.4313,20.9407326 C3.4803,20.8837326 5.5373,20.7927326 7.5763,21.0657326 C9.2163,21.2847326 10.8333,21.0157326 12.4593,20.9567326 C13.2153,20.9287326 13.9723,20.9407326 14.8433,20.7287326 C14.5613,21.1497326 14.2733,21.0357326 14.0493,21.0827326 C12.0953,21.4957326 10.1443,21.9397326 8.1723,22.2557326 C5.9133,22.6177326 3.6763,23.0847326 1.4303,23.5157326 C1.2773,23.5447326 1.1233,23.5687326 1.1353,23.7567326 C1.1613,24.1867326 0.9933,24.6687326 1.2253,25.0317326 C1.3873,25.2857326 1.8083,25.0937326 2.1103,25.1327326 C2.1303,25.1347326 2.1513,25.1317326 2.1723,25.1327326 C2.4163,25.1467326 2.7503,25.1077326 2.7233,25.4597326 C2.6943,25.8377326 2.3943,25.7007326 2.1453,25.6587326 C1.3303,25.5227326 1.0093,25.7657326 0.8973,26.5877326 C0.8633,26.8327326 0.8953,27.0927326 0.8263,27.3247326 C0.7123,27.7037326 0.8903,27.7547326 1.1943,27.7477326 C1.5883,27.7397326 1.9833,27.7397326 2.3773,27.7527326 C2.5623,27.7587326 2.7853,27.7927326 2.8253,28.0017326 C2.8663,28.2087326 2.6363,28.2537326 2.4943,28.3087326 C1.9933,28.5037326 1.4863,28.6817326 0.9783,28.8577326 C0.8023,28.9197326 0.5573,28.9477326 0.5423,29.1497326 C0.4993,29.7257326 0.3673,30.3507326 0.5973,30.8657326 C0.7343,31.1747326 1.2853,30.9237326 1.6433,30.9877326 C1.8063,31.0157326 1.9723,31.0367326 2.1293,31.0857326 C2.4043,31.1717326 2.8963,30.9267326 2.9263,31.3277326 C2.9593,31.7597326 2.4173,31.7147326 2.1133,31.8267326 C1.6723,31.9897326 1.1843,32.0217326 0.8083,32.3527326 C0.6283,32.5117326 0.5963,32.7017326 0.6533,32.9157326 C0.7123,33.1347326 0.9073,33.0727326 1.0623,33.1057326 C1.8203,33.2647326 2.5903,33.1887326 3.3533,33.2357326 C5.9103,33.3907326 8.4683,33.5277326 11.0213,33.7307326 C12.1183,33.8187326 13.2143,33.8217326 14.3093,33.8707326 C16.1653,33.9537326 17.9873,34.4397326 19.8563,34.3417326 C20.9363,34.2847326 22.0033,34.5577326 23.0823,34.4527326 C24.9953,34.2657326 26.9073,34.0847326 28.8343,34.0817326 C30.2033,34.0797326 31.5623,34.2437326 32.9333,34.2277326 C34.7343,34.2067326 36.5193,33.9127326 38.3243,33.9587326 C39.6723,33.9927326 41.0233,33.9307326 42.3713,33.9767326 C43.8163,34.0257326 45.2653,34.0977326 46.7013,34.2577326 C48.3833,34.4457326 50.0603,34.6727326 51.7543,34.7117326 C52.2943,34.7237326 52.8403,34.6737326 53.3713,34.7417326 C55.3143,34.9907326 57.2703,35.1187326 59.2073,35.4257326 C60.0903,35.5657326 60.3893,35.2137326 60.2803,34.3277326 C60.2423,34.0227326 60.1853,33.7387326 60.2373,33.4137326 C60.3753,32.5507326 60.6973,31.7447326 60.9213,30.9097326 C61.1003,30.2457326 61.0483,30.1797326 60.3863,30.2957326 C59.9213,30.3777326 59.4433,30.4707326 58.9763,30.4477326 C57.1813,30.3627326 55.4263,29.9557326 53.6473,29.7357326 C52.6443,29.6107326 51.6563,29.3987326 50.6843,29.1177326 C50.5403,29.0757326 50.3743,29.0497326 50.3723,28.8747326 C50.3703,28.6587326 50.5523,28.6257326 50.7263,28.6197326 C50.8713,28.6147326 51.0173,28.6177326 51.1623,28.6167326 C52.7353,28.6037326 54.2863,28.9567326 55.8653,28.8697326 C57.2903,28.7917326 58.7253,28.9907326 60.1473,28.7467326 C60.3343,28.7147326 60.5013,28.7407326 60.5403,28.4697326 C60.6383,27.7777326 60.7663,27.0907326 60.8903,26.4037326 C60.9363,26.1487326 60.8843,25.9587326 60.6243,25.8487326 C60.2023,25.6707326 59.8653,25.4317326 59.8943,24.8927326 C59.9053,24.6967326 59.7043,24.6287326 59.5493,24.5807326 C59.1753,24.4657326 58.7993,24.3447326 58.4163,24.2717326 C56.0573,23.8207326 53.6703,23.7357326 51.2763,23.7737326 C50.0993,23.7917326 48.9333,23.9347326 47.7713,24.1067326 C47.4503,24.1547326 47.1713,24.0737326 47.1503,23.7757326 C47.1283,23.4667326 47.4683,23.5127326 47.6813,23.5217326 C48.4913,23.5537326 49.2843,23.3637326 50.0973,23.3777326 C50.9623,23.3937326 51.8323,23.3257326 52.6963,23.2517326 C54.4943,23.0987326 56.2903,23.0517326 58.0863,23.2627326 C58.7223,23.3377326 59.3563,23.4267326 60.0023,23.3977326 C60.3263,23.3837326 60.4273,23.2967326 60.3853,22.9517326 C60.2603,21.9127326 60.1643,20.8687326 60.2943,19.8207326 C60.4123,18.8767326 60.2823,18.7327326 59.3203,18.6617326 C59.0323,18.6397326 58.5293,18.8207326 58.5153,18.4677326 C58.5023,18.1597326 59.0423,18.1767326 59.3383,18.1857326 C59.7873,18.1997326 60.0523,18.0107326 60.0133,17.6047326 C59.9703,17.1497326 60.3713,16.5487326 59.6433,16.2667326 C58.5743,15.8517326 57.4733,16.1107326 56.3863,16.0907326 C56.2173,16.0877326 55.9813,16.2667326 55.9543,15.9647326 C55.9323,15.7337326 56.1613,15.6857326 56.3583,15.6817326 C56.6273,15.6767326 56.8973,15.6797326 57.1673,15.6777326 C57.8933,15.6737326 58.6213,15.6897326 59.3453,15.6537326 C59.5843,15.6417326 59.9093,15.6277326 59.9183,15.2297326 C59.9263,14.9047326 59.9263,14.6017326 59.5343,14.4837326 C59.3773,14.4357326 59.2293,14.3507326 59.0703,14.3087326 C57.0273,13.7647326 54.9733,13.3227326 52.8373,13.6487326 C52.6753,13.6737326 52.5043,13.7037326 52.3843,13.4987326 C52.9403,13.1837326 53.5473,13.0787326 54.1633,13.0707326 C55.6163,13.0537326 57.0693,13.0687326 58.5223,13.0647326 C59.1433,13.0627326 59.7043,12.9227326 60.0953,12.3737326 C60.3033,12.0817326 60.2763,12.0217326 59.9003,11.9237326 C59.2053,11.7437326 58.5433,11.9707326 57.8673,11.9457326 C57.7433,11.9417326 57.6003,11.9487326 57.5703,11.7897326 C57.5363,11.6147326 57.6523,11.4977326 57.8023,11.4757326 C58.6243,11.3597326 59.4443,11.0147326 60.2733,11.4737326 C60.6603,11.6877326 60.6703,11.2977326 60.7503,11.1067326 C60.8463,10.8787326 60.7713,10.7007326 60.4713,10.7047326 C60.0973,10.7097326 59.7243,10.7117326 59.3503,10.6997326 C59.2213,10.6957326 59.0083,10.7737326 58.9883,10.5757326 C58.9673,10.3587326 59.1813,10.3377326 59.3453,10.3347326 C59.8013,10.3247326 60.2583,10.3187326 60.7143,10.3317326 C60.9853,10.3387326 61.0803,10.1687326 61.1343,9.96273261 C61.1963,9.72773261 61.0233,9.64273261 60.8463,9.55373261 C60.6703,9.46473261 60.4883,9.45073261 60.3023,9.46073261 C58.5093,9.55773261 56.6973,9.23573261 54.9183,9.68973261 C54.8093,9.71673261 54.6443,9.75273261 54.6163,9.58173261 C54.5913,9.43273261 54.7333,9.38173261 54.8513,9.34173261 C55.2423,9.20973261 55.6263,9.07373261 56.0553,9.07873261 C57.3213,9.09473261 58.5883,9.06773261 59.8533,9.09673261 C60.1873,9.10373261 60.1863,8.94673261 60.2353,8.71573261 C60.2923,8.44473261 60.1493,8.37073261 59.9483,8.34973261 C58.3493,8.18273261 56.7753,7.80373261 55.1543,7.83873261 C54.2413,7.85873261 53.3273,7.84673261 52.4143,7.83773261 C52.2713,7.83673261 52.0663,7.91973261 52.0063,7.60073261 C55.0133,7.46873261 58.0063,7.33673261 61.0453,7.20373261 C60.2463,5.65873261 60.2333,5.65873261 60.1753,3.88973261 C60.1633,3.51573261 59.9153,3.23973261 59.8863,2.88473261 C59.8753,2.76273261 59.7483,2.74673261 59.6393,2.77273261 C58.7683,2.98573261 57.8713,2.92073261 56.9933,3.01973261 C54.5563,3.29473261 52.1263,3.32073261 49.6833,3.12773261 C47.2163,2.93373261 44.7383,2.91373261 42.2843,2.50873261 C40.5053,2.21473261 38.6863,2.30273261 36.8943,2.28873261 C34.5173,2.27173261 32.1393,1.94973261 29.7613,2.23573261 C29.6813,2.24573261 29.5953,2.22073261 29.5813,2.11273261 C29.7013,1.80173261 30.1523,1.96773261 30.2943,1.63273261 C29.7693,1.58873261 29.2443,1.41873261 28.7883,1.53073261 C27.6023,1.82373261 26.4113,1.55773261 25.2273,1.62273261 C22.8853,1.74973261 20.5183,1.51273261 18.1683,1.32573261 C17.4853,1.27173261 16.8203,1.37873261 16.1363,1.31273261 C14.4743,1.15273261 12.8293,0.833732609 11.1413,0.850732609 C9.8493,0.862732609 8.5543,0.560732609 7.2613,0.559732609 C6.4373,0.559732609 5.6043,0.771732609 4.7743,0.870732609 C4.3893,0.916732609 3.9693,1.10873261 3.5383,1.11973261 C2.5593,1.14573261 2.5003,1.19473261 2.2993,2.15173261 C2.1533,2.84773261 2.2923,3.02473261 3.0223,3.11973261 C3.2973,3.15473261 3.7743,3.14373261 3.7763,3.36673261 C3.7823,3.77373261 3.3153,3.51773261 3.0843,3.62873261 C2.6713,3.82673261 1.7993,3.40673261 2.0033,4.48173261 M1.3593,28.2457326 C1.0633,28.2457326 0.9213,28.2327326 0.7823,28.2487326 C0.3573,28.2957326 0.2183,28.0837326 0.2643,27.6967326 C0.2813,27.5537326 0.3093,27.4117326 0.3243,27.2677326 C0.4223,26.3537326 0.7653,25.4617326 0.5533,24.5197326 C0.3033,23.4067326 1.5743,22.0277326 2.8003,22.0247326 C2.9613,22.0237326 3.1223,22.0247326 3.2823,21.9767326 C2.7243,21.8647326 2.1603,21.8657326 1.6053,21.9417326 C1.0103,22.0237326 0.5023,21.6347326 0.5643,21.0627326 C0.6583,20.2077326 0.6143,19.3217326 0.8943,18.5047326 C1.2103,17.5827326 1.2463,16.6257326 1.3183,15.6857326 C1.3923,14.7267326 1.2513,13.7497326 1.1883,12.7817326 C1.1523,12.2257326 0.9433,11.6267326 1.6503,11.3107326 C1.8403,11.2257326 1.7523,11.0637326 1.7623,10.9337326 C1.8133,10.2537326 1.8093,9.57173261 1.8773,8.88973261 C1.9373,8.28373261 1.8863,7.71273261 1.3493,7.21273261 C0.7403,6.64573261 0.9313,5.75573261 1.6553,5.13273261 C1.8153,4.99473261 2.0683,4.94773261 1.7343,4.63273261 C1.3583,4.27773261 1.6663,3.52573261 2.1913,3.30973261 C1.7513,2.72673261 1.8853,1.85373261 2.2423,1.23473261 C2.9123,0.0737326095 4.0773,0.0697326095 5.0923,0.0427326095 C7.7603,-0.0272673905 10.4433,-0.0282673905 13.1033,0.170732609 C15.8973,0.379732609 18.6863,0.285732609 21.4763,0.372732609 C22.8433,0.414732609 24.1913,0.634732609 25.5463,0.779732609 C26.5743,0.888732609 27.6003,1.04673261 28.6373,0.986732609 C29.3673,0.944732609 30.0803,1.11373261 30.8023,1.11273261 C31.1013,1.11273261 31.0823,1.42273261 31.3133,1.48673261 C31.7233,1.60073261 32.1083,1.75673261 32.5573,1.74073261 C35.7923,1.62373261 39.0303,1.68973261 42.2623,1.77773261 C45.7013,1.87073261 49.1383,2.05373261 52.5793,2.15473261 C55.0073,2.22573261 57.4253,2.27173261 59.8423,2.00673261 C60.0883,1.97973261 60.3423,1.98673261 60.5883,2.01773261 C60.8323,2.04873261 60.9483,2.15373261 60.9403,2.47273261 C60.9033,3.85873261 61.0213,5.22073261 61.6753,6.49273261 C62.1133,7.34473261 61.8553,7.74273261 60.8653,7.84473261 C60.8243,7.84973261 60.7833,7.85673261 60.6383,7.87773261 C61.2733,8.12673261 61.2453,8.82073261 61.7603,9.14273261 C61.9803,9.28073261 61.8163,9.76773261 61.7503,10.0687326 C61.6173,10.6847326 61.3673,11.2757326 61.2203,11.8897326 C60.9993,12.8107326 60.2293,13.3807326 58.9793,13.3287326 C59.0733,13.5947326 59.3353,13.5677326 59.5143,13.6337326 C60.4293,13.9767326 60.7833,14.4647326 60.7883,15.4467326 C60.7913,16.0267326 60.7993,16.6067326 60.8123,17.1867326 C60.8213,17.6447326 60.6743,18.1547326 61.2343,18.4327326 C61.3373,18.4837326 61.3123,18.6067326 61.3113,18.7117326 C61.3023,20.1407326 61.2853,21.5687326 61.2983,22.9977326 C61.3033,23.5437326 61.1773,23.9357326 60.3593,23.9217326 C60.8193,24.1957326 61.1643,24.3547326 60.8123,24.8257326 C60.6453,25.0477326 60.8293,25.3277326 61.1503,25.4257326 C61.7163,25.5977326 61.9773,25.9107326 61.7943,26.5607326 C61.5983,27.2567326 61.5773,27.9887326 61.6663,28.7127326 C61.7083,29.0557326 61.6783,29.4067326 62.1393,29.5877326 C62.5213,29.7377326 62.2913,30.0767326 62.1553,30.3257326 C61.5573,31.4147326 61.1953,32.5607326 61.2913,33.8177326 C61.3113,34.0837326 61.3543,34.3507326 61.4153,34.6107326 C61.6403,35.5707326 61.4243,35.8037326 60.4183,35.8327326 C58.3893,35.8907326 56.4113,35.4217326 54.4063,35.2387326 C53.4573,35.1517326 52.5033,35.1027326 51.5503,35.0947326 C49.8073,35.0807326 48.0923,34.7907326 46.3633,34.6377326 C44.7543,34.4947326 43.1393,34.4227326 41.5253,34.3447326 C38.3913,34.1917326 35.2703,34.5897326 32.1393,34.5857326 C31.0813,34.5847326 30.0223,34.5517326 28.9663,34.4977326 C27.1573,34.4047326 25.3663,34.6597326 23.5703,34.7767326 C22.6923,34.8337326 21.8303,34.7077326 20.9673,34.7397326 C18.6783,34.8227326 16.4363,34.3347326 14.1653,34.2577326 C12.3823,34.1977326 10.6003,34.1167326 8.8273,33.9517326 C6.5193,33.7357326 4.2033,33.6727326 1.8933,33.5077326 C1.7403,33.4977326 1.6763,33.4707326 1.5533,33.6877326 C1.3743,34.0027326 0.9243,33.9087326 0.6093,33.7237326 C-0.0777,33.3197326 -0.0257,32.4277326 0.8223,31.7167326 C0.1383,31.8467326 0.1333,31.4757326 0.1263,31.0577326 C0.1163,30.5207326 0.0583,29.9837326 0.0113,29.4477326 C-0.0387,28.8817326 0.0503,28.4457326 0.7743,28.4727326 C0.9193,28.4777326 1.0693,28.3627326 1.3593,28.2457326" id="Fill-1" fill="#4F2E15" mask="url(#mask-2)"></path>
                </g>
                <path d="M2.0033,4.48173261 C1.7993,3.40673261 2.6713,3.82673261 3.0843,3.62873261 C3.3153,3.51773261 3.7823,3.77373261 3.7763,3.36673261 C3.7743,3.14373261 3.2973,3.15473261 3.0223,3.11973261 C2.2923,3.02473261 2.1533,2.84773261 2.2993,2.15173261 C2.5003,1.19473261 2.5593,1.14573261 3.5383,1.11973261 C3.9693,1.10873261 4.3893,0.916732609 4.7743,0.870732609 C5.6043,0.771732609 6.4373,0.559732609 7.2613,0.559732609 C8.5543,0.560732609 9.8493,0.862732609 11.1413,0.850732609 C12.8293,0.833732609 14.4743,1.15273261 16.1363,1.31273261 C16.8203,1.37873261 17.4853,1.27173261 18.1683,1.32573261 C20.5183,1.51273261 22.8853,1.74973261 25.2273,1.62273261 C26.4113,1.55773261 27.6023,1.82373261 28.7883,1.53073261 C29.2443,1.41873261 29.7693,1.58873261 30.2943,1.63273261 C30.1523,1.96773261 29.7013,1.80173261 29.5813,2.11273261 C29.5953,2.22073261 29.6813,2.24573261 29.7613,2.23573261 C32.1393,1.94973261 34.5173,2.27173261 36.8943,2.28873261 C38.6863,2.30273261 40.5053,2.21473261 42.2843,2.50873261 C44.7383,2.91373261 47.2163,2.93373261 49.6833,3.12773261 C52.1263,3.32073261 54.5563,3.29473261 56.9933,3.01973261 C57.8713,2.92073261 58.7683,2.98573261 59.6393,2.77273261 C59.7483,2.74673261 59.8753,2.76273261 59.8863,2.88473261 C59.9153,3.23973261 60.1633,3.51573261 60.1753,3.88973261 C60.2333,5.65873261 60.2463,5.65873261 61.0453,7.20373261 C58.0063,7.33673261 55.0133,7.46873261 52.0063,7.60073261 C52.0663,7.91973261 52.2713,7.83673261 52.4143,7.83773261 C53.3273,7.84673261 54.2413,7.85873261 55.1543,7.83873261 C56.7753,7.80373261 58.3493,8.18273261 59.9483,8.34973261 C60.1493,8.37073261 60.2923,8.44473261 60.2353,8.71573261 C60.1863,8.94673261 60.1873,9.10373261 59.8533,9.09673261 C58.5883,9.06773261 57.3213,9.09473261 56.0553,9.07873261 C55.6263,9.07373261 55.2423,9.20973261 54.8513,9.34173261 C54.7333,9.38173261 54.5913,9.43273261 54.6163,9.58173261 C54.6443,9.75273261 54.8093,9.71673261 54.9183,9.68973261 C56.6973,9.23573261 58.5093,9.55773261 60.3023,9.46073261 C60.4883,9.45073261 60.6703,9.46473261 60.8463,9.55373261 C61.0233,9.64273261 61.1963,9.72773261 61.1343,9.96273261 C61.0803,10.1687326 60.9853,10.3387326 60.7143,10.3317326 C60.2583,10.3187326 59.8013,10.3247326 59.3453,10.3347326 C59.1813,10.3377326 58.9673,10.3587326 58.9883,10.5757326 C59.0083,10.7737326 59.2213,10.6957326 59.3503,10.6997326 C59.7243,10.7117326 60.0973,10.7097326 60.4713,10.7047326 C60.7713,10.7007326 60.8463,10.8787326 60.7503,11.1067326 C60.6703,11.2977326 60.6603,11.6877326 60.2733,11.4737326 C59.4443,11.0147326 58.6243,11.3597326 57.8023,11.4757326 C57.6523,11.4977326 57.5363,11.6147326 57.5703,11.7897326 C57.6003,11.9487326 57.7433,11.9417326 57.8673,11.9457326 C58.5433,11.9707326 59.2053,11.7437326 59.9003,11.9237326 C60.2763,12.0217326 60.3033,12.0817326 60.0953,12.3737326 C59.7043,12.9227326 59.1433,13.0627326 58.5223,13.0647326 C57.0693,13.0687326 55.6163,13.0537326 54.1633,13.0707326 C53.5473,13.0787326 52.9403,13.1837326 52.3843,13.4987326 C52.5043,13.7037326 52.6753,13.6737326 52.8373,13.6487326 C54.9733,13.3227326 57.0273,13.7647326 59.0703,14.3087326 C59.2293,14.3507326 59.3773,14.4357326 59.5343,14.4837326 C59.9263,14.6017326 59.9263,14.9047326 59.9183,15.2297326 C59.9093,15.6277326 59.5843,15.6417326 59.3453,15.6537326 C58.6213,15.6897326 57.8933,15.6737326 57.1673,15.6777326 C56.8973,15.6797326 56.6273,15.6767326 56.3583,15.6817326 C56.1613,15.6857326 55.9323,15.7337326 55.9543,15.9647326 C55.9813,16.2667326 56.2173,16.0877326 56.3863,16.0907326 C57.4733,16.1107326 58.5743,15.8517326 59.6433,16.2667326 C60.3713,16.5487326 59.9703,17.1497326 60.0133,17.6047326 C60.0523,18.0107326 59.7873,18.1997326 59.3383,18.1857326 C59.0423,18.1767326 58.5023,18.1597326 58.5153,18.4677326 C58.5293,18.8207326 59.0323,18.6397326 59.3203,18.6617326 C60.2823,18.7327326 60.4123,18.8767326 60.2943,19.8207326 C60.1643,20.8687326 60.2603,21.9127326 60.3853,22.9517326 C60.4273,23.2967326 60.3263,23.3837326 60.0023,23.3977326 C59.3563,23.4267326 58.7223,23.3377326 58.0863,23.2627326 C56.2903,23.0517326 54.4943,23.0987326 52.6963,23.2517326 C51.8323,23.3257326 50.9623,23.3937326 50.0973,23.3777326 C49.2843,23.3637326 48.4913,23.5537326 47.6813,23.5217326 C47.4683,23.5127326 47.1283,23.4667326 47.1503,23.7757326 C47.1713,24.0737326 47.4503,24.1547326 47.7713,24.1067326 C48.9333,23.9347326 50.0993,23.7917326 51.2763,23.7737326 C53.6703,23.7357326 56.0573,23.8207326 58.4163,24.2717326 C58.7993,24.3447326 59.1753,24.4657326 59.5493,24.5807326 C59.7043,24.6287326 59.9053,24.6967326 59.8943,24.8927326 C59.8653,25.4317326 60.2023,25.6707326 60.6243,25.8487326 C60.8843,25.9587326 60.9363,26.1487326 60.8903,26.4037326 C60.7663,27.0907326 60.6383,27.7777326 60.5403,28.4697326 C60.5013,28.7407326 60.3343,28.7147326 60.1473,28.7467326 C58.7253,28.9907326 57.2903,28.7917326 55.8653,28.8697326 C54.2863,28.9567326 52.7353,28.6037326 51.1623,28.6167326 C51.0173,28.6177326 50.8713,28.6147326 50.7263,28.6197326 C50.5523,28.6257326 50.3703,28.6587326 50.3723,28.8747326 C50.3743,29.0497326 50.5403,29.0757326 50.6843,29.1177326 C51.6563,29.3987326 52.6443,29.6107326 53.6473,29.7357326 C55.4263,29.9557326 57.1813,30.3627326 58.9763,30.4477326 C59.4433,30.4707326 59.9213,30.3777326 60.3863,30.2957326 C61.0483,30.1797326 61.1003,30.2457326 60.9213,30.9097326 C60.6973,31.7447326 60.3753,32.5507326 60.2373,33.4137326 C60.1853,33.7387326 60.2423,34.0227326 60.2803,34.3277326 C60.3893,35.2137326 60.0903,35.5657326 59.2073,35.4257326 C57.2703,35.1187326 55.3143,34.9907326 53.3713,34.7417326 C52.8403,34.6737326 52.2943,34.7237326 51.7543,34.7117326 C50.0603,34.6727326 48.3833,34.4457326 46.7013,34.2577326 C45.2653,34.0977326 43.8163,34.0257326 42.3713,33.9767326 C41.0233,33.9307326 39.6723,33.9927326 38.3243,33.9587326 C36.5193,33.9127326 34.7343,34.2067326 32.9333,34.2277326 C31.5623,34.2437326 30.2033,34.0797326 28.8343,34.0817326 C26.9073,34.0847326 24.9953,34.2657326 23.0823,34.4527326 C22.0033,34.5577326 20.9363,34.2847326 19.8563,34.3417326 C17.9873,34.4397326 16.1653,33.9537326 14.3093,33.8707326 C13.2143,33.8217326 12.1183,33.8187326 11.0213,33.7307326 C8.4683,33.5277326 5.9103,33.3907326 3.3533,33.2357326 C2.5903,33.1887326 1.8203,33.2647326 1.0623,33.1057326 C0.9073,33.0727326 0.7123,33.1347326 0.6533,32.9157326 C0.5963,32.7017326 0.6283,32.5117326 0.8083,32.3527326 C1.1843,32.0217326 1.6723,31.9897326 2.1133,31.8267326 C2.4173,31.7147326 2.9593,31.7597326 2.9263,31.3277326 C2.8963,30.9267326 2.4043,31.1717326 2.1293,31.0857326 C1.9723,31.0367326 1.8063,31.0157326 1.6433,30.9877326 C1.2853,30.9237326 0.7343,31.1747326 0.5973,30.8657326 C0.3673,30.3507326 0.4993,29.7257326 0.5423,29.1497326 C0.5573,28.9477326 0.8023,28.9197326 0.9783,28.8577326 C1.4863,28.6817326 1.9933,28.5037326 2.4943,28.3087326 C2.6363,28.2537326 2.8663,28.2087326 2.8253,28.0017326 C2.7853,27.7927326 2.5623,27.7587326 2.3773,27.7527326 C1.9833,27.7397326 1.5883,27.7397326 1.1943,27.7477326 C0.8903,27.7547326 0.7123,27.7037326 0.8263,27.3247326 C0.8953,27.0927326 0.8633,26.8327326 0.8973,26.5877326 C1.0093,25.7657326 1.3303,25.5227326 2.1453,25.6587326 C2.3943,25.7007326 2.6943,25.8377326 2.7233,25.4597326 C2.7503,25.1077326 2.4163,25.1467326 2.1723,25.1327326 C2.1513,25.1317326 2.1303,25.1347326 2.1103,25.1327326 C1.8083,25.0937326 1.3873,25.2857326 1.2253,25.0317326 C0.9933,24.6687326 1.1613,24.1867326 1.1353,23.7567326 C1.1233,23.5687326 1.2773,23.5447326 1.4303,23.5157326 C3.6763,23.0847326 5.9133,22.6177326 8.1723,22.2557326 C10.1443,21.9397326 12.0953,21.4957326 14.0493,21.0827326 C14.2733,21.0357326 14.5613,21.1497326 14.8433,20.7287326 C13.9723,20.9407326 13.2153,20.9287326 12.4593,20.9567326 C10.8333,21.0157326 9.2163,21.2847326 7.5763,21.0657326 C5.5373,20.7927326 3.4803,20.8837326 1.4313,20.9407326 C1.0843,20.9507326 1.0013,20.9747326 1.0743,20.5897326 C1.1813,20.0247326 1.2373,19.4447326 1.2483,18.8697326 C1.2553,18.4887326 1.4133,18.2917326 1.7463,18.1897326 C2.2203,18.0447326 2.6923,17.8887326 3.1993,17.9077326 C3.3633,17.9147326 3.5753,17.9517326 3.6013,17.7317326 C3.6303,17.4917326 3.4333,17.4177326 3.2283,17.4247326 C2.8163,17.4397326 2.4003,17.3617326 1.9913,17.4857326 C1.6733,17.5827326 1.5113,17.5917326 1.5663,17.1247326 C1.7383,15.6587326 1.9783,14.1897326 1.5403,12.7147326 C1.3453,12.0577326 1.5183,11.8047326 2.1893,11.6187326 C3.4803,11.2607326 4.7803,10.9387326 6.0763,10.6007326 C6.2923,10.5447326 6.5183,10.5047326 6.6763,10.2767326 C6.6133,10.2477326 6.5533,10.1957326 6.5213,10.2097326 C5.4543,10.6807326 4.3343,10.4557326 3.2353,10.4377326 C2.8863,10.4327326 2.4573,10.7607326 2.2463,10.4837326 C2.0863,10.2747326 2.2493,9.82573261 2.2543,9.48373261 C2.2613,9.06973261 2.2283,8.65273261 2.2583,8.24073261 C2.2883,7.82973261 2.1463,7.51873261 1.8533,7.24973261 C1.4993,6.92373261 1.2843,6.58673261 1.4893,6.04973261 C1.7003,5.49573261 2.0733,5.19773261 2.6173,5.11473261 C4.1443,4.88073261 5.6543,5.26073261 7.1673,5.27073261 C8.9243,5.28173261 10.6123,5.88273261 12.3713,5.72173261 C12.4533,5.71473261 12.5373,5.72073261 12.6193,5.71373261 C12.7503,5.70273261 12.9033,5.65173261 12.9023,5.52373261 C12.9023,5.30873261 12.6953,5.33973261 12.5703,5.36673261 C11.9743,5.49473261 11.3913,5.42373261 10.7893,5.37973261 C9.8373,5.31073261 8.9233,5.04173261 7.9783,4.95973261 C6.7153,4.84973261 5.4533,4.71273261 4.1893,4.61073261 C3.4503,4.55173261 2.7183,4.41673261 2.0033,4.48173261" id="Fill-4" fill="#7C491D"></path>
            </g>
        </g>
    </g>
</svg>