<?xml version="1.0" encoding="UTF-8"?>
<svg width="196px" height="93px" viewBox="0 0 196 93" version="1.1" xmlns="http://www.w3.org/2000/svg" xmlns:xlink="http://www.w3.org/1999/xlink">
    <title>Group 74</title>
    <defs>
        <polygon id="path-1" points="0 0 195.22 0 195.22 92.8466713 0 92.8466713"></polygon>
    </defs>
    <g id="Page-1" stroke="none" stroke-width="1" fill="none" fill-rule="evenodd">
        <g id="a" transform="translate(-455.000000, -311.000000)">
            <g id="Group-74" transform="translate(455.000000, 311.000000)">
                <g id="Group-3">
                    <mask id="mask-2" fill="white">
                        <use xlink:href="#path-1"></use>
                    </mask>
                    <g id="Clip-2"></g>
                    <path d="M145.0269,9.0358713 C146.5929,8.8548713 148.1689,8.8758713 149.7319,8.4968713 C150.9459,8.2028713 152.1159,8.4398713 153.3579,9.1308713 C156.6849,10.9828713 160.1769,12.5388713 163.6039,14.2128713 C164.8359,15.1178713 166.2079,15.4788713 167.7349,15.3458713 C169.2089,15.2178713 170.6609,15.3318713 172.0509,15.9088713 C173.0899,16.3398713 173.8819,16.9598713 173.9419,18.1948713 C173.9429,18.4878713 173.9539,18.7768713 174.0099,19.0678713 C174.3199,20.6988713 174.0579,21.1538713 172.4579,21.5858713 C170.5159,22.1108713 168.4919,21.8838713 166.5149,22.1888713 C164.8819,22.4398713 163.2029,22.2828713 161.6069,22.5318713 C166.5129,22.1448713 171.4719,21.7718713 176.4449,21.6758713 C176.9979,21.6228713 177.5069,21.7468713 177.9699,22.0548713 C179.9919,22.1578713 180.9179,23.7448713 181.9999,25.0798713 C183.0619,26.3898713 184.2369,27.5418713 185.5549,28.6108713 C187.8969,30.5098713 189.1189,33.3298713 190.9399,35.6678713 C191.9919,37.0188713 190.2599,36.7818713 189.7289,37.3878713 C192.1329,38.5418713 193.6449,40.3908713 193.8489,43.2048713 C193.9219,44.2228713 195.3819,44.5178713 195.2059,45.9238713 C194.7609,49.4848713 194.1139,53.0068713 193.5519,56.5448713 C193.3479,57.8248713 192.1069,57.3198713 191.5109,58.0658713 C192.9009,58.9988713 192.4759,59.8258713 191.5029,60.9858713 C190.0139,62.7598713 188.6969,64.7138713 187.5519,66.7308713 C186.3769,68.8008713 184.4789,69.3738713 182.4209,69.9038713 C180.0259,70.5198713 177.6719,71.2948713 175.2799,71.9218713 C174.1209,72.2268713 174.2039,72.7268713 175.0229,73.2228713 C176.1149,73.8848713 175.8889,74.5808713 175.2969,75.3788713 C174.0819,77.0178713 172.8889,78.5438713 170.6439,79.0368713 C168.3949,79.5308713 166.6989,81.1958713 164.9859,82.6658713 C164.5089,83.0758713 164.1119,83.3318713 163.4819,83.3528713 C158.0889,83.5338713 152.7379,84.3708713 147.3319,84.3638713 C146.7469,84.3628713 146.1599,84.4388713 145.5749,84.4888713 C144.2359,84.6038713 142.9769,84.5788713 143.7889,86.6818713 C144.4459,88.3838713 142.7839,88.3328713 141.8009,88.4138713 C139.2259,88.6268713 136.6389,88.6918713 134.0569,88.8158713 C133.0619,89.4178713 131.9439,89.3768713 130.8469,89.4008713 C129.2739,89.4348713 127.7429,89.7408713 126.2109,90.0538713 C123.4499,90.7058713 120.6829,91.3348713 117.9289,92.0168713 C113.7209,93.0578713 109.4629,92.9638713 105.2019,92.5748713 C100.4029,92.1368713 95.6219,91.5338713 90.8129,91.1508713 C83.3379,90.5558713 75.8359,90.9328713 68.3739,90.3108713 C64.8499,90.0168713 61.3529,89.4088713 57.8349,89.0228713 C56.8739,88.9178713 56.5579,88.4028713 56.6889,87.6408713 C56.8809,86.5298713 56.3369,86.3528713 55.4189,86.1078713 C50.1709,84.7058713 44.7939,83.9298713 39.4939,82.7848713 C38.5449,82.5798713 37.5059,82.7828713 36.5079,82.8068713 C35.6929,82.8258713 35.1509,82.5998713 35.2829,81.6218713 C35.3809,80.8918713 34.9379,80.2988713 34.7369,79.6418713 C34.0979,77.5528713 32.4829,77.3708713 30.7319,77.4048713 C28.6279,77.4458713 26.5229,77.6748713 24.4239,77.3028713 C24.0559,77.2378713 23.5119,77.5058713 23.4239,76.9038713 C23.2039,75.3908713 22.0069,73.9048713 23.5059,72.2338713 C22.2409,72.0218713 21.2839,72.4618713 20.3569,72.7028713 C18.7239,73.1278713 17.4519,73.0438713 16.0499,71.8098713 C13.5919,69.6438713 10.8439,67.8038713 8.5549,65.4308713 C7.7569,64.6028713 6.8899,63.7788713 8.0769,62.5348713 C8.7349,61.8438713 8.4669,61.3358713 7.4819,61.4178713 C5.7729,61.5588713 4.9729,60.6998713 4.3249,59.1708713 C2.7699,55.5008713 1.3039,51.8118713 0.2169,47.9728713 C-0.0361,47.0788713 -0.1531,46.2198713 0.3499,45.4528713 C2.0539,42.8518713 3.0339,40.0158713 3.6299,36.9688713 C3.9589,35.2848713 4.8759,33.7238713 5.3929,32.0648713 C5.9139,30.3958713 6.6909,29.2508713 8.6839,29.6228713 C9.1949,29.7178713 9.7449,29.5068713 9.8099,29.0118713 C10.1839,26.1788713 12.7239,25.0748713 14.3389,23.2388713 C14.7619,22.7578713 15.3449,22.4148713 15.7509,21.9218713 C17.3579,19.9698713 19.3959,19.0578713 21.9139,19.2968713 C22.4919,19.3508713 22.9739,19.3848713 23.0219,18.6568713 C23.1029,17.4198713 24.1189,17.1718713 24.9399,16.5728713 C27.6809,14.5698713 30.8009,13.2098713 33.5699,11.2748713 C34.3279,10.7448713 35.1169,10.4798713 36.0369,10.5818713 C37.6039,10.7548713 39.0499,11.5398713 40.3449,9.4078713 C41.2159,7.9718713 43.4849,7.5138713 45.2729,7.0868713 C49.4559,6.0858713 53.6429,5.0788713 57.9549,4.6978713 C59.8469,4.5308713 61.4829,3.4008713 63.3489,2.9258713 C69.6709,1.3148713 75.9909,0.846871302 82.4059,2.0898713 C83.8119,2.3628713 85.0899,2.1898713 86.4709,1.7698713 C90.6259,0.505871302 94.9129,-0.0851286975 99.2609,0.00987130247 C103.1799,0.0948713025 107.0989,0.275871302 111.0139,0.486871302 C113.3919,0.615871302 115.7949,0.618871302 118.1199,1.2158713 C119.6839,1.6168713 121.3119,2.0188713 121.8389,3.8888713 C121.9829,4.3978713 122.3839,4.1878713 122.6939,4.2338713 C127.5059,4.9508713 132.3509,5.1598713 137.2049,5.0458713 C138.8449,5.0078713 140.0819,5.3948713 140.6969,7.0248713 C141.2969,7.7918713 141.2409,8.6558713 141.0629,9.5358713 C142.2519,8.3078713 143.7559,9.5928713 145.0269,9.0358713" id="Fill-1" fill="#653B17" mask="url(#mask-2)"></path>
                </g>
                <path d="M113.9975,3.8819713 C116.4625,4.5529713 118.9935,4.8129713 121.5265,4.9889713 C125.2435,5.2469713 128.9365,5.7559713 132.6785,5.7979713 C134.3175,5.8159713 135.9575,5.8329713 137.5885,5.7419713 C139.6475,5.6269713 138.7165,7.2909713 139.0085,8.1199713 C139.4045,9.2399713 138.2885,8.8529713 137.7995,8.8999713 C132.6275,9.3909713 127.4305,9.6399713 122.3095,10.5999713 C122.0365,10.6509713 121.7205,10.5929713 121.4475,11.1529713 C125.0035,11.6989713 128.5185,11.4449713 131.9985,11.6699713 C132.0035,12.9749713 131.0175,13.1109713 130.0825,13.2499713 C128.4365,13.4939713 126.7905,13.2079713 125.1605,13.0749713 C122.3925,12.8499713 119.6395,12.9729713 116.8855,13.1279713 C109.5305,13.5409713 102.2185,12.7819713 94.8925,12.3959713 C93.8785,12.3429713 92.9015,12.3579713 91.9485,12.7319713 C91.4745,12.9179713 91.1485,13.1929713 91.1455,13.7569713 C91.1425,14.3889713 91.4985,14.7149713 92.0425,14.9089713 C92.2655,14.9879713 92.4975,15.0649713 92.7285,15.0549713 C97.0245,14.8859713 101.2625,16.1709713 105.5555,15.6649713 C112.1605,14.8859713 118.8205,15.0689713 125.4225,14.4599713 C130.0845,14.0299713 134.7655,13.7489713 139.3995,12.7869713 C142.8935,12.0609713 146.5675,11.3409713 150.1585,12.8659713 C150.9355,13.1959713 152.3265,13.1749713 152.4455,12.3019713 C152.5775,11.3409713 151.2475,11.2179713 150.4025,11.1509713 C148.3225,10.9859713 146.3265,11.5919713 144.3175,12.0039713 C142.6995,12.3359713 141.0795,12.6369713 139.4295,12.4659713 C138.5365,12.3729713 137.4805,12.3699713 137.2865,11.1059713 C141.6105,10.4539713 145.9335,9.7929713 150.2605,9.1619713 C150.8895,9.0699713 151.5695,8.9529713 152.1625,9.3019713 C155.0745,11.0149713 158.3595,12.0259713 161.2205,14.1159713 C159.9445,14.7339713 158.7805,13.9749713 157.6065,14.0869713 C139.6075,15.8099713 121.5345,16.1849713 103.4885,17.0599713 C101.7515,17.1439713 99.9615,17.4379713 98.2105,17.8439713 C99.3575,18.4499713 100.5765,18.2899713 101.6835,18.0409713 C102.9055,17.7659713 104.1155,17.6909713 105.3415,17.6409713 C116.2615,17.1959713 127.1795,16.7249713 138.1015,16.3389713 C143.2365,16.1579713 148.3975,15.8349713 153.5115,16.1449713 C158.8325,16.4669713 164.1295,16.6959713 169.4555,16.5129713 C171.3345,16.4489713 172.7165,17.8889713 172.7595,19.6599713 C172.7795,20.4769713 172.0615,20.5399713 171.5145,20.5739713 C169.7605,20.6829713 168.0255,20.8669713 166.2825,21.1309713 C162.1055,21.7649713 157.8815,21.9039713 153.6615,22.0399713 C153.1285,22.0569713 152.4515,21.8259713 152.0715,22.6829713 C156.5745,23.2169713 161.0235,23.5709713 165.5075,23.3629713 C169.0875,23.1969713 172.6765,23.1579713 176.2465,22.8639713 C178.0975,22.7109713 179.1435,23.2869713 179.5225,25.0849713 C179.4285,25.1309713 179.3315,25.2179713 179.2345,25.2179713 C174.2975,25.1939713 169.4115,26.1399713 164.4885,26.1139713 C158.9835,26.0849713 153.5915,27.5139713 148.0835,27.1929713 C143.2555,26.9109713 138.4085,27.0629713 133.5935,26.4419713 C131.0155,26.1089713 128.4055,26.0209713 125.7775,26.0229713 C127.1015,26.9139713 128.6645,26.6939713 130.1205,26.8439713 C133.7665,27.2179713 137.4215,27.5379713 141.0805,27.7519713 C143.6465,27.9009713 146.2285,27.9519713 148.7965,27.8489713 C155.1745,27.5929713 161.5025,27.5939713 167.8885,28.3629713 C172.0145,28.8599713 176.3315,28.4869713 180.5125,27.7529713 C182.0725,27.4789713 183.3605,27.4179713 184.0725,29.2419713 C184.4695,30.2599713 185.1385,31.1949713 185.8055,32.0759713 C186.4965,32.9889713 186.0525,33.2969713 185.2225,33.4319713 C181.1975,34.0859713 177.1625,34.6849713 173.1415,35.3639713 C170.7435,35.7689713 168.3655,36.2869713 165.5395,36.8399713 C166.8105,37.5459713 167.8195,37.7589713 168.6855,37.5879713 C174.1005,36.5189713 179.5715,37.4179713 184.9985,37.0059713 C185.7605,36.9479713 186.5285,36.9759713 187.2875,36.9069713 C188.3125,36.8129713 188.7125,37.2089713 188.8605,38.2649713 C189.2505,41.0539713 189.3105,41.0479713 186.3735,41.1679713 C180.1505,41.4199713 173.9265,41.6589713 167.7045,41.9339713 C166.9875,41.9659713 166.1585,41.7369713 165.5125,42.5529713 C167.4075,43.3199713 169.3655,42.9739713 171.2415,43.1509713 C177.1045,43.7039713 182.9665,43.0189713 188.8255,42.8079713 C190.4895,42.7489713 190.8095,43.1739713 190.4975,44.6589713 C190.0305,46.8819713 189.6875,49.1299713 189.2545,51.3589713 C189.0805,52.2519713 188.5845,52.7169713 187.5565,52.7679713 C180.0205,53.1419713 172.5975,54.6109713 165.0695,55.1279713 C163.0975,55.2629713 161.1625,55.8469713 159.1765,55.2809713 C158.6615,54.3489713 157.8475,54.2099713 156.8315,54.1089713 C150.6385,53.4939713 144.5375,54.7459713 138.3865,54.9349713 C134.8655,55.0429713 131.3525,54.6299713 127.8335,54.9509713 C126.4125,55.0809713 125.0515,55.3799713 123.7215,55.8549713 C123.3385,55.9919713 122.9205,56.1789713 122.9435,56.6859713 C122.9655,57.1709713 123.3795,57.3519713 123.7515,57.5199713 C124.5935,57.9009713 125.4475,57.8159713 126.3355,57.6319713 C130.3275,56.8049713 134.3315,56.4189713 138.3515,57.4839713 C139.1565,57.6969713 139.9895,57.7569713 140.7975,57.5699713 C144.6805,56.6679713 148.5055,57.7129713 152.3555,57.8829713 C152.6455,57.8959713 152.9345,57.9809713 153.2115,58.0809713 C154.7725,58.6429713 154.9975,59.6679713 153.8145,60.8599713 C152.8385,61.8439713 151.5875,62.0929713 150.2685,62.1709713 C147.6345,62.3259713 144.9815,62.2309713 142.3835,62.8439713 C141.4935,63.0539713 140.7015,63.3549713 140.1765,64.1459713 C139.0965,65.7739713 139.7745,67.4479713 141.6465,67.7639713 C142.1085,67.8419713 142.6105,67.8119713 143.0295,68.0089713 C145.6065,69.2189713 148.0775,68.6079713 150.5325,67.6269713 C152.6435,66.7829713 154.8025,66.3369713 157.0765,66.8029713 C157.6405,66.9189713 158.4305,66.8559713 158.5795,67.4929713 C158.7255,68.1149713 158.0375,68.4679713 157.5575,68.7959713 C156.7315,69.3599713 156.0605,70.1189713 155.2015,70.6379713 C142.6345,71.0449713 130.0785,71.9809713 117.4915,71.4049713 C117.5165,70.4899713 118.2845,70.3249713 118.9075,70.0659713 C120.2245,69.5199713 121.6135,69.2639713 123.0375,69.2769713 C125.1075,69.2949713 127.1315,68.9029713 129.1595,68.5859713 C129.9015,68.4699713 131.1315,68.5659713 131.0875,67.5419713 C131.0545,66.7799679 129.9085,66.7049713 129.1625,66.6719713 C126.4055,66.5479713 123.6525,66.3539713 120.8975,66.1949713 C113.8035,65.7859713 106.7005,65.7469713 99.6025,65.7489713 C94.1485,65.7499713 88.6875,65.9389713 83.2425,66.5059713 C80.7675,66.7639713 78.2245,66.4689713 75.7465,66.7389713 C72.2545,67.1189713 68.7145,66.9569713 65.2605,67.7439713 C62.6765,68.3329713 60.0645,68.5859713 57.4325,68.0169713 C57.2725,66.6809713 56.5305,66.1899713 55.2005,66.3529713 C53.1205,66.6079713 51.1835,66.2439713 49.2465,65.3069713 C47.4725,64.4499713 45.4385,64.8229713 43.5195,64.9749713 C42.0535,65.0919713 40.5995,65.2229713 39.1365,65.0129713 C37.2975,64.7479713 35.5275,65.3619713 33.7205,65.4309713 C30.2675,65.5619713 26.8165,65.9759713 23.3555,65.5799713 C22.8895,65.5269713 22.4125,65.5489713 21.9535,65.6519713 C21.3145,65.7949713 20.5985,65.9629713 20.6775,66.8119713 C20.7495,67.5789713 21.4035,67.8319713 22.0735,67.9109713 C23.0795,68.0289713 24.0385,67.5829713 25.0365,67.5989713 C32.0075,67.7079713 38.9715,67.1669713 45.9445,67.3889713 C48.0555,67.4559713 50.1625,67.2359713 52.2735,67.2059713 C53.2055,67.1919713 54.1735,67.1029713 54.8885,67.9159713 C54.6845,68.9239713 54.0065,68.4809713 53.4425,68.3869713 C50.0955,68.5139713 46.7405,68.5449713 43.4015,68.7939713 C39.1795,69.1099713 34.9615,68.7379713 30.7415,68.8989713 C28.0995,68.9999713 25.4815,69.2659713 22.8715,69.6119713 C21.0785,69.8499713 19.8035,69.3239713 18.5625,67.9549713 C16.4875,65.6649713 14.1665,63.5979713 11.9465,61.4399713 C11.5315,61.0349713 11.0215,60.6939713 11.0245,60.0289713 C24.5665,59.4459713 38.1195,59.3109713 51.6705,58.2769713 C48.8795,58.0139713 46.0875,57.7639713 43.2985,57.4839713 C38.7185,57.0239713 34.1535,57.7479713 29.5855,57.6489713 C24.9815,57.5479713 20.3855,57.0989713 15.7805,56.9179713 C13.6725,56.8349713 11.5515,56.9809713 9.4415,57.1169713 C8.5495,57.1749713 8.0865,56.8139713 7.9405,56.0389713 C7.1895,52.0479713 5.4185,48.3999713 4.1185,44.5939713 C3.3115,42.2329713 3.5705,42.0309713 6.0795,42.3029713 C8.2215,42.5349713 10.3995,42.5669713 12.5565,42.5119713 C17.0805,42.3969713 21.6005,42.0949713 26.1235,42.0119713 C28.4525,41.9689713 30.7955,42.4209713 33.1175,42.3129713 C38.2085,42.0759713 43.1635,43.5749713 48.2675,43.2599713 C51.0485,43.0889713 53.8625,43.4769713 56.6625,43.5619713 C57.1935,43.5779713 57.8285,43.7569713 58.3985,43.0739713 C56.8755,42.5309713 55.3565,42.8449713 53.9245,42.7099713 C50.4415,42.3809713 46.9215,42.4569713 43.4185,42.3229713 C40.1405,42.1979713 36.9585,41.3949713 33.7485,40.8179713 C30.3435,40.2059713 26.9215,39.9809713 23.4705,39.9449713 C19.9065,39.9069713 16.4025,39.2119713 12.8685,38.8419713 C10.0935,38.5509713 7.3345,38.1029713 4.4785,37.7129713 C4.7935,35.4039713 5.9145,33.3309713 6.6775,31.1489713 C6.9115,30.4799713 7.6335,30.3999713 8.3205,30.3619713 C10.8335,30.2209713 13.3405,30.1939713 15.8495,29.7659713 C19.3955,29.1609713 22.9575,29.8679713 26.5085,30.1329713 C28.1855,30.2589713 29.8745,30.5359713 31.5545,30.0419713 C24.8325,29.4609713 18.2425,27.9699713 11.1385,27.8019713 C13.4765,24.9309713 15.8835,22.5809713 18.5575,20.6979713 C19.9595,19.7109713 22.2145,20.1819713 24.0765,20.3339713 C24.8935,20.3999713 25.7065,20.5149713 26.5205,20.4449713 C31.9705,19.9809713 37.4345,20.2329713 42.8885,20.2059713 C49.0785,20.1749713 55.2705,20.6249713 61.4635,20.7289713 C63.2675,20.7599713 65.0795,20.3229713 66.8825,19.8349713 C53.4575,18.6479713 39.9695,18.5979713 26.5645,16.6449713 C27.7215,15.4459713 29.4555,15.0059713 30.6985,13.9459713 C34.6135,10.6049713 39.2225,11.7969713 43.6205,11.8289713 C47.1385,11.8539713 50.6355,11.8619713 54.1255,11.3629713 C56.1175,11.0789713 58.0455,11.7599713 60.0145,11.8559713 C61.9955,11.9529713 63.9755,12.0779713 65.9565,12.1529713 C66.3885,12.1699713 66.9305,12.2659713 67.1555,11.6219713 C59.0615,10.8669713 50.9885,10.1129713 42.9155,9.3589713 C44.8015,7.9369713 46.9265,7.5299713 49.0515,7.0929713 C52.4205,6.3999713 55.7555,5.4559713 59.2175,5.4279713 C60.8215,5.4149713 62.4595,5.4439713 64.0405,5.8739713 C63.3805,7.2809713 61.9765,7.2579713 60.7545,7.5409713 C59.8625,7.7479713 58.8945,7.6949713 57.8545,8.6359713 C59.7385,9.1239713 61.3795,9.3959713 63.0245,9.5999713 C65.2365,9.8749713 67.4705,9.9539713 69.6785,10.2799679 C70.5065,10.4019713 71.3135,10.2929713 72.1225,10.1189713 C75.8045,9.3279713 79.5685,9.2439713 83.2955,8.8429713 C83.9365,8.7739713 84.5935,8.7529713 85.2285,8.8729713 C90.6375,9.8969713 96.0605,9.9169713 101.5015,9.1529713 C103.2505,8.9069713 105.0205,9.0739713 106.7765,8.9469713 C107.3615,8.9049713 107.9555,8.9079713 108.5095,8.6879713 C109.0775,8.4629713 109.6015,8.1369713 109.6025,7.4549713 C109.6035,6.7589713 109.0555,6.4619713 108.4815,6.2649713 C107.8585,6.0519713 107.2045,6.0769713 106.5605,6.1229713 C99.4115,6.6309713 92.2585,5.6859713 85.1025,6.2209713 C82.2155,6.4369713 79.4845,5.1029713 76.5905,5.0019713 C74.2435,4.9189713 71.9595,5.3079713 69.6565,5.5959713 C66.9625,4.9259713 64.1565,5.0459713 61.4335,4.5129713 C68.0925,2.4609713 74.8185,1.6269713 81.7205,2.8489713 C86.3035,3.6609713 90.9645,3.7669713 95.5815,4.2749713 C99.1805,4.6719713 102.7935,4.8129713 106.4115,4.5399713 C106.9645,4.4979713 107.6075,4.7249713 108.0325,4.1359713 C109.9835,3.1649713 111.9725,3.1009713 113.9975,3.8819713" id="Fill-4" fill="#B5732A"></path>
                <path d="M84.0379,82.6940713 C90.2099,82.6980713 96.3739,82.8850713 102.6089,83.5590713 C101.7589,82.6190713 100.9879,82.4330713 98.1459,82.4090713 C97.5839,80.9000713 96.4279,80.4140713 94.9379,80.6420713 C89.8789,81.4160713 84.7669,81.2870713 79.6809,81.5980713 C78.9689,81.6410713 78.2939,81.8120713 77.6749,82.1760713 C71.4199,82.7200713 65.2339,81.9530713 59.0309,81.3040713 C54.5799,80.8390713 50.0969,80.6900713 45.6369,80.2970713 C43.4479,80.1040713 41.2169,80.1820713 39.0849,79.5000713 C38.5069,78.3530713 39.2999,77.9320713 40.0839,78.2400713 C42.7529,79.2870713 45.5479,78.4640713 48.2319,78.9880713 C50.3189,79.1830713 52.4129,79.3020713 54.4889,79.5960713 C55.1149,79.7540713 55.7509,79.9140713 56.3979,79.8320713 C59.6739,79.4130713 62.9509,79.6430713 66.2259,79.8100713 C67.2829,79.8640713 68.2379,79.7280713 68.9289,78.8740713 C69.7699,77.8330713 71.1369,77.8440713 72.1579,77.1770713 C72.4849,76.9700713 73.0979,77.4350713 73.2099,76.7280713 C72.7219,75.9410713 72.9689,75.0280713 72.7849,74.1850713 C72.6459,73.5430713 72.9699,73.0250713 73.5989,72.8160713 C74.5579,72.4970713 75.2789,71.7840713 76.1669,71.3530713 C79.7419,71.1190713 83.2429,71.8690713 86.7749,72.1840713 C87.7789,72.2730713 88.7599,72.2080713 89.7509,72.2050713 C90.0879,72.2040713 90.5499,72.1990713 90.4949,71.7080713 C90.4529,71.3350713 90.0769,71.1600713 89.6949,71.1670713 C88.8149,71.1830713 87.9329,71.1830713 87.0569,71.2580713 C86.1079,71.3400713 85.1899,71.2540713 84.2839,70.9790713 C84.2509,69.8390713 85.2109,69.7680713 85.9349,69.5310713 C86.7099,69.2780713 87.5469,69.3550713 88.3579,69.3110713 C89.7969,69.3940713 91.1649,69.9350713 92.6109,69.9750713 C95.3619,70.2240713 97.9199,71.0780713 100.5349,71.9820713 C103.9559,73.1650713 107.4389,72.5580713 110.4859,70.3660713 C110.9129,70.0590713 111.2949,69.6830713 111.8279,69.5640713 C112.5239,69.4110713 113.2709,69.2640713 113.8259,69.8140713 C114.3469,70.3290713 113.8709,70.9060713 113.7099,71.4460713 C113.1959,73.1680713 114.1599,74.3290713 116.1849,74.0950713 C119.4809,73.7130713 122.7989,73.3590713 125.9539,72.2090713 C132.8299,72.5940713 139.6849,71.9840713 146.5359,71.6310713 C154.5079,71.2200713 162.4539,72.0230713 170.4129,71.7770713 C171.4059,71.7460713 171.4999,72.0900713 171.1539,72.9130713 C170.7879,73.7830713 170.1929,74.2790713 169.3339,74.6730713 C165.8359,76.2770713 162.0969,76.2040713 158.4389,76.0180713 C155.5759,75.8720713 152.7169,76.2490713 149.8499,75.8570713 C148.8859,75.7250713 147.8129,75.3140713 146.7799,75.8810713 C151.9459,76.9810713 157.2079,76.4540713 162.6619,76.8120713 C160.5879,78.6050713 158.8809,80.4750713 155.8349,80.5310713 C149.7519,80.6450713 143.7069,81.0270713 137.6349,79.8970713 C134.2769,79.2710713 130.7359,79.3560713 127.3469,80.2270713 C122.0899,81.5790713 116.8939,80.5210713 111.7049,79.8920713 C107.7179,79.4090713 103.7249,79.1690713 99.6909,79.0360713 C100.9669,79.2410713 101.9679,80.5170713 103.4229,79.8920713 C103.9319,79.6720713 104.3309,79.9180713 104.7589,80.0960713 C106.6129,80.9510713 107.9499,82.4300713 109.3009,83.8820713 C109.6909,84.3020713 110.1419,84.8470713 109.8649,85.4380713 C109.5909,86.0220713 108.8899,86.0010713 108.3099,86.0530713 C107.4319,86.1320713 106.5369,86.1650713 105.6939,85.9070713 C101.4749,84.6160713 97.1559,84.7680713 92.8289,84.9270713 C90.3679,85.0170713 87.9189,84.8030713 85.4909,84.4310713 C84.6079,84.2960713 83.4679,84.1460713 84.0379,82.6940713" id="Fill-6" fill="#A86B28"></path>
                <path d="M155.2014,70.6378713 C155.5864,68.9648713 157.2184,68.5658713 158.4494,67.5858713 C155.7174,66.8008713 153.2034,67.0478713 150.7214,68.0728713 C148.1924,69.1178713 145.6444,69.9498713 142.9674,68.4538713 C142.6444,68.2738713 142.1644,68.3768713 141.7584,68.3398713 C139.2364,68.1138713 139.1344,68.0018713 139.1154,65.4648713 C139.1044,63.9938713 140.3874,62.6488713 141.9374,62.3428713 C144.7694,61.7838713 147.6394,61.7768713 150.5024,61.6558713 C151.7084,61.6038713 152.8074,61.3418713 153.6504,60.3788713 C154.5604,59.3398713 154.4264,58.8188713 153.0624,58.4818713 C152.3864,58.3138713 151.6794,58.1328713 150.9944,58.1618713 C148.9934,58.2438713 147.0444,57.8588713 145.0714,57.6898713 C143.8714,57.5868713 142.6284,57.6168713 141.4164,58.0118713 C140.4754,58.3178713 139.4484,58.3598713 138.4654,58.0758713 C134.2904,56.8658713 130.1434,57.2648713 126.0054,58.2718713 C125.7784,58.3268713 125.5384,58.4468713 125.3244,58.4128713 C124.0744,58.2168713 122.4274,58.3118713 122.1214,56.8068713 C121.7944,55.2018713 123.5304,55.3498713 124.4614,55.0728713 C127.4694,54.1758713 130.5644,54.3748713 133.6734,54.4488713 C137.5894,54.5428713 141.5214,54.4408713 145.4254,53.9078713 C148.6234,53.4708713 151.8484,53.3688713 155.0664,53.5258713 C155.8794,53.5658713 156.7114,53.7178713 157.5064,53.5918713 C158.9414,53.3638713 159.6194,53.7288713 159.1764,55.2808713 C152.7204,55.0788713 146.2774,55.7088713 139.8334,55.6328713 C137.2224,55.6018713 134.5814,55.7968713 131.9474,55.4298713 C129.8244,55.1328713 127.7334,55.8768713 125.6554,56.1168713 C125.6264,56.7188713 125.9384,56.6338713 126.1214,56.6278713 C130.8664,56.4738713 135.6134,56.0408713 140.3574,56.4468713 C143.0644,56.6778713 145.7134,56.2688713 148.3904,56.1568713 C155.2834,55.8678713 162.1724,56.4378713 169.0624,56.5848713 C172.8504,56.6658713 176.6884,56.2958713 180.4334,55.6918713 C182.4764,55.3628713 184.3954,56.0228713 186.6524,55.5638713 C185.5784,57.5048713 184.6114,59.2058713 183.6914,60.9318713 C183.2974,61.6718713 182.6834,61.7508713 181.9424,61.8188713 C179.1304,62.0758713 176.3234,61.3938713 173.5134,61.8198713 C169.4034,62.4428713 165.2664,63.0748713 161.1194,62.9178713 C158.4034,62.8158713 155.7954,63.7428713 153.0874,63.2548713 C154.7554,63.9018713 156.4494,64.1468713 158.1334,63.6068713 C159.2754,63.2408713 160.3304,63.7588713 161.4444,63.7028713 C165.4204,63.5008713 169.3744,63.1108713 173.3104,62.5248713 C176.2944,62.0808713 179.2814,62.7148713 182.2684,62.5108713 C183.1684,62.4498713 183.0114,62.9048713 182.6664,63.4948713 C181.0114,66.3248713 178.0584,66.7348713 175.2974,67.3108713 C170.9094,68.2268713 166.4334,68.7438713 162.0714,69.7568713 C160.3584,70.1548713 158.7754,71.0798713 156.9124,70.9308713 C156.3254,70.8838713 155.7394,70.9298713 155.2014,70.6378713" id="Fill-8" fill="#AA6E29"></path>
                <path d="M84.0379,82.6940713 C84.0169,83.7360713 84.7339,83.9230713 85.5489,84.0010713 C88.8659,84.3220713 92.1799,84.4500713 95.5209,84.3570713 C98.7089,84.2670713 101.9339,84.1280713 105.0439,85.2720713 C106.4849,85.8030713 108.0429,85.6640713 109.6859,85.4390713 C108.6299,83.0490713 106.1559,82.0560713 104.7589,80.0960713 C108.2889,79.8970713 111.6949,80.9080713 115.1789,81.1610713 C116.8049,81.2790713 118.4279,81.5020713 120.0549,81.5370713 C124.6129,81.6350713 129.1749,81.6190713 133.7319,81.7350713 C135.5909,81.7830713 137.4459,82.0390713 139.2999,82.2320713 C140.1389,82.3190713 140.6199,82.8990713 141.0259,83.7250713 C137.3499,84.7950713 133.5949,84.0690713 129.9569,84.4750713 C126.4229,84.8680713 122.7529,84.3090713 119.3029,85.4200713 C119.3019,85.5770713 119.3019,85.7330713 119.3009,85.8890713 C122.4619,86.4220713 125.6239,86.9550713 129.2099,87.5590713 C127.6589,88.2190713 126.5269,88.3150713 125.3679,88.4140713 C118.1689,89.0280713 110.9789,88.5220713 103.7999,88.1530713 C99.3909,87.9260713 95.0159,87.1110713 90.6109,86.7160713 C87.5329,86.4400713 84.4269,86.2690713 81.3399,86.3360713 C76.6549,86.4370713 71.9819,86.2640713 67.3049,86.1330713 C65.2109,86.0740713 63.1179,85.8760713 61.0329,85.6640713 C60.0539,85.5640713 59.0999,85.2680713 58.4789,84.1520713 C62.4379,83.9920713 66.2679,83.7370713 70.0979,83.7330713 C71.6799,83.7320713 73.2209,83.8710713 74.7769,83.4110713 C77.8039,82.5180713 80.9479,82.9070713 84.0379,82.6940713" id="Fill-10" fill="#A76C28"></path>
                <path d="M69.657,5.5962713 C69.775,5.4082713 69.872,5.0752713 70.014,5.0542713 C73.3,4.5782713 76.607,4.0082713 79.894,4.8932713 C82.293,5.5382713 84.696,5.8712713 87.171,5.6722713 C94.069,5.1152713 100.974,6.1812713 107.876,5.5742713 C109.139,5.4632713 110.383,6.0902713 110.391042,7.4602713 C110.399,8.6952713 109.262,9.3262713 108.041,9.4012713 C105.883,9.5332713 103.69,9.3912713 101.567,9.7202713 C97.842,10.2982713 94.119,10.1652713 90.388,10.1222713 C87.589,10.0912713 84.881,8.8702713 82.045,9.4132713 C78.606,10.0722713 75.062,9.8102713 71.646,10.7722713 C69.528,11.3692713 67.377,10.4292713 65.219,10.3522713 C62.85,10.2682713 60.498,9.6832713 58.14,9.3082713 C57.698,9.2372713 57.07,9.2732713 57.018,8.7252713 C56.975,8.2622713 57.479,7.8982713 57.886,7.7062713 C58.512,7.4102713 59.158,7.1222713 59.891,7.1162713 C61.389,7.1022713 62.763,6.6392713 64.041,5.8742713 C66.734,5.8282713 69.355,6.3372713 71.983,6.8472713 C74.145,7.2672713 76.324,7.6382713 78.598,7.0752713 C75.618,6.5822713 72.637,6.0892713 69.657,5.5962713" id="Fill-12" fill="#B97D2C"></path>
                <path d="M125.9538,72.2085713 C124.4408,73.7465713 122.3128,73.7465713 120.4558,74.0185713 C118.6148,74.2875713 116.7088,74.9005713 114.7738,74.3825713 C113.1358,73.9445713 112.5828,72.9075713 113.1618,71.3745713 C113.3308,70.9265713 114.1248,70.4385713 113.5808,70.0435713 C112.9848,69.6105713 112.0458,69.6805713 111.4418,70.1825713 C110.7128,70.7875713 109.9488,71.3075713 109.1128,71.7245713 C105.8538,73.3515713 102.5038,73.5365713 99.1988,71.9945713 C97.3608,71.1365713 95.4958,70.6875713 93.4968,70.6255713 C93.2338,70.6175713 92.9768,70.4285713 92.7168,70.3235713 C94.6068,69.1515713 96.5068,69.9435713 98.2918,70.4925713 C100.6928,71.2315713 103.1138,71.3965713 105.5788,71.4045713 C107.3528,71.4105713 108.9298,70.9195713 110.1918,69.6025713 C110.8098,68.9565713 111.6138,68.5815713 112.4068,68.0335713 C99.5458,67.4665713 86.6878,67.3345713 73.8218,67.8425713 C76.3748,67.6375713 78.8358,68.3535713 81.3378,68.6105713 C83.1448,68.7955713 84.9368,69.0985713 86.7678,69.0255713 C87.3998,68.9995713 88.2288,68.8105713 88.4608,69.7875713 C86.9978,69.9355713 85.3858,69.5645713 84.2838,70.9785713 C82.4188,70.9235713 80.5748,70.6785713 78.7638,70.2445713 C75.6478,69.4985713 72.4558,69.3745713 69.2888,69.1865713 C64.2238,68.8855713 59.1438,68.8305713 54.0698,68.6565713 C53.8588,68.6485713 53.6518,68.4805713 53.4428,68.3865713 C53.9278,68.2905713 54.5028,68.4995713 54.8578,67.9665713 C55.6538,67.2955713 56.4758,67.2555713 57.3238,67.8665713 C63.0058,67.8335713 68.5618,66.4185713 74.2078,66.2455713 C76.4348,66.1775713 78.6938,65.6575713 80.9478,66.1485713 C82.4288,66.4705713 83.8278,65.7405713 85.2858,65.6835713 C89.8628,65.5045713 94.4438,65.0845713 99.0138,65.1885713 C105.7788,65.3425713 112.5478,65.1485713 119.3148,65.6345713 C122.4428,65.8595713 125.5988,66.0665713 128.7528,66.0785713 C130.1348,66.0845713 132.1298,66.1725713 132.2058,67.6925713 C132.2718,69.0255713 130.2198,68.8835713 129.0358,69.2015713 C126.0248,70.0095713 122.8398,69.4355713 119.8348,70.3035713 C119.0048,70.5435713 118.1118,70.6995713 117.4908,71.4055713 C116.6808,71.4515713 115.8708,71.4985713 115.0608,71.5455713 C114.4168,72.9955713 115.3918,73.4935713 116.4488,73.3495713 C118.5618,73.0625713 120.7658,73.2495713 122.7778,72.3255713 C123.8358,72.2865713 124.8948,72.2475713 125.9538,72.2085713" id="Fill-14" fill="#A76C28"></path>
                <path d="M137.2861,11.1055713 C139.0921,12.6645713 141.1901,12.0385713 143.1461,11.7135713 C145.4431,11.3305713 147.6881,10.6455713 150.0391,10.5415713 C151.3631,10.4825713 152.4311,11.0085713 153.3811,11.8505713 C153.7651,12.1915713 154.0951,12.6615713 153.3961,12.9295713 C152.3781,13.3195713 151.2271,13.9895713 150.2151,13.5335713 C145.9321,11.6055713 141.7391,13.0535713 137.5181,13.6495713 C135.9031,13.8785713 134.3031,14.2365713 132.6831,14.4065713 C125.0911,15.2015713 117.4031,14.9035713 109.8601,15.8415713 C104.0591,16.5635713 98.4341,15.4735713 92.7281,15.6375713 C91.4401,15.6745713 90.2531,15.2925713 90.4181,13.5195713 C90.4871,12.7725713 90.7371,12.4305713 91.4891,12.1745713 C93.7541,11.4015713 96.0191,12.0275713 98.2711,12.0625713 C101.2401,12.1095713 104.2031,12.4455713 107.1701,12.6195713 C112.3341,12.9225713 117.4861,12.4685713 122.6431,12.3865713 C125.0871,12.3475713 127.5351,12.6265713 129.9811,12.7665713 C130.8861,12.8185713 131.5931,12.5265713 131.9981,11.6695713 C133.7611,11.4815713 135.5231,11.2935713 137.2861,11.1055713" id="Fill-16" fill="#B97D2C"></path>
                <path d="M47.4038,75.6322713 C43.8248,75.7862713 40.3528,74.9402713 36.8328,74.5302713 C33.7148,74.1682713 30.5878,73.8732713 27.4568,73.6702713 C26.7768,73.6262713 26.2328,73.4052713 25.6878,73.1382713 C25.2528,72.9242713 25.1218,72.3802713 25.1878,71.9472713 C25.2548,71.5142713 25.7478,71.6132713 26.0758,71.6112713 C31.6368,71.5882713 37.1818,70.7432713 42.7548,71.2652713 C42.9288,71.2812713 43.1068,71.2692713 43.2828,71.2592713 C50.9408,70.7992713 58.6038,70.8702713 66.2678,71.0732713 C66.7058,71.5772713 66.5318,72.0562713 66.1628,72.4822713 C64.8408,74.0042713 63.5188,75.1712713 61.1468,75.0392713 C56.9038,74.8042713 52.6478,75.4572713 48.3858,75.2982713 C48.0288,75.2852713 47.7068,75.4492713 47.4038,75.6322713" id="Fill-18" fill="#B5732A"></path>
                <path d="M113.9975,3.8819713 C112.0095,3.9669713 110.0215,4.0519713 108.0325,4.1359713 C107.3385,3.6669713 106.5615,3.8309713 105.8095,3.8639713 C100.3105,4.1059713 94.8655,3.5469713 89.4255,2.8399713 C88.5635,2.7269713 87.6765,2.8029713 86.7645,2.7909713 C90.1715,0.368971302 114.8925,0.185971302 119.2165,2.6139713 C117.4665,3.3319713 115.5925,3.0849713 113.9975,3.8819713" id="Fill-20" fill="#B97D2C"></path>
                <path d="M47.4038,75.6322713 C47.8268,74.7462713 48.6608,74.8872713 49.3918,74.8952713 C53.8048,74.9382713 58.1998,74.1732713 62.6258,74.6362713 C63.6388,74.7422713 65.8948,72.4202713 66.2678,71.0722713 C69.5778,70.7932713 72.8738,71.0172713 76.1668,71.3522713 C76.0338,71.6122713 75.9498,72.0532713 75.7618,72.1022713 C73.2618,72.7562713 73.2188,74.7272713 73.2098,76.7282713 C72.3478,76.1072713 71.2068,76.8702713 70.3628,76.1582713 C70.0118,75.6692713 69.6618,75.6612713 69.3128,76.1602713 C65.0758,76.3842713 60.8578,76.0492713 56.6368,75.7492713 C55.5958,75.6752713 54.5378,75.7102713 53.4948,75.7912713 C51.4558,75.9492713 49.4308,75.8312713 47.4038,75.6322713" id="Fill-22" fill="#A76C28"></path>
                <path d="M54.6336,79.9628713 C52.5106,79.8128713 50.3876,79.6628713 48.2646,79.5128713 C46.8436,78.7348713 45.2766,79.2018713 43.7866,79.0018713 C43.0016,78.8968713 42.0986,78.8968713 42.0995992,77.9118713 C42.1016,76.9468713 43.0346,76.8258713 43.7996,76.7538713 C45.4806,76.5958713 47.1776,77.1088713 48.8556,76.6538713 C54.5216,76.2698713 60.1666,76.7588713 65.8146,77.0818713 C66.4416,77.3608713 66.9646,77.7438713 66.7846,78.5248713 C66.6176,79.2448713 66.0176,79.5058713 65.3566,79.6298713 C64.3666,79.8148713 63.3906,79.5898713 62.4076,79.5498713 C60.4356,79.4698713 58.4486,79.4748713 56.5066,79.9788713 C55.8876,80.1388713 55.2556,80.2258713 54.6336,79.9628713" id="Fill-24" fill="#B5732A"></path>
                <path d="M143.9761,81.3269713 C147.1371,81.8829713 150.2961,81.1919713 153.4531,81.3029713 C156.8151,81.4209713 159.8951,80.8559713 162.1691,78.1149713 C163.3331,76.7129713 165.0131,76.6829713 166.5651,76.2539713 C168.7931,75.6369713 171.2481,75.3369713 172.1411,72.6369713 C172.3241,72.0829713 172.6221,72.3519713 172.9241,72.5669713 C173.5211,72.9929713 173.6071,73.5079713 173.1671,74.0629713 C171.9341,75.6189713 170.2461,76.6479713 168.4901,77.3839713 C167.2801,77.8909713 166.0581,78.3769713 165.1591,79.2539713 C163.2021,81.1589713 160.8251,81.6889713 158.2591,81.7849713 C153.3451,81.9689713 148.4551,82.4299713 143.5801,83.0549713 C142.9841,83.1309713 142.5451,82.9629713 142.2411,82.4469713 C142.5651,81.6799713 143.5001,81.8589713 143.9761,81.3269713" id="Fill-26" fill="#915C24"></path>
                <path d="M77.6747,82.1757713 C78.2177,81.2397713 79.1157,81.0867713 80.0877,81.0507713 C83.3687,80.9297713 86.6477,80.7267713 89.9287,80.6827713 C91.9867,80.6547713 93.9527,79.9417713 96.0197,80.0547713 C97.9637,80.1617713 98.4957,80.7147713 98.1457,82.4097713 C91.3267,81.9247713 84.5027,81.8377713 77.6747,82.1757713" id="Fill-28" fill="#A76C28"></path>
                <path d="M140.9422,84.7314713 C140.0162,85.5774713 139.1642,85.3544713 138.4102,85.3954713 C136.8942,85.4784713 135.5532,85.8874713 134.4612,87.0114713 C133.0022,88.5134713 131.7292,88.4914713 129.9172,87.2794713 C128.2562,86.1704713 126.2192,86.3534713 124.3432,85.9884713 C123.9662,85.9144713 123.5042,86.0874713 123.2482,85.4424713 C129.0702,85.2084713 134.8372,84.9764713 140.9422,84.7314713" id="Fill-30" fill="#8B5522"></path>
                <path d="M48.8553,76.6542713 C48.7193,77.6542713 47.9503,77.4922713 47.3733,77.3262713 C46.0823,76.9562713 44.8053,77.2632713 43.5233,77.2432713 C43.0493,77.2362713 42.4353,77.2842713 42.4003,77.8382713 C42.3563,78.5332713 43.0773,78.4672713 43.5503,78.6382713 C45.0763,79.1882713 46.8613,78.3282713 48.2643,79.5132713 C45.5213,78.7772713 42.5653,80.0442713 39.8713,78.5702713 C39.1763,78.1902713 39.0763,78.9482713 39.0853,79.5002713 C38.2553,79.3382713 37.8413,78.6652713 37.4013,78.0652713 C36.8963,77.3772713 36.6033,76.6112713 37.1693,75.8002713 C37.6953,75.0472713 38.3853,75.3692713 39.0623,75.5262713 C41.8493,76.1722713 44.6793,76.4082713 47.5363,76.3682713 C47.9973,76.3622713 48.4813,76.2562713 48.8553,76.6542713" id="Fill-32" fill="#A76C28"></path>
                <path d="M54.6336,79.9628713 C56.7126,79.8428713 58.6276,78.7458713 60.7796,78.9948713 C62.0956,79.1468713 63.4306,79.1668713 64.7576,79.1908713 C65.3746,79.2018713 66.1056,79.3198713 66.4466,78.5878713 C66.7676,77.8968713 66.0626,77.5698713 65.8146,77.0818713 C67.9346,76.7848713 70.0456,77.0068713 72.1586,77.1768713 C69.7436,79.4198713 67.0836,81.0058713 63.5996,80.2618713 C61.3216,79.7748713 59.0536,80.1808713 56.7846,80.2978713 C56.0216,80.3378713 55.2926,80.4608713 54.6336,79.9628713" id="Fill-34" fill="#A76C28"></path>
                <path d="M172.2324,36.3497713 C176.8284,35.0837713 181.6644,35.1007713 186.2794,33.8307713 C186.8094,33.6847713 187.5224,33.7717713 187.4574,34.4567713 C187.3934,35.1447713 187.6304,36.2117713 186.3154,36.2387713 C184.3184,36.2817713 182.3054,36.5977713 180.3304,36.4307713 C177.6324,36.2037713 174.9534,36.4237713 172.2324,36.3497713" id="Fill-36" fill="#915C24"></path>
                <path d="M163.7397,27.0231713 C168.5737,26.9331713 173.3647,25.9041713 178.2347,26.0021713 C178.6677,26.0111713 179.3547,25.7831713 179.4017,26.4161713 C179.4617,27.2261713 178.6727,26.9551713 178.2117,27.0331713 C173.4067,27.8501713 168.5937,28.0321713 163.7397,27.0231713" id="Fill-38" fill="#956026"></path>
                <path d="M173.5907,18.0152713 C174.3217,18.7622713 174.8837,19.7012713 175.0537,20.6542713 C175.2367,21.6792713 175.8157,21.9132713 176.5877,22.1312713 C171.4427,22.3372713 166.2977,22.5442713 160.8807,22.7622713 C161.9667,22.1272713 162.9177,22.0482713 163.8907,21.9602713 C166.6747,21.7092713 169.4567,21.4362713 172.2307,21.1082713 C173.4857,20.9592713 174.4677,20.5332713 173.4057,19.0042713 C173.1777,18.6762713 173.4787,18.3382713 173.5907,18.0152713" id="Fill-40" fill="#976026"></path>
                <path d="M122.7773,72.3259713 C122.7183,72.4259713 122.6843,72.5739713 122.5973,72.6179713 C120.3173,73.7719713 117.8663,73.8049713 115.4003,73.6649713 C114.7933,73.6299713 114.2123,73.3089713 114.1283,72.6679713 C114.0523,72.0879713 114.5783,71.7829713 115.0603,71.5449713 C116.9223,72.7199713 119.0583,71.8689713 121.0223,72.3389713 C121.5743,72.4709713 122.1903,72.3379713 122.7773,72.3259713" id="Fill-42" fill="#B5732A"></path>
                <path d="M143.9761,81.3269713 C143.7891,82.3049713 142.8801,82.1669713 142.2421,82.4469713 C139.0491,81.0259713 135.6291,81.2699713 132.2681,81.0779713 C131.3291,81.0239713 130.3301,81.4209713 129.4551,80.6779713 C131.2231,80.4399713 132.9711,80.3479713 134.7601,80.4089713 C137.8591,80.5129713 140.8951,81.1249713 143.9761,81.3269713" id="Fill-44" fill="#9C6627"></path>
                <path d="M69.3129,76.1605713 C69.2619,75.5675713 69.3619,75.0275713 70.1179,75.1555713 C70.8079,75.2735713 70.2229,75.8325713 70.3629,76.1575713 C70.0129,76.1585713 69.6629,76.1595713 69.3129,76.1605713" id="Fill-46" fill="#B5732A"></path>
                <path d="M57.3238,67.8666713 C56.5018,67.8996713 55.6798,67.9336713 54.8578,67.9666713 C53.9438,67.7346713 53.0248,67.6696713 52.0768,67.7126713 C45.3408,68.0226713 38.5968,67.8426713 31.8558,68.1056713 C28.7158,68.2276713 25.5728,67.9386713 22.4328,68.5146713 C21.2278,68.7356713 19.9898,68.2436713 19.9008,66.7326713 C19.8148,65.2646713 21.0168,65.0836713 22.0938,65.0706713 C24.5478,65.0426713 26.9958,65.3276713 29.4598,65.1276713 C31.8488,64.9336713 34.2538,64.6256713 36.6208,64.5656713 C40.4508,64.4686713 44.2918,64.3836713 48.1288,64.3686713 C48.4708,64.3676713 48.9028,64.3736713 49.1408,64.5656713 C51.2268,66.2416713 53.6468,65.9426713 56.0458,65.8046713 C56.2218,65.7946713 56.4018,65.7726713 56.5738,65.7996713 C57.2128,65.9006713 57.9348,65.9846713 58.1768,66.6736713 C58.4098,67.3386713 57.5258,67.4006713 57.3238,67.8666713" id="Fill-48" fill="#BA7D2D"></path>
                <path d="M118.9889,9.3552713 C118.5389,9.1502713 117.5689,9.7822713 117.6789,8.8572713 C117.7709,8.0872713 118.7449,7.9322713 119.5189,7.9022713 C120.0389,7.8832713 120.7849,7.8512713 120.7519,8.4922713 C120.6939,9.6032713 119.6519,9.1742713 118.9889,9.3552713" id="Fill-50" fill="#B97D2C"></path>
                <path d="M17.8394,63.1504713 C18.3854,62.6784713 18.9404,62.5934713 19.6844,63.0214713 C18.9864,63.5864713 18.4144,63.4224713 17.8394,63.1504713" id="Fill-52" fill="#BA7D2D"></path>
                <path d="M88.4612,69.7878713 C86.7372,69.0398713 84.9092,69.6278713 83.1212,69.3958713 C80.0902,69.0018713 77.0892,68.1588713 73.9772,68.4098713 C73.5012,68.4488713 72.9962,68.1198713 72.3872,67.9238713 C77.0742,66.4728713 111.8912,66.6328713 114.1832,68.2348713 C112.2002,68.6118713 110.7932,69.6278713 109.4862,70.9098713 C108.7572,71.6258713 107.6242,71.7808713 106.5432,71.9028713 C102.7902,72.3248713 99.2582,71.2358713 95.6902,70.4138713 C94.6822,70.1808713 93.7072,70.3468713 92.7172,70.3228713 C91.2332,70.6578713 89.8972,69.8328713 88.4612,69.7878713" id="Fill-54" fill="#B5732A"></path>
                <path d="M92.9361,28.3851713 C93.1531,26.9151713 92.5021,26.6101713 91.4481,26.9281713 C89.4611,27.5281713 87.5311,28.2581713 85.7701,29.4031713 C85.1441,29.8091713 84.9581,30.2591713 85.0091,30.9731713 C85.2151,33.8681713 85.1581,36.7491713 84.7451,39.6361713 C83.8181,46.1041713 83.5771,52.6671713 82.0671,59.0551713 C81.9531,59.5361713 81.8221,59.9901713 82.4071,60.2931713 C84.2481,61.2451713 86.0671,62.2411713 87.9231,63.1641713 C88.5791,63.4891713 89.1611,63.4471713 89.2591,62.4591713 C89.3591,61.4581713 89.5651,60.4681713 89.7281,59.4741713 C90.5351,54.5331713 90.9651,49.5501713 91.5001,44.5761713 C92.0891,39.1151713 92.6161,33.6521713 92.9361,28.3851713 M112.6141,44.4021713 C110.6761,39.5411713 109.7011,34.7571713 108.9111,29.9331713 C108.4921,27.3751713 108.5621,27.3651713 106.1211,27.5961713 C105.8001,27.6261713 105.4731,27.6021713 105.1551,27.6481713 C103.0531,27.9541713 100.9481,28.2271713 98.9981,29.1821713 C98.3301,29.5091713 98.0241,29.9181713 98.0561,30.6681713 C98.4411,39.9131713 96.5521,48.9391713 95.3211,58.0221713 C95.1781,59.0811713 95.5521,59.3841713 96.1531,59.7501713 C98.3391,61.0821713 100.5511,62.3701713 102.7581,63.6681713 C103.7071,64.2261713 104.0941,63.9591713 104.0951,62.8421713 C104.0971,61.0571713 103.7001,59.3201713 103.5621,57.5581713 C103.2021,52.9301713 103.6671,48.3461713 104.4021,43.6921713 C105.4821,47.0821713 106.6441,50.3341713 107.5391,53.6591713 C108.3301,56.5981713 109.3611,59.4331713 110.5991,62.1961713 C110.7781,62.5961713 110.8641,63.7161713 111.8731,63.0371713 C113.7211,61.7931713 115.8631,61.3871713 117.9481,60.7841713 C118.6901,60.5701713 120.3621,60.6951713 119.1461,59.0031713 C119.0171,58.8241713 119.1281,58.4761713 119.1141,58.2071713 C118.9361,54.5581713 119.7641,50.9801713 119.8951,47.3611713 C120.1011,41.7021713 120.8601,36.1141713 121.7091,30.5341713 C121.8661,29.5051713 121.3781,29.5791713 120.7631,29.6501713 C119.7001,29.7731713 118.5211,29.7001713 117.6141,30.1561713 C116.5621,30.6841713 115.0201,29.7611713 114.4741,31.0231713 C114.0061,32.1061713 114.0901,33.4291713 113.9271,34.6451713 C113.5041,37.7971713 113.0791,40.9481713 112.6141,44.4021713" id="Fill-56" fill="#FCFDFE"></path>
                <path d="M52.1571,60.4693713 C52.5261,58.0583713 52.7911,55.9283713 53.1861,53.8233713 C53.8481,50.2933713 54.2611,46.7123713 55.4061,43.2763713 C55.5661,42.7963713 55.7601,42.4373713 56.1291,42.4203713 C56.6331,42.3973713 56.6141,43.0953713 56.6561,43.3403713 C57.7411,49.5363713 58.7881,55.7383713 59.7571,61.9533713 C60.1011,64.1613713 60.1681,64.3453713 62.3471,64.3403713 C63.2071,64.3393713 64.1141,64.0903713 64.9171,64.2903713 C66.5101,64.6863713 67.0451,63.9363713 67.2321,62.5713713 C67.6261,59.7073713 68.1301,56.8693713 68.7931,54.0493713 C69.3801,51.5553713 69.6871,48.9963713 70.1861,46.4793713 C70.2941,45.9383713 70.5371,45.1623713 71.1171,45.1083713 C71.5911,45.0643713 71.6821,45.7783713 71.7591,46.2833713 C72.5131,51.2283713 73.2851,56.1693713 74.0621,61.1833713 C76.3631,59.9983713 77.9331,57.8633713 80.0621,56.4573713 C80.3231,56.2853713 80.0261,56.0033713 79.9951,55.7753713 C79.7531,53.9823713 78.9141,52.3793713 78.3111,50.7253713 C76.9941,47.1093713 76.4151,43.3983713 76.0611,39.6003713 C75.7861,36.6573713 75.9031,33.7543713 76.2811,30.8413713 C76.3641,30.1983713 76.2721,29.5953713 75.3661,29.8333713 C73.9681,30.2013713 72.5541,30.2063713 71.1181,30.2293713 C70.2931,30.2433713 69.3591,30.3703713 68.8061,31.4943713 C68.2391,32.6463713 67.6771,33.7453713 67.3951,35.0133713 C66.4131,39.4343713 65.3891,43.8463713 64.3141,48.2443713 C64.2381,48.5583713 64.6451,49.1973713 63.9821,49.2273713 C63.3891,49.2553713 63.4891,48.6903713 63.4131,48.2813713 C62.9161,45.6193713 62.5571,42.9333713 62.4791,40.2333713 C62.3701,36.4773713 61.6711,32.7463713 61.9941,28.9733713 C62.1471,27.1873713 61.7141,26.7773713 59.9571,27.2393713 C58.4261,27.6413713 56.8471,27.8723713 55.3381,27.5773713 C54.1761,27.3503713 53.1741,27.7963713 52.0981,27.7573713 C51.8081,27.7463713 51.6631,27.5973713 51.6161,28.0373713 C51.4031,30.0193713 51.0951,31.9923713 50.9061,33.9763713 C50.4981,38.2573713 49.2421,42.3483713 48.1341,46.4663713 C47.5381,48.6813713 46.6651,50.8263713 45.8461,52.9763713 C45.3451,54.2893713 45.7101,55.1013713 46.8411,55.9193713 C48.6551,57.2343713 50.7551,58.2233713 52.1571,60.4693713 M62.8551,26.1083713 C62.4481,32.7473713 63.1631,39.3373713 63.7341,46.0373713 C64.5101,45.4663713 64.3701,44.6023713 64.5181,43.9043713 C65.3211,40.1113713 66.0901,36.3113713 67.2591,32.6093713 C68.0571,30.0843713 68.9391,29.4283713 71.5251,29.3193713 C72.9701,29.2583713 74.4131,29.2513713 75.8351,28.8573713 C76.9781,28.5413713 77.3421,29.0333713 77.1581,30.2333713 C76.5201,34.4113713 76.8271,38.5863713 77.3031,42.7643713 C77.8011,47.1453713 79.2391,51.2613713 80.6991,55.3703713 C81.0071,56.2373713 80.8421,56.8103713 80.2171,57.3373713 C78.2541,58.9923713 76.2831,60.6393713 74.3041,62.2763713 C73.7301,62.7513713 73.4441,62.6973713 73.3191,61.8413713 C72.6141,57.0203713 71.8491,52.2083713 71.0301,46.9093713 C70.1081,51.7333713 69.2701,56.0943713 68.4461,60.4573713 C68.2491,61.5003713 67.9241,62.5613713 67.9761,63.5983713 C68.0491,65.0203713 67.3531,65.2113713 66.2271,65.1763713 C64.3141,65.1183713 62.3981,65.0913713 60.4841,65.1133713 C59.8161,65.1203713 59.6411,64.9243713 59.4911,64.2503713 C58.3331,59.0143713 57.5591,53.7213713 56.9401,48.3993713 C56.7751,46.9743713 56.3601,45.5793713 55.8411,44.1293713 C55.0481,48.6343713 54.2731,53.1423713 53.4501,57.6423713 C53.2451,58.7653713 53.2031,59.8763713 53.2671,61.0053713 C53.2841,61.3023713 53.4031,61.6863713 52.9651,61.8043713 C52.6911,61.8783713 52.4481,61.7793713 52.2591,61.5443713 C50.5471,59.4213713 48.2701,57.9493713 46.1371,56.3303713 C44.6771,55.2223713 44.6331,54.0253713 45.1521,52.4593713 C46.3061,48.9813713 47.4871,45.5023713 48.4121,41.9583713 C49.5531,37.5933713 50.5381,33.1773713 50.6761,28.6293713 C50.7101,27.5133713 51.0921,26.7713713 52.3931,26.8293713 C52.7581,26.8463713 53.2801,27.0613713 53.5001,26.4843713 C54.0371,26.4623713 54.5751,26.4413713 55.1131,26.4193713 C57.5011,26.8903713 59.8651,26.7323713 62.2101,26.1343713 C62.4251,26.1253713 62.6401,26.1173713 62.8551,26.1083713" id="Fill-58" fill="#6E3A16"></path>
                <path d="M130.1036,59.0122713 C129.4246,59.2752713 129.0226,58.7922713 129.2616,58.3412713 C130.7796,55.4822713 131.0356,52.2992713 131.5676,49.2222713 C132.1556,45.8222713 133.0076,42.4432713 132.9536,38.9042713 C130.4376,38.7982713 127.8786,39.0082713 125.3636,39.5622713 C124.6296,39.7242713 124.4626,39.5052713 124.5386,38.9262713 C124.8496,36.5522713 125.1836,34.1802713 125.5556,31.8152713 C125.6266,31.3572713 125.9226,31.1122713 126.4906,30.9392713 C129.5316,30.0132713 132.6856,29.7852713 135.7966,29.3622713 C140.4536,28.7282713 145.0756,27.9292713 149.6806,27.0062713 C151.4236,26.6562713 153.1616,26.2782713 155.3366,25.8222713 C153.2726,28.9082713 152.3066,32.0022713 151.2286,35.0522713 C151.0126,35.6662713 150.6986,35.9312713 149.8536,35.9722713 C147.6186,36.0822713 145.3986,36.5142713 143.1776,36.8432713 C142.5626,36.9342713 142.0726,37.1682713 142.1166,37.9732713 C142.1486,38.5552713 141.9376,39.1532713 141.9876,39.7302713 C142.4786,45.3872713 141.4676,50.9062713 140.5706,56.4442713 C140.1026,59.3302713 139.7796,62.2402713 139.3916,65.1382713 C139.1766,65.1472713 138.9616,65.1562713 138.7466,65.1642713 C137.2966,63.7642713 135.5656,62.7692713 133.8376,61.7752713 C132.8756,61.2212713 131.8436,60.7802713 130.9146,60.1782713 C130.5326,59.9302713 129.7566,59.7842713 130.0716,58.9762713 C133.0846,60.4482713 135.9716,62.1532713 138.8356,63.9782713 C139.1356,61.3702713 139.2306,58.9382713 139.7276,56.5922713 C140.5876,52.5212713 140.9086,48.4082713 141.1246,44.2772713 C141.2456,41.9672713 140.7976,39.6622713 141.1276,37.3312713 C141.2456,36.5012713 141.4416,36.4222713 142.1856,36.2432713 C144.7856,35.6162713 147.4386,35.3872713 150.0726,35.0362713 C150.6636,34.9572713 150.3746,34.6702713 150.4476,34.4702713 C151.3606,31.9602713 152.2496,29.4392713 153.6366,26.9912713 C149.9246,27.7662713 146.4086,28.6322713 142.8456,29.2132713 C137.9586,30.0092713 133.0326,30.5602713 128.1346,31.2912713 C127.3536,31.4082713 126.2536,31.3082713 126.1246,32.6172713 C125.9516,34.3672713 125.7736,36.1212713 125.4806,37.8532713 C125.3336,38.7282713 125.4556,38.8952713 126.3376,38.6812713 C128.3896,38.1852713 130.4936,38.0102713 132.5976,37.8772713 C133.1916,37.8402713 134.1366,38.0352713 134.0146,38.4672713 C133.6796,39.6542713 134.0216,40.8242713 133.8126,41.9652713 C133.1666,45.4832713 132.4936,48.9982713 131.7656,52.5002713 C131.3096,54.6932713 131.0176,56.9342713 130.1036,59.0122713" id="Fill-60" fill="#6E3A16"></path>
                <path d="M104.8811,41.3732713 C104.6581,42.0682713 105.2171,42.1862713 105.1831,42.6072713 C105.0761,43.9302713 105.6231,45.1262713 106.0431,46.3042713 C106.7201,48.1992713 107.2981,50.1172713 107.8971,52.0352713 C108.8621,55.1252713 109.4851,58.3452713 111.1011,61.2182713 C111.4041,61.7572713 111.6461,62.0192713 112.2371,61.7672713 C113.8931,61.0602713 115.5621,60.4132713 117.3641,60.1402713 C118.2461,60.0072713 118.5781,59.4292713 118.4681,58.4602713 C118.3301,57.2382713 118.2041,55.9552713 118.4261,54.7652713 C118.9321,52.0552713 118.9911,49.3152713 119.2411,46.5892713 C119.4151,44.6882713 119.4241,42.7752713 119.5711,40.8672713 C119.8341,37.4412713 120.7021,34.0902713 120.7761,30.6412713 C119.5611,30.4952713 118.3541,30.6192713 117.2791,31.0082713 C116.4581,31.3052713 114.9241,30.8672713 114.9161,32.2972713 C114.8941,36.1212713 113.7491,39.8002713 113.6151,43.6062713 C113.5851,44.4422713 113.1921,45.2492713 113.3661,46.1492713 C113.4061,46.3602713 113.3001,47.0502713 112.7271,47.0552713 C112.5661,47.0572713 112.2621,46.8102713 112.2591,46.6722713 C112.2081,44.4622713 111.0851,42.5592713 110.4401,40.5362713 C109.2481,36.8032713 108.9061,32.9062713 107.9231,29.1412713 C107.7781,28.5882713 107.8481,28.0692713 107.0351,28.2232713 C104.6161,28.6822713 102.1871,29.0492713 99.8031,29.7302713 C98.8921,29.9902713 98.8831,30.3332713 98.9201,31.0072713 C99.1181,34.5852713 98.6971,38.1302713 98.4041,41.6862713 C97.9541,47.1502713 97.0211,52.5432713 96.2051,57.9542713 C96.1401,58.3852713 96.0091,58.7682713 96.5961,59.1532713 C98.4921,60.3962713 100.5591,61.3082713 102.5221,62.4172713 C103.1201,62.7562713 103.2741,62.7132713 103.1571,61.9202713 C102.8681,59.9592713 102.5331,57.9752713 102.5591,56.0052713 C102.6021,52.7662713 102.7291,49.5032713 103.1961,46.3062713 C103.4241,44.7482713 103.3141,42.9162713 104.8811,41.3732713 M112.6141,44.4022713 C113.0791,40.9482713 113.5041,37.7972713 113.9271,34.6452713 C114.0901,33.4292713 114.0061,32.1062713 114.4741,31.0232713 C115.0201,29.7612713 116.5631,30.6842713 117.6141,30.1562713 C118.5211,29.7002713 119.7001,29.7732713 120.7631,29.6502713 C121.3781,29.5792713 121.8661,29.5052713 121.7101,30.5342713 C120.8601,36.1142713 120.1011,41.7022713 119.8951,47.3612713 C119.7641,50.9792713 118.9361,54.5582713 119.1151,58.2072713 C119.1281,58.4762713 119.0171,58.8242713 119.1471,59.0032713 C120.3621,60.6952713 118.6901,60.5702713 117.9481,60.7842713 C115.8631,61.3862713 113.7211,61.7922713 111.8731,63.0372713 C110.8641,63.7162713 110.7781,62.5962713 110.5991,62.1962713 C109.3611,59.4332713 108.3301,56.5982713 107.5391,53.6592713 C106.6441,50.3342713 105.4821,47.0822713 104.4021,43.6922713 C103.6671,48.3462713 103.2021,52.9302713 103.5621,57.5582713 C103.7001,59.3202713 104.0981,61.0572713 104.0951,62.8422713 C104.0941,63.9582713 103.7071,64.2262713 102.7581,63.6672713 C100.5511,62.3702713 98.3391,61.0822713 96.1531,59.7502713 C95.5521,59.3842713 95.1781,59.0812713 95.3211,58.0222713 C96.5521,48.9392713 98.4411,39.9132713 98.0561,30.6682713 C98.0241,29.9182713 98.3301,29.5082713 98.9981,29.1812713 C100.9481,28.2272713 103.0531,27.9532713 105.1551,27.6482713 C105.4731,27.6022713 105.8001,27.6262713 106.1211,27.5962713 C108.5621,27.3652713 108.4921,27.3752713 108.9111,29.9322713 C109.7011,34.7572713 110.6761,39.5412713 112.6141,44.4022713" id="Fill-62" fill="#6E3A16"></path>
                <path d="M86.0894,32.0006713 C85.9554,34.5886713 85.9064,37.0916713 85.6764,39.5766713 C85.3874,42.7016713 84.9134,45.8086713 84.5884,48.9306713 C84.2464,52.2136713 83.7554,55.4716713 83.0064,58.6836713 C82.8234,59.4666713 83.1944,59.9706713 83.6934,60.0976713 C85.2534,60.4926713 86.3484,61.7416713 87.8584,62.2046713 C88.5024,62.4016713 88.7724,62.4146713 88.8274,61.8516713 C89.0604,59.4486713 89.6014,57.0756713 89.7964,54.6866713 C90.1434,50.4156713 90.6414,46.1556713 91.0574,41.8966713 C91.4984,37.3796713 91.7354,32.8436713 92.2694,28.3356713 C92.3354,27.7776713 92.0414,27.3346713 91.3934,27.7176713 C90.1394,28.4586713 88.6894,28.7256713 87.4364,29.5216713 C86.4044,30.1756713 85.2134,30.5146713 86.0894,32.0006713 M92.9364,28.3856713 C92.6164,33.6526713 92.0884,39.1146713 91.5004,44.5756713 C90.9644,49.5496713 90.5354,54.5336713 89.7274,59.4736713 C89.5654,60.4686713 89.3584,61.4586713 89.2594,62.4586713 C89.1614,63.4466713 88.5794,63.4896713 87.9234,63.1636713 C86.0674,62.2416713 84.2484,61.2456713 82.4064,60.2926713 C81.8224,59.9906713 81.9534,59.5356713 82.0664,59.0546713 C83.5764,52.6676713 83.8184,46.1046713 84.7444,39.6366713 C85.1584,36.7496713 85.2154,33.8676713 85.0094,30.9736713 C84.9584,30.2586713 85.1444,29.8096713 85.7704,29.4026713 C87.5314,28.2586713 89.4614,27.5276713 91.4484,26.9276713 C92.5014,26.6096713 93.1534,26.9156713 92.9364,28.3856713" id="Fill-64" fill="#6E3A16"></path>
                <path d="M52.1571,60.4693713 C50.7551,58.2233713 48.6551,57.2343713 46.8411,55.9193713 C45.7101,55.1013713 45.3451,54.2893713 45.8461,52.9763713 C46.6651,50.8263713 47.5381,48.6813713 48.1341,46.4663713 C49.2421,42.3483713 50.4981,38.2573713 50.9061,33.9763713 C51.0951,31.9923713 51.4031,30.0193713 51.6161,28.0373713 C51.6631,27.5973713 51.8081,27.7463713 52.0981,27.7573713 C53.1741,27.7963713 54.1761,27.3503713 55.3381,27.5773713 C56.8471,27.8723713 58.4261,27.6413713 59.9571,27.2393713 C61.7141,26.7773713 62.1471,27.1873713 61.9941,28.9733713 C61.6711,32.7463713 62.3701,36.4773713 62.4791,40.2333713 C62.5571,42.9333713 62.9161,45.6193713 63.4131,48.2813713 C63.4891,48.6903713 63.3891,49.2553713 63.9821,49.2273713 C64.6451,49.1973713 64.2381,48.5583713 64.3141,48.2443713 C65.3891,43.8463713 66.4131,39.4343713 67.3951,35.0133713 C67.6771,33.7453713 68.2391,32.6463713 68.8061,31.4943713 C69.3591,30.3703713 70.2931,30.2433713 71.1181,30.2293713 C72.5541,30.2063713 73.9681,30.2013713 75.3661,29.8333713 C76.2721,29.5953713 76.3641,30.1983713 76.2811,30.8413713 C75.9031,33.7543713 75.7861,36.6573713 76.0611,39.6003713 C76.4151,43.3983713 76.9941,47.1093713 78.3111,50.7253713 C78.9141,52.3793713 79.7531,53.9823713 79.9951,55.7753713 C80.0261,56.0033713 80.3231,56.2853713 80.0621,56.4573713 C77.9331,57.8633713 76.3631,59.9983713 74.0621,61.1833713 C73.2851,56.1693713 72.5131,51.2283713 71.7591,46.2833713 C71.6821,45.7783713 71.5911,45.0643713 71.1171,45.1083713 C70.5371,45.1623713 70.2941,45.9383713 70.1861,46.4793713 C69.6871,48.9963713 69.3801,51.5553713 68.7931,54.0493713 C68.1301,56.8693713 67.6261,59.7073713 67.2321,62.5713713 C67.0451,63.9363713 66.5101,64.6863713 64.9171,64.2903713 C64.1141,64.0903713 63.2071,64.3393713 62.3471,64.3403713 C60.1681,64.3453713 60.1011,64.1613713 59.7571,61.9533713 C58.7881,55.7383713 57.7411,49.5363713 56.6561,43.3403713 C56.6141,43.0953713 56.6331,42.3973713 56.1291,42.4203713 C55.7601,42.4373713 55.5661,42.7963713 55.4061,43.2763713 C54.2611,46.7123713 53.8481,50.2933713 53.1861,53.8233713 C52.7911,55.9283713 52.5261,58.0583713 52.1571,60.4693713" id="Fill-66" fill="#F6F1EE"></path>
                <path d="M130.1036,59.0122713 C131.0176,56.9342713 131.3096,54.6932713 131.7656,52.5002713 C132.4936,48.9982713 133.1666,45.4832713 133.8126,41.9652713 C134.0216,40.8242713 133.6796,39.6542713 134.0146,38.4672713 C134.1366,38.0352713 133.1916,37.8402713 132.5976,37.8772713 C130.4936,38.0102713 128.3896,38.1852713 126.3376,38.6812713 C125.4556,38.8952713 125.3336,38.7282713 125.4806,37.8532713 C125.7736,36.1212713 125.9516,34.3672713 126.1246,32.6172713 C126.2536,31.3082713 127.3536,31.4082713 128.1346,31.2912713 C133.0326,30.5602713 137.9586,30.0092713 142.8456,29.2132713 C146.4086,28.6322713 149.9246,27.7662713 153.6366,26.9912713 C152.2496,29.4392713 151.3606,31.9602713 150.4476,34.4702713 C150.3746,34.6702713 150.6636,34.9572713 150.0726,35.0362713 C147.4386,35.3872713 144.7856,35.6162713 142.1856,36.2432713 C141.4416,36.4222713 141.2456,36.5012713 141.1276,37.3312713 C140.7976,39.6622713 141.2456,41.9672713 141.1246,44.2772713 C140.9086,48.4082713 140.5876,52.5212713 139.7276,56.5922713 C139.2306,58.9382713 139.1356,61.3702713 138.8356,63.9782713 C135.9716,62.1532713 133.0846,60.4482713 130.0716,58.9762713 C130.0716,58.9752713 130.1036,59.0122713 130.1036,59.0122713" id="Fill-68" fill="#F6F1EE"></path>
                <path d="M104.8811,41.3732713 C103.3141,42.9162713 103.4241,44.7482713 103.1961,46.3062713 C102.7291,49.5032713 102.6021,52.7662713 102.5591,56.0052713 C102.5331,57.9752713 102.8681,59.9592713 103.1571,61.9202713 C103.2741,62.7132713 103.1201,62.7562713 102.5221,62.4172713 C100.5591,61.3082713 98.4921,60.3962713 96.5961,59.1532713 C96.0091,58.7682713 96.1401,58.3852713 96.2051,57.9542713 C97.0211,52.5432713 97.9541,47.1502713 98.4041,41.6862713 C98.6971,38.1302713 99.1181,34.5852713 98.9201,31.0072713 C98.8831,30.3332713 98.8921,29.9902713 99.8031,29.7302713 C102.1871,29.0492713 104.6161,28.6822713 107.0351,28.2232713 C107.8481,28.0692713 107.7781,28.5882713 107.9231,29.1412713 C108.9061,32.9062713 109.2481,36.8032713 110.4401,40.5362713 C111.0851,42.5592713 112.2081,44.4622713 112.2591,46.6722713 C112.2621,46.8102713 112.5661,47.0572713 112.7271,47.0552713 C113.3001,47.0502713 113.4061,46.3602713 113.3661,46.1492713 C113.1921,45.2492713 113.5851,44.4422713 113.6151,43.6062713 C113.7491,39.8002713 114.8941,36.1212713 114.9161,32.2972713 C114.9241,30.8672713 116.4581,31.3052713 117.2791,31.0082713 C118.3541,30.6192713 119.5611,30.4952713 120.7761,30.6412713 C120.7021,34.0902713 119.8341,37.4412713 119.5711,40.8672713 C119.4241,42.7752713 119.4151,44.6882713 119.2411,46.5892713 C118.9911,49.3152713 118.9321,52.0552713 118.4261,54.7652713 C118.2041,55.9552713 118.3301,57.2382713 118.4681,58.4602713 C118.5781,59.4292713 118.2461,60.0072713 117.3641,60.1402713 C115.5621,60.4132713 113.8931,61.0602713 112.2371,61.7672713 C111.6461,62.0192713 111.4041,61.7572713 111.1011,61.2182713 C109.4851,58.3452713 108.8621,55.1252713 107.8971,52.0352713 C107.2981,50.1172713 106.7201,48.1992713 106.0431,46.3042713 C105.6231,45.1262713 105.0761,43.9302713 105.1831,42.6072713 C105.2171,42.1862713 104.6581,42.0682713 104.8811,41.3732713" id="Fill-70" fill="#F6F1EE"></path>
                <path d="M86.0894,32.0006713 C85.2134,30.5146713 86.4044,30.1756713 87.4364,29.5216713 C88.6894,28.7256713 90.1394,28.4586713 91.3934,27.7176713 C92.0414,27.3346713 92.3354,27.7776713 92.2694,28.3356713 C91.7354,32.8436713 91.4984,37.3796713 91.0574,41.8966713 C90.6414,46.1556713 90.1434,50.4156713 89.7964,54.6866713 C89.6014,57.0756713 89.0604,59.4486713 88.8274,61.8516713 C88.7724,62.4146713 88.5024,62.4016713 87.8584,62.2046713 C86.3484,61.7416713 85.2534,60.4926713 83.6934,60.0976713 C83.1944,59.9706713 82.8234,59.4666713 83.0064,58.6836713 C83.7554,55.4716713 84.2464,52.2136713 84.5884,48.9306713 C84.9134,45.8086713 85.3874,42.7016713 85.6764,39.5766713 C85.9064,37.0916713 85.9554,34.5886713 86.0894,32.0006713" id="Fill-72" fill="#F6F1EE"></path>
            </g>
        </g>
    </g>
</svg>